{"glyphs":{"0":{"ha":738,"x_min":97,"x_max":640,"o":"m 566 60 q 529 26 566 60 q 368 -8 492 -8 q 171 60 244 -8 q 97 278 97 129 l 97 729 q 171 947 97 878 q 368 1015 244 1015 q 566 947 492 1015 q 640 729 640 878 l 640 278 q 566 60 640 129 m 147 729 l 147 278 q 167 161 147 211 l 544 892 q 368 965 489 965 q 204 906 261 965 q 147 729 147 847 m 590 278 l 590 729 q 572 840 590 789 l 193 113 q 368 42 247 42 q 533 101 475 42 q 590 278 590 160 z "},"1":{"ha":360,"x_min":61,"x_max":221,"o":"m 75 814 l 167 992 q 199 1015 179 1015 q 221 992 221 1015 l 221 25 q 196 0 221 0 q 171 25 171 0 l 171 888 l 111 776 q 86 758 103 758 q 69 765 76 758 q 61 782 61 772 q 75 814 61 786 z "},"2":{"ha":649,"x_min":53,"x_max":596,"o":"m 78 782 q 145 953 78 890 q 325 1015 213 1015 q 516 937 436 1015 q 596 749 596 858 q 545 600 596 671 q 422 476 494 529 q 277 374 350 422 q 153 269 204 325 q 103 160 103 214 l 103 50 l 572 50 q 589 42 582 50 q 596 25 596 35 q 589 8 596 15 q 572 0 582 0 l 78 0 q 60 7 68 0 q 53 25 53 14 l 53 160 q 90 267 53 214 q 181 360 126 319 l 300 447 l 418 536 q 509 633 472 578 q 546 749 546 689 q 481 902 546 839 q 325 965 415 965 q 181 918 233 965 q 128 782 128 871 q 120 765 128 772 q 103 758 113 758 q 85 765 93 758 q 78 782 78 772 z "},"3":{"ha":656,"x_min":44,"x_max":588,"o":"m 318 540 q 292 565 292 540 q 317 590 292 590 q 465 629 418 590 q 513 761 513 668 q 467 915 513 864 q 321 965 422 965 q 222 950 263 965 q 165 912 182 935 q 137 862 147 889 q 124 812 126 835 q 114 774 121 789 q 94 758 107 758 q 69 786 69 758 q 79 854 69 819 q 114 928 89 889 q 193 991 139 967 q 322 1015 247 1015 q 563 776 563 1015 q 446 564 563 617 q 588 304 588 499 l 588 278 q 513 61 588 131 q 317 -8 439 -8 q 116 60 188 -8 q 44 221 44 128 q 69 249 44 249 q 94 216 83 249 q 119 145 106 183 q 181 74 132 107 q 313 42 231 42 q 479 101 421 42 q 538 278 538 160 l 538 304 q 479 481 538 421 q 318 540 421 540 z "},"4":{"ha":575,"x_min":15,"x_max":558,"o":"m 401 25 l 401 247 l 39 247 q 15 272 15 247 q 19 289 15 283 l 376 996 q 404 1015 386 1015 q 421 1009 414 1015 q 428 993 428 1003 q 424 978 428 986 l 79 297 l 401 297 l 401 451 q 426 475 401 475 q 451 451 451 475 l 451 297 l 533 297 q 558 272 558 297 q 533 247 558 247 l 451 247 l 451 25 q 426 0 451 0 q 401 25 401 0 z "},"5":{"ha":636,"x_min":43,"x_max":586,"o":"m 143 590 l 315 590 q 513 522 439 590 q 586 304 586 453 l 586 278 q 512 60 586 129 q 314 -8 438 -8 q 121 57 190 -7 q 43 221 51 121 q 67 249 43 249 q 93 224 92 249 q 314 42 117 42 q 478 101 421 42 q 536 278 536 160 l 536 304 q 478 481 536 422 q 315 540 421 540 l 118 540 q 93 565 93 540 l 119 990 q 144 1015 122 1015 l 515 1015 q 536 990 536 1015 q 515 965 536 965 l 169 965 l 143 590 z "},"6":{"ha":690,"x_min":82,"x_max":625,"o":"m 354 576 q 625 304 625 576 l 625 278 q 551 60 625 129 q 354 -8 478 -8 q 156 60 231 -8 q 82 278 82 129 l 82 729 q 156 947 82 878 q 353 1015 229 1015 q 551 949 476 1015 q 625 786 625 882 q 601 758 625 758 q 575 783 575 758 q 511 915 575 864 q 353 965 447 965 q 189 906 246 965 q 132 729 132 847 l 132 474 q 354 576 204 576 m 132 317 l 132 278 q 190 101 132 160 q 354 42 247 42 q 518 101 461 42 q 575 278 575 160 l 575 304 q 519 474 575 421 q 354 526 463 526 q 132 317 132 526 z "},"7":{"ha":614,"x_min":46,"x_max":589,"o":"m 589 990 l 589 890 q 586 879 589 883 l 144 14 q 124 0 138 0 q 96 21 96 0 q 100 36 96 28 l 539 897 l 539 965 l 96 965 l 96 783 q 88 766 96 774 q 71 758 81 758 q 53 765 61 758 q 46 783 46 772 l 46 990 q 53 1008 46 1000 q 71 1015 61 1015 l 564 1015 q 581 1008 572 1015 q 589 990 589 1000 z "},"8":{"ha":679,"x_min":68,"x_max":611,"o":"m 340 1015 q 522 958 457 1011 q 586 778 586 906 q 468 561 586 613 q 611 303 611 501 l 611 278 q 538 61 611 131 q 340 -8 464 -8 q 142 61 217 -8 q 68 278 68 131 l 68 303 q 213 561 68 500 q 94 778 94 613 q 159 958 94 906 q 340 1015 224 1011 m 561 278 l 561 303 q 503 477 561 419 q 340 535 446 535 q 176 477 235 535 q 118 303 118 419 l 118 278 q 176 101 118 160 q 342 42 235 42 q 504 101 447 42 q 561 278 561 160 m 340 965 q 194 918 243 961 q 144 778 144 875 q 340 586 144 586 q 536 778 536 586 q 487 918 536 875 q 340 965 438 961 z "},"9":{"ha":721,"x_min":81,"x_max":624,"o":"m 351 425 q 154 494 228 425 q 81 711 81 563 l 81 729 q 154 947 81 878 q 351 1015 228 1015 q 549 947 475 1015 q 624 729 624 878 l 624 278 q 550 60 624 129 q 353 -8 476 -8 q 151 63 222 -8 q 81 221 81 133 q 104 249 81 249 q 131 224 131 249 q 194 92 131 142 q 353 42 258 42 q 517 101 460 42 q 574 278 574 160 l 574 529 q 351 425 500 425 m 574 699 l 574 729 q 516 906 574 847 q 351 965 458 965 q 188 906 244 965 q 131 729 131 847 l 131 711 q 188 534 131 593 q 351 475 244 475 q 515 531 456 475 q 574 699 574 588 z "}," ":{"ha":285,"x_min":0,"x_max":0,"o":""},"!":{"ha":264,"x_min":72,"x_max":193,"o":"m 167 990 l 142 228 q 131 204 142 204 q 121 228 121 204 l 96 990 q 105 1024 96 1008 q 133 1039 114 1039 q 167 990 167 1039 m 132 -8 q 90 10 108 -8 q 72 51 72 28 q 90 93 72 75 q 132 111 108 111 q 175 93 157 111 q 193 51 193 75 q 175 10 193 28 q 132 -8 157 -8 z "},"\"":{"ha":351,"x_min":58,"x_max":293,"o":"m 69 1008 q 75 1012 69 1008 q 92 1015 81 1015 q 115 1008 103 1015 q 126 992 126 1001 l 113 781 q 92 756 113 756 q 72 781 72 756 l 58 992 q 69 1008 58 1001 m 236 1008 q 242 1012 236 1008 q 258 1015 247 1015 q 281 1008 269 1015 q 293 992 293 1001 l 279 781 q 258 756 279 756 q 239 781 239 756 l 225 992 q 236 1008 225 1001 z "},"#":{"ha":758,"x_min":44,"x_max":717,"o":"m 447 71 q 424 50 443 50 q 401 76 401 50 l 446 372 l 260 372 l 215 72 q 194 50 211 50 q 171 76 171 50 l 214 372 l 69 372 q 44 393 44 372 q 61 414 44 414 l 222 414 l 258 660 l 113 660 q 88 682 88 660 q 104 701 88 701 l 265 701 l 307 976 q 324 990 310 990 q 350 963 350 990 l 310 701 l 497 701 l 539 976 q 556 990 539 990 q 575 982 568 990 q 582 963 582 974 l 542 701 l 690 701 q 717 681 717 701 q 711 667 717 674 q 699 660 706 660 l 536 660 l 499 414 l 647 414 q 674 392 674 414 q 668 378 674 385 q 656 372 663 372 l 492 372 l 447 71 m 304 660 l 267 414 l 453 414 l 490 660 l 304 660 z "},"$":{"ha":665,"x_min":58,"x_max":601,"o":"m 359 -65 q 355 -69 359 -65 q 342 -72 351 -72 q 324 -65 332 -72 q 317 -49 317 -58 l 317 10 q 133 77 207 10 q 58 242 58 144 q 86 292 58 292 q 114 257 114 292 q 168 114 114 168 q 317 60 222 60 l 317 490 q 148 603 210 539 q 86 775 86 667 q 149 930 86 865 q 317 994 213 994 l 317 1043 q 324 1060 317 1053 q 342 1067 332 1067 q 359 1060 351 1067 q 367 1043 367 1053 l 367 994 q 527 930 481 994 q 572 779 574 865 q 551 725 572 725 q 528 760 535 725 q 517 838 522 796 q 475 916 513 881 q 367 951 438 951 l 367 521 q 454 476 422 494 q 526 424 486 457 q 583 347 565 392 q 601 243 601 301 q 534 72 601 133 q 367 10 467 10 l 367 -49 q 359 -65 367 -58 m 556 249 q 507 371 556 324 q 367 464 458 418 l 367 60 q 503 113 450 60 q 556 249 556 167 m 135 769 q 182 637 135 686 q 317 544 229 588 l 317 951 q 184 900 233 951 q 135 769 135 849 z "},"%":{"ha":1054,"x_min":53,"x_max":1003,"o":"m 329 -28 q 312 -21 319 -28 q 304 -4 304 -14 q 306 4 304 1 l 688 1051 q 710 1067 692 1067 q 728 1060 721 1067 q 736 1043 736 1053 q 732 1028 736 1036 l 353 -12 q 329 -28 349 -28 m 638 456 q 665 487 638 456 q 792 518 693 518 q 947 456 890 518 q 1003 290 1003 394 l 1003 228 q 946 62 1003 126 q 792 -3 889 -3 q 638 61 694 -3 q 582 228 582 125 l 582 290 q 638 456 582 393 m 954 228 l 954 290 q 913 420 954 371 q 792 469 872 469 q 672 420 713 469 q 631 290 631 371 l 631 229 q 672 97 631 147 q 793 46 713 46 q 913 96 871 46 q 954 228 954 146 m 108 953 q 136 984 108 953 q 263 1015 164 1015 q 417 953 361 1015 q 474 788 474 892 l 474 725 q 417 559 474 624 q 263 494 360 494 q 109 558 165 494 q 53 725 53 622 l 53 788 q 108 953 53 890 m 425 725 l 425 788 q 384 917 425 868 q 263 967 343 967 q 142 917 183 967 q 101 788 101 868 l 101 726 q 142 594 101 644 q 264 543 183 543 q 383 593 342 543 q 425 725 425 643 z "},"&":{"ha":838,"x_min":56,"x_max":818,"o":"m 364 1039 q 510 994 451 1039 q 569 918 569 950 q 562 900 569 907 q 543 893 554 893 q 521 909 533 893 q 495 944 508 925 q 449 978 482 963 q 369 994 415 994 q 238 943 286 994 q 190 806 190 892 q 222 681 190 736 q 314 557 253 625 l 624 214 q 678 499 667 317 q 701 533 681 533 q 722 496 722 533 q 657 176 722 310 l 818 0 l 760 0 l 635 135 q 360 -14 540 -14 q 137 70 218 -14 q 56 276 56 154 q 112 448 56 379 q 251 551 168 517 q 193 625 214 596 q 152 706 172 654 q 132 810 132 757 q 199 978 132 917 q 364 1039 265 1039 m 368 35 q 601 169 525 35 l 281 515 q 222 481 244 496 q 169 438 200 467 q 123 369 139 408 q 107 282 107 331 q 177 107 107 179 q 368 35 247 35 z "},"'":{"ha":185,"x_min":58,"x_max":126,"o":"m 69 1008 q 75 1012 69 1008 q 92 1015 81 1015 q 115 1008 103 1015 q 126 992 126 1001 l 113 781 q 92 756 113 756 q 72 781 72 756 l 58 992 q 69 1008 58 1001 z "},"(":{"ha":365,"x_min":83,"x_max":349,"o":"m 325 -28 q 149 33 215 -28 q 83 199 83 93 l 83 821 q 152 993 83 919 q 325 1067 221 1067 q 342 1060 335 1067 q 349 1043 349 1053 q 342 1026 349 1033 q 325 1018 335 1018 q 185 958 238 1018 q 133 821 133 899 l 133 199 q 190 60 133 100 q 325 21 246 21 q 349 -3 349 21 q 341 -21 349 -14 q 325 -28 333 -28 z "},")":{"ha":365,"x_min":17,"x_max":282,"o":"m 40 -28 q 24 -21 32 -28 q 17 -3 17 -14 q 40 21 17 21 q 176 60 119 21 q 232 199 232 100 l 232 821 q 180 958 232 899 q 40 1018 128 1018 q 24 1026 31 1018 q 17 1043 17 1033 q 24 1060 17 1053 q 40 1067 31 1067 q 213 993 144 1067 q 282 821 282 919 l 282 199 q 216 33 282 93 q 40 -28 150 -28 z "},"*":{"ha":575,"x_min":53,"x_max":522,"o":"m 321 760 l 439 604 q 443 592 443 597 q 435 573 443 581 q 415 565 426 565 q 397 575 406 565 l 288 735 l 176 574 q 161 565 169 565 q 142 572 151 565 q 132 590 132 579 q 138 606 132 599 l 254 758 l 68 814 q 53 836 53 818 q 60 856 53 847 q 78 864 67 864 q 85 863 82 864 l 269 797 l 263 992 q 288 1015 263 1015 q 313 992 313 1015 l 306 796 l 492 863 l 494 864 l 499 864 q 515 855 508 864 q 522 836 522 846 q 506 814 522 818 l 321 760 z "},"+":{"ha":593,"x_min":50,"x_max":543,"o":"m 297 88 q 272 111 272 88 l 272 310 l 74 310 q 50 333 50 310 q 74 358 50 358 l 272 358 l 272 556 q 280 573 272 565 q 297 581 288 581 q 314 573 307 581 q 321 556 321 565 l 321 358 l 518 358 q 535 351 528 358 q 543 333 543 343 q 535 317 543 324 q 518 310 528 310 l 321 310 l 321 111 q 297 88 321 88 z "},",":{"ha":244,"x_min":61,"x_max":182,"o":"m 122 111 q 164 94 146 111 q 182 40 182 78 q 158 -51 182 -3 q 115 -100 135 -100 q 99 -78 99 -100 q 100 -71 99 -74 l 121 -8 q 78 10 96 -7 q 61 51 61 28 q 79 93 61 75 q 122 111 97 111 z "},"-":{"ha":664,"x_min":86,"x_max":579,"o":"m 86 333 q 110 358 86 358 l 554 358 q 572 351 564 358 q 579 333 579 343 q 572 317 579 324 q 554 310 564 310 l 110 310 q 86 333 86 310 z "},".":{"ha":243,"x_min":61,"x_max":182,"o":"m 122 111 q 164 93 146 111 q 182 51 182 75 q 164 10 182 28 q 122 -8 146 -8 q 79 10 97 -8 q 61 51 61 28 q 79 93 61 75 q 122 111 97 111 z "},"/":{"ha":649,"x_min":32,"x_max":621,"o":"m 617 1025 l 78 -12 q 54 -28 69 -28 q 32 -7 32 -28 q 35 6 32 1 l 578 1056 q 596 1067 583 1067 q 613 1059 604 1067 q 621 1040 621 1051 q 617 1025 621 1033 z "},":":{"ha":290,"x_min":85,"x_max":206,"o":"m 146 111 q 188 93 169 111 q 206 51 206 75 q 188 10 206 28 q 146 -8 169 -8 q 103 10 121 -8 q 85 51 85 28 q 103 93 85 75 q 146 111 121 111 m 146 586 q 188 568 169 586 q 206 526 206 550 q 188 485 206 503 q 146 467 169 467 q 103 485 121 467 q 85 526 85 503 q 103 568 85 550 q 146 586 121 586 z "},";":{"ha":290,"x_min":85,"x_max":206,"o":"m 146 111 q 188 94 169 111 q 206 40 206 78 q 182 -51 206 -3 q 139 -100 158 -100 q 122 -78 122 -100 q 144 -8 122 -72 q 102 10 119 -7 q 85 51 85 28 q 103 93 85 75 q 146 111 121 111 m 146 586 q 188 568 169 586 q 206 526 206 550 q 188 485 206 503 q 146 467 169 467 q 103 485 121 467 q 85 526 85 503 q 103 568 85 550 q 146 586 121 586 z "},"<":{"ha":553,"x_min":42,"x_max":476,"o":"m 464 624 l 106 385 l 464 147 q 476 126 476 140 q 468 110 476 117 q 450 103 460 103 q 438 107 444 103 l 56 360 q 42 385 42 368 q 56 411 42 400 l 438 664 q 450 668 444 668 q 468 661 460 668 q 476 644 476 654 q 464 624 476 631 z "},"=":{"ha":599,"x_min":101,"x_max":497,"o":"m 101 244 q 125 269 101 269 l 472 269 q 490 262 482 269 q 497 244 497 254 q 490 228 497 235 q 472 221 482 221 l 125 221 q 101 244 101 221 m 101 526 q 125 551 101 551 l 472 551 q 490 544 482 551 q 497 526 497 536 q 490 510 497 517 q 472 503 482 503 l 125 503 q 101 526 101 503 z "},">":{"ha":554,"x_min":78,"x_max":513,"o":"m 449 385 l 90 624 q 78 644 78 631 q 86 661 78 654 q 104 668 94 668 q 117 664 111 668 l 499 411 q 513 385 513 400 q 499 360 513 368 l 117 107 q 104 103 111 103 q 86 110 94 103 q 78 126 78 117 q 90 147 78 140 l 449 385 z "},"?":{"ha":531,"x_min":35,"x_max":479,"o":"m 250 533 l 239 228 q 221 204 239 204 q 204 228 204 204 l 193 532 q 224 582 193 582 q 378 637 326 583 q 431 786 431 690 q 377 937 431 883 q 219 990 324 990 q 138 976 172 990 q 87 947 104 961 q 61 933 69 933 q 43 940 51 933 q 35 958 35 947 q 93 1014 35 989 q 224 1039 151 1039 q 415 969 350 1039 q 479 786 479 899 q 420 609 479 678 q 250 533 361 540 m 222 -8 q 181 10 199 -8 q 163 51 163 28 q 181 93 163 75 q 222 111 199 111 q 265 93 247 111 q 283 51 283 75 q 265 10 283 28 q 222 -8 247 -8 z "},"@":{"ha":996,"x_min":68,"x_max":921,"o":"m 328 529 q 385 570 328 554 q 514 586 443 586 q 681 406 681 586 l 681 169 q 712 118 683 140 q 772 96 740 96 q 849 163 826 96 q 872 324 872 231 q 776 624 872 517 q 503 732 679 732 q 212 611 307 732 q 117 301 117 490 q 135 151 117 221 q 190 24 153 82 q 297 -69 228 -35 q 457 -103 365 -103 q 556 -87 510 -103 q 628 -58 601 -72 q 663 -43 656 -43 q 677 -49 671 -43 q 683 -64 683 -56 q 610 -126 683 -99 q 451 -153 536 -153 q 178 -37 288 -153 q 68 304 68 79 q 176 651 68 518 q 501 785 283 785 q 921 322 921 785 q 767 47 921 47 q 681 73 718 47 q 638 136 643 99 q 563 80 594 96 q 472 64 531 64 q 292 217 292 64 q 358 342 292 308 q 563 375 424 375 l 632 375 l 632 406 q 483 536 632 536 q 394 519 431 536 q 353 503 357 503 q 335 512 342 503 q 328 529 328 521 m 632 228 l 632 325 l 564 325 q 475 322 508 325 q 407 309 442 319 q 356 276 372 299 q 340 215 340 253 q 464 113 340 113 q 585 149 539 113 q 632 228 632 186 z "},"A":{"ha":674,"x_min":38,"x_max":636,"o":"m 586 18 l 524 246 l 150 246 l 88 18 q 61 0 83 0 q 38 22 38 0 q 39 31 38 26 l 313 1004 q 338 1024 318 1024 q 364 1004 357 1024 l 635 31 q 636 22 636 26 q 613 0 636 0 q 586 18 590 0 m 338 918 l 164 296 l 510 296 l 338 918 z "},"B":{"ha":729,"x_min":114,"x_max":657,"o":"m 114 24 l 114 990 q 139 1015 114 1015 l 347 1015 q 558 967 485 1015 q 632 783 632 918 q 600 635 632 696 q 514 550 568 574 q 657 306 657 490 l 657 282 q 583 67 657 135 q 385 0 508 0 l 139 0 q 114 24 114 3 m 164 50 l 385 50 q 607 282 607 50 l 607 306 q 550 474 607 422 q 385 525 493 525 l 164 525 l 164 50 m 164 965 l 164 575 l 357 575 q 529 621 476 575 q 582 783 582 667 q 523 928 582 890 q 350 965 464 965 l 164 965 z "},"C":{"ha":693,"x_min":97,"x_max":640,"o":"m 147 729 l 147 278 q 204 101 147 160 q 368 42 261 42 q 520 87 463 42 q 590 224 578 132 q 615 249 592 249 q 640 221 640 249 q 562 56 632 119 q 368 -8 492 -8 q 171 60 244 -8 q 97 278 97 129 l 97 729 q 171 947 97 878 q 368 1015 244 1015 q 562 951 492 1015 q 640 786 632 888 q 615 758 640 758 q 590 783 592 758 q 520 920 578 875 q 368 965 463 965 q 204 906 261 965 q 147 729 147 847 z "},"D":{"ha":756,"x_min":115,"x_max":658,"o":"m 140 1015 l 386 1015 q 584 947 510 1015 q 658 729 658 878 l 658 286 q 584 69 658 138 q 386 0 510 0 l 140 0 q 115 24 115 0 l 115 992 q 140 1015 115 1015 m 386 965 l 165 965 l 165 50 l 386 50 q 551 109 493 50 q 608 286 608 168 l 608 729 q 551 906 608 847 q 386 965 493 965 z "},"E":{"ha":693,"x_min":114,"x_max":657,"o":"m 164 965 l 164 533 l 386 533 q 410 507 410 533 q 386 483 410 483 l 164 483 l 164 50 l 633 50 q 657 24 657 50 q 633 0 657 0 l 139 0 q 114 25 114 0 l 114 990 q 139 1015 114 1015 l 633 1015 q 657 992 657 1015 q 633 965 657 965 l 164 965 z "},"F":{"ha":667,"x_min":114,"x_max":657,"o":"m 139 1015 l 633 1015 q 657 992 657 1015 q 633 965 657 965 l 164 965 l 164 533 l 386 533 q 410 507 410 533 q 386 483 410 483 l 164 483 l 164 24 q 139 0 164 0 q 114 24 114 0 l 114 990 q 139 1015 114 1015 z "},"G":{"ha":722,"x_min":97,"x_max":640,"o":"m 590 483 l 369 483 q 346 508 346 483 q 369 533 346 533 l 617 533 q 640 507 640 533 l 640 278 q 566 60 640 129 q 368 -8 492 -8 q 171 60 244 -8 q 97 278 97 129 l 97 729 q 171 947 97 878 q 368 1015 244 1015 q 562 951 492 1015 q 640 786 632 888 q 615 758 640 758 q 590 783 592 758 q 520 920 578 875 q 368 965 463 965 q 204 906 261 965 q 147 729 147 847 l 147 278 q 204 101 147 160 q 368 42 261 42 q 533 101 475 42 q 590 278 590 160 l 590 483 z "},"H":{"ha":772,"x_min":114,"x_max":657,"o":"m 607 25 l 607 501 l 164 501 l 164 25 q 139 0 164 0 q 114 25 114 0 l 114 992 q 139 1015 114 1015 q 164 992 164 1015 l 164 551 l 607 551 l 607 992 q 632 1015 607 1015 q 657 992 657 1015 l 657 25 q 632 0 657 0 q 607 25 607 0 z "},"I":{"ha":278,"x_min":114,"x_max":164,"o":"m 114 25 l 114 992 q 139 1015 114 1015 q 164 992 164 1015 l 164 25 q 139 0 164 0 q 114 25 114 0 z "},"J":{"ha":686,"x_min":35,"x_max":578,"o":"m 307 1015 l 553 1015 q 578 990 578 1015 l 578 278 q 504 60 578 129 q 307 -8 431 -8 q 113 56 183 -8 q 35 221 43 119 q 58 249 35 249 q 85 224 83 249 q 155 87 97 132 q 307 42 213 42 q 471 101 414 42 q 528 278 528 160 l 528 965 l 307 965 q 283 992 283 965 q 307 1015 283 1015 z "},"K":{"ha":704,"x_min":114,"x_max":693,"o":"m 646 13 l 297 535 l 164 368 l 164 25 q 139 0 164 0 q 114 25 114 0 l 114 992 q 139 1015 114 1015 q 164 992 164 1015 l 164 447 l 613 1007 q 632 1015 619 1015 q 649 1007 642 1015 q 657 989 657 999 q 651 975 657 981 l 331 576 l 689 38 q 693 25 693 31 q 685 8 693 15 q 667 0 678 0 q 646 13 654 0 z "},"L":{"ha":626,"x_min":114,"x_max":607,"o":"m 586 0 l 139 0 q 114 25 114 0 l 114 992 q 139 1015 114 1015 q 164 992 164 1015 l 164 50 l 586 50 q 607 25 607 50 q 586 0 607 0 z "},"M":{"ha":896,"x_min":115,"x_max":781,"o":"m 731 893 l 474 388 q 447 361 460 361 q 421 388 433 361 l 165 893 l 165 25 q 140 0 165 0 q 115 25 115 0 l 115 992 q 140 1015 115 1015 q 183 965 156 1015 l 447 435 l 713 965 q 756 1015 740 1015 q 781 992 781 1015 l 781 25 q 756 0 781 0 q 731 25 731 0 l 731 893 z "},"N":{"ha":774,"x_min":115,"x_max":658,"o":"m 183 965 l 608 124 l 608 992 q 633 1015 608 1015 q 658 992 658 1015 l 658 25 q 633 0 658 0 q 593 50 618 0 l 165 893 l 165 25 q 140 0 165 0 q 115 25 115 0 l 115 992 q 140 1015 115 1015 q 183 965 156 1015 z "},"O":{"ha":738,"x_min":97,"x_max":640,"o":"m 566 60 q 529 26 566 60 q 368 -8 492 -8 q 171 60 244 -8 q 97 278 97 129 l 97 729 q 171 947 97 878 q 368 1015 244 1015 q 566 947 492 1015 q 640 729 640 878 l 640 278 q 566 60 640 129 m 590 278 l 590 729 q 533 906 590 847 q 368 965 475 965 q 204 906 261 965 q 147 729 147 847 l 147 278 q 204 101 147 160 q 368 42 261 42 q 533 101 475 42 q 590 278 590 160 z "},"P":{"ha":714,"x_min":115,"x_max":658,"o":"m 115 25 l 115 992 q 140 1015 115 1013 l 386 1015 q 584 947 510 1015 q 658 729 658 878 l 658 713 q 584 494 658 564 q 386 425 510 425 l 165 425 l 165 25 q 140 0 165 0 q 115 25 115 0 m 386 965 l 165 965 l 165 475 l 386 475 q 551 535 493 475 q 608 713 608 594 l 608 729 q 551 906 608 847 q 386 965 493 965 z "},"Q":{"ha":738,"x_min":97,"x_max":640,"o":"m 344 -126 l 344 -7 q 164 67 231 -1 q 97 278 97 136 l 97 729 q 171 947 97 878 q 368 1015 244 1015 q 566 947 492 1015 q 640 729 640 878 l 640 278 q 574 68 640 138 q 394 -7 507 -1 l 394 -126 q 369 -151 394 -151 q 344 -126 344 -151 m 590 278 l 590 729 q 533 906 590 847 q 368 965 475 965 q 204 906 261 965 q 147 729 147 847 l 147 278 q 344 42 147 54 l 344 158 q 369 182 344 182 q 394 158 394 182 l 394 43 q 590 278 590 57 z "},"R":{"ha":706,"x_min":115,"x_max":658,"o":"m 115 25 l 115 992 q 140 1015 115 1013 l 372 1015 q 579 953 500 1015 q 658 750 658 890 q 425 486 658 514 l 654 40 q 658 25 658 32 q 651 7 658 14 q 633 0 644 0 q 623 3 628 0 q 613 13 618 6 q 606 24 608 19 l 600 39 q 593 50 594 49 l 371 483 l 165 483 l 165 25 q 140 0 165 0 q 115 25 115 0 m 372 965 l 165 965 l 165 533 l 372 533 q 545 586 482 533 q 608 750 608 639 q 545 913 608 861 q 372 965 482 965 z "},"S":{"ha":675,"x_min":63,"x_max":606,"o":"m 556 267 q 530 383 556 333 q 463 460 504 432 q 372 508 421 488 l 272 550 q 181 596 222 571 q 113 665 139 621 q 88 769 88 708 q 111 895 88 843 q 174 972 135 947 q 251 1006 213 996 q 332 1015 289 1015 q 517 950 454 1015 q 581 786 581 885 q 556 758 581 758 q 528 800 528 758 q 520 851 528 826 q 494 904 513 876 q 435 949 476 932 q 336 965 394 965 q 269 957 300 965 q 206 928 238 949 q 156 867 175 908 q 138 769 138 826 q 163 683 138 719 q 231 625 189 647 q 322 584 272 603 q 422 542 372 565 q 513 488 471 518 q 580 403 554 457 q 606 278 606 350 q 532 60 606 129 q 336 -8 458 -8 q 139 58 215 -8 q 63 221 63 124 q 89 249 63 249 q 113 224 107 249 q 129 165 121 188 q 160 109 138 142 q 224 59 182 76 q 328 42 267 42 q 497 99 438 42 q 556 267 556 157 z "},"T":{"ha":649,"x_min":28,"x_max":621,"o":"m 300 965 l 53 965 q 35 973 42 965 q 28 990 28 981 q 35 1008 28 1000 q 53 1015 42 1015 l 596 1015 q 621 992 621 1015 q 596 965 621 965 l 350 965 l 350 25 q 325 0 350 0 q 300 25 300 0 l 300 965 z "},"U":{"ha":760,"x_min":108,"x_max":651,"o":"m 108 278 l 108 992 q 133 1015 108 1015 q 158 992 158 1015 l 158 278 q 215 101 158 160 q 379 42 272 42 q 544 101 486 42 q 601 278 601 160 l 601 992 q 626 1015 601 1015 q 651 992 651 1015 l 651 278 q 577 60 651 129 q 379 -8 503 -8 q 182 60 256 -8 q 108 278 108 129 z "},"V":{"ha":674,"x_min":38,"x_max":636,"o":"m 88 997 l 338 97 l 586 997 q 613 1015 590 1015 q 636 993 636 1015 q 635 985 636 989 l 364 11 q 338 -8 357 -8 q 313 11 317 -8 l 39 985 q 38 993 38 989 q 61 1015 38 1015 q 88 997 83 1015 z "},"W":{"ha":1029,"x_min":38,"x_max":992,"o":"m 338 97 l 485 632 q 515 656 492 656 q 543 632 536 656 l 693 97 l 942 997 q 968 1015 946 1015 q 992 993 992 1015 q 990 985 992 989 l 719 11 q 693 -8 713 -8 q 668 11 672 -8 l 515 556 l 364 11 q 338 -8 357 -8 q 313 11 317 -8 l 39 985 q 38 993 38 989 q 61 1015 38 1015 q 88 997 83 1015 l 338 97 z "},"X":{"ha":621,"x_min":39,"x_max":582,"o":"m 106 965 l 310 563 l 515 965 q 557 1015 540 1015 q 582 996 582 1015 q 575 972 582 986 l 338 508 l 578 40 q 582 25 582 32 q 574 7 582 14 q 557 0 567 0 q 547 3 551 0 q 537 13 542 6 q 531 24 532 19 l 522 39 q 517 50 518 49 l 310 454 l 104 50 q 97 39 103 49 l 92 24 q 84 13 89 19 q 74 3 79 6 q 64 0 69 0 q 46 7 53 0 q 39 25 39 14 q 43 40 39 32 l 282 508 l 46 972 q 39 996 39 986 q 64 1015 39 1015 q 106 965 81 1015 z "},"Y":{"ha":710,"x_min":32,"x_max":676,"o":"m 669 965 l 381 388 q 379 379 379 385 l 379 25 q 354 0 379 0 q 329 25 329 0 l 329 379 q 328 388 329 385 l 40 965 q 32 993 32 982 q 50 1015 32 1015 q 78 992 67 1015 l 354 435 l 632 992 q 660 1015 644 1015 q 676 993 676 1015 q 669 965 676 979 z "},"Z":{"ha":631,"x_min":44,"x_max":588,"o":"m 563 0 l 69 0 q 51 7 58 0 q 44 25 44 14 q 49 40 44 32 l 521 965 l 69 965 q 44 990 44 965 q 69 1015 44 1015 l 563 1015 q 588 996 588 1015 q 581 972 588 986 l 110 50 l 563 50 q 588 25 588 50 q 563 0 588 0 z "},"[":{"ha":385,"x_min":103,"x_max":368,"o":"m 344 -29 l 128 -29 q 110 -22 118 -29 q 103 -6 103 -15 l 103 1043 q 110 1060 103 1053 q 128 1067 118 1067 l 344 1067 q 361 1060 354 1067 q 368 1043 368 1053 q 361 1026 368 1033 q 344 1018 354 1018 l 153 1018 l 153 19 l 344 19 q 361 12 354 19 q 368 -6 368 4 q 361 -22 368 -15 q 344 -29 354 -29 z "},"\\":{"ha":472,"x_min":38,"x_max":433,"o":"m 386 17 l 39 1010 q 38 1021 38 1014 q 45 1040 38 1033 q 63 1047 53 1047 q 82 1035 78 1047 l 432 29 q 433 21 433 26 q 410 0 433 0 q 386 17 392 0 z "},"]":{"ha":385,"x_min":17,"x_max":282,"o":"m 257 -29 l 40 -29 q 24 -22 31 -29 q 17 -6 17 -15 q 24 12 17 4 q 40 19 31 19 l 232 19 l 232 1018 l 40 1018 q 24 1026 31 1018 q 17 1043 17 1033 q 24 1060 17 1053 q 40 1067 31 1067 l 257 1067 q 274 1060 267 1067 q 282 1043 282 1053 l 282 -6 q 274 -22 282 -15 q 257 -29 267 -29 z "},"^":{"ha":361,"x_min":0,"x_max":361,"o":"m 181 915 l 36 838 q 31 835 35 838 q 25 833 26 833 q 8 841 15 833 q 0 860 0 849 q 13 879 0 872 l 157 957 q 181 964 168 964 q 204 957 193 964 l 349 881 q 361 857 361 875 q 354 841 361 847 q 338 835 347 835 l 325 839 l 181 915 z "},"_":{"ha":631,"x_min":69,"x_max":563,"o":"m 69 24 q 93 49 69 49 l 538 49 q 555 41 547 49 q 563 24 563 33 q 555 7 563 14 q 538 0 547 0 l 93 0 q 69 24 69 0 z "},"`":{"ha":185,"x_min":0,"x_max":185,"o":"m 146 839 l 14 914 q 0 939 0 922 q 22 964 0 964 q 32 961 26 964 l 174 878 q 185 860 185 872 q 177 842 185 850 q 158 835 169 835 q 146 839 153 835 z "},"a":{"ha":586,"x_min":47,"x_max":497,"o":"m 121 656 l 250 656 q 438 588 378 656 q 497 410 497 521 l 497 25 q 474 0 497 0 q 456 7 464 0 q 449 25 449 14 l 449 97 q 240 -8 357 -8 q 101 38 154 -8 q 47 175 47 85 q 130 319 47 279 q 371 358 213 358 l 449 358 l 449 410 q 398 551 449 494 q 250 607 347 607 l 121 607 q 103 615 111 607 q 96 632 96 622 q 121 656 96 656 m 449 193 l 449 310 l 372 310 q 267 306 310 310 q 182 288 225 301 q 117 247 139 275 q 96 175 96 218 q 135 74 96 108 q 239 40 175 40 q 381 93 314 40 q 449 193 449 146 z "},"b":{"ha":650,"x_min":96,"x_max":581,"o":"m 119 1067 q 144 1043 144 1067 l 144 558 q 331 664 204 664 q 507 590 433 664 q 581 414 581 517 l 581 244 q 506 68 581 144 q 333 -8 432 -8 q 220 22 272 -8 q 144 97 168 53 l 144 25 q 137 8 144 15 q 119 0 129 0 q 103 8 110 0 q 96 25 96 15 l 96 1043 q 119 1067 96 1067 m 532 244 l 532 414 q 473 553 532 492 q 335 615 414 615 q 202 560 260 615 q 144 414 144 504 l 144 193 q 203 95 144 150 q 336 40 261 40 q 473 103 414 40 q 532 244 532 165 z "},"c":{"ha":564,"x_min":71,"x_max":515,"o":"m 325 -8 q 135 61 200 -8 q 71 244 71 131 l 71 411 q 135 594 71 524 q 325 664 200 664 q 461 636 407 664 q 515 582 515 608 q 507 565 515 572 q 490 558 499 558 q 464 572 482 558 q 410 601 446 586 q 325 615 375 615 q 173 561 226 615 q 119 411 119 507 l 119 244 q 173 94 119 149 q 326 40 226 40 q 412 55 378 40 q 463 83 446 69 q 490 97 481 97 q 508 90 500 97 q 515 74 515 83 q 461 19 515 46 q 325 -8 407 -8 z "},"d":{"ha":650,"x_min":69,"x_max":554,"o":"m 531 1067 q 554 1043 554 1067 l 554 25 q 547 8 554 15 q 531 0 540 0 q 513 8 521 0 q 506 25 506 15 l 506 97 q 430 22 482 53 q 317 -8 378 -8 q 144 68 218 -8 q 69 244 69 144 l 69 414 q 143 590 69 517 q 319 664 217 664 q 506 558 446 664 l 506 1043 q 531 1067 506 1067 m 118 414 l 118 244 q 177 103 118 165 q 314 40 236 40 q 447 95 389 40 q 506 193 506 150 l 506 414 q 448 560 506 504 q 315 615 390 615 q 177 553 236 615 q 118 414 118 492 z "},"e":{"ha":617,"x_min":69,"x_max":563,"o":"m 317 664 q 490 592 417 664 q 563 414 563 521 q 554 356 563 378 q 526 324 546 333 q 491 312 507 314 q 447 310 475 310 l 118 310 l 118 244 q 183 96 118 151 q 353 40 249 40 q 439 55 404 40 q 491 83 474 69 q 517 97 508 97 q 534 89 526 97 q 542 72 542 81 q 519 40 542 58 q 451 6 497 21 q 350 -8 406 -8 q 148 62 226 -8 q 69 244 69 132 l 69 418 q 142 591 69 518 q 317 664 215 664 m 118 358 l 431 358 q 498 368 482 358 q 514 410 514 378 q 458 552 514 489 q 317 615 403 615 q 176 556 233 615 q 118 418 118 497 l 118 358 z "},"f":{"ha":401,"x_min":96,"x_max":382,"o":"m 144 819 l 144 656 l 357 656 q 374 649 367 656 q 382 632 382 642 q 374 615 382 622 q 357 607 367 607 l 144 607 l 144 24 q 137 7 144 14 q 118 0 129 0 q 96 24 96 0 l 96 819 q 169 993 96 919 q 343 1067 243 1067 l 357 1067 q 374 1060 367 1067 q 382 1042 382 1053 q 357 1018 382 1018 l 343 1018 q 203 958 261 1018 q 144 819 146 899 z "},"g":{"ha":625,"x_min":44,"x_max":608,"o":"m 306 664 q 471 597 407 664 q 527 658 489 635 q 608 682 565 682 l 608 628 q 494 567 524 628 q 531 436 531 511 l 531 374 q 467 208 531 274 q 306 143 404 143 q 190 172 240 143 q 135 106 135 147 q 167 58 135 75 q 249 36 200 40 q 354 23 297 32 q 460 1 411 14 q 541 -49 508 -12 q 574 -142 574 -85 q 504 -280 574 -231 q 314 -329 435 -329 q 118 -281 192 -329 q 44 -150 44 -232 q 171 4 44 -40 q 86 103 86 28 q 154 199 86 167 q 82 374 82 263 l 82 436 q 144 601 82 538 q 306 664 206 664 m 482 374 l 482 436 q 435 565 482 514 q 306 615 388 615 q 178 565 225 615 q 131 436 131 514 l 131 375 q 178 243 131 294 q 307 192 225 192 q 434 243 386 192 q 482 374 482 294 m 525 -143 q 509 -91 525 -114 q 472 -56 493 -68 q 416 -33 451 -43 q 356 -20 381 -24 q 293 -12 332 -17 q 243 -7 254 -8 q 137 -61 181 -25 q 93 -149 93 -97 q 152 -244 93 -208 q 304 -281 211 -281 q 464 -242 403 -281 q 525 -143 525 -203 z "},"h":{"ha":665,"x_min":96,"x_max":581,"o":"m 144 414 l 144 25 q 137 8 144 15 q 119 0 129 0 q 103 8 110 0 q 96 25 96 15 l 96 1043 q 119 1067 96 1067 q 144 1043 144 1067 l 144 558 q 331 664 204 664 q 507 590 433 664 q 581 414 581 517 l 581 25 q 556 0 581 0 q 532 25 532 0 l 532 414 q 473 553 532 492 q 335 615 414 615 q 202 560 260 615 q 144 414 144 504 z "},"i":{"ha":240,"x_min":58,"x_max":179,"o":"m 119 656 q 144 632 144 656 l 144 25 q 137 8 144 15 q 119 0 129 0 q 103 8 110 0 q 96 25 96 15 l 96 632 q 103 649 96 642 q 119 656 110 656 m 119 976 q 161 958 143 976 q 179 917 179 940 q 161 875 179 893 q 119 857 143 857 q 76 875 94 857 q 58 917 58 893 q 76 958 58 940 q 119 976 94 976 z "},"j":{"ha":240,"x_min":-50,"x_max":179,"o":"m 119 976 q 161 958 143 976 q 179 917 179 940 q 161 875 179 893 q 119 857 143 857 q 76 875 94 857 q 58 917 58 893 q 76 958 58 940 q 119 976 94 976 m 119 656 q 144 632 144 656 l 144 -67 q -25 -329 144 -329 q -42 -322 -35 -329 q -50 -304 -50 -314 q -25 -281 -50 -281 q 72 -227 49 -281 q 96 -67 96 -174 l 96 632 q 119 656 96 656 z "},"k":{"ha":607,"x_min":96,"x_max":589,"o":"m 119 1067 q 144 1043 144 1067 l 144 324 l 519 650 q 533 656 528 656 q 560 633 560 656 q 551 613 560 619 l 328 418 l 585 39 q 589 25 589 33 q 582 8 589 15 q 565 0 575 0 q 546 13 554 0 l 290 386 l 144 258 l 144 25 q 137 8 144 15 q 119 0 129 0 q 103 8 110 0 q 96 25 96 15 l 96 1043 q 119 1067 96 1067 z "},"l":{"ha":240,"x_min":96,"x_max":144,"o":"m 119 1067 q 144 1043 144 1067 l 144 25 q 137 8 144 15 q 119 0 129 0 q 103 8 110 0 q 96 25 96 15 l 96 1043 q 119 1067 96 1067 z "},"m":{"ha":1058,"x_min":89,"x_max":971,"o":"m 529 519 q 622 627 564 590 q 743 664 679 664 q 903 596 836 664 q 971 414 971 528 l 971 25 q 963 8 971 15 q 946 0 956 0 q 929 8 936 0 q 922 25 922 15 l 922 414 q 867 562 922 508 q 740 615 813 615 q 610 558 667 615 q 554 414 554 500 l 554 24 q 529 0 554 0 q 506 24 506 0 l 506 414 q 449 558 506 500 q 317 615 392 615 q 192 562 246 615 q 138 414 138 508 l 138 24 q 130 7 138 14 q 113 0 122 0 q 96 7 103 0 q 89 24 89 14 l 89 414 q 155 596 89 528 q 311 664 221 664 q 433 627 375 664 q 529 519 492 590 z "},"n":{"ha":663,"x_min":85,"x_max":578,"o":"m 331 664 q 505 589 432 664 q 578 414 578 514 l 578 25 q 570 8 578 15 q 553 0 563 0 q 536 8 543 0 q 529 25 529 15 l 529 414 q 471 554 529 493 q 331 615 413 615 q 192 554 250 615 q 133 414 133 493 l 133 24 q 126 7 133 14 q 108 0 118 0 q 92 7 99 0 q 85 24 85 14 l 85 414 q 158 589 85 514 q 331 664 231 664 z "},"o":{"ha":632,"x_min":69,"x_max":563,"o":"m 142 589 q 179 626 142 589 q 315 664 215 664 q 489 590 415 664 q 563 414 563 517 l 563 244 q 488 68 563 144 q 315 -8 414 -8 q 143 68 217 -8 q 69 244 69 144 l 69 414 q 142 589 69 514 m 514 244 l 514 414 q 456 553 514 492 q 315 615 397 615 q 176 553 233 615 q 118 414 118 492 l 118 244 q 176 103 118 165 q 315 40 235 40 q 455 103 396 40 q 514 244 514 165 z "},"p":{"ha":650,"x_min":96,"x_max":581,"o":"m 119 656 q 144 632 144 656 l 144 558 q 331 664 204 664 q 507 590 433 664 q 581 414 581 517 l 581 244 q 506 68 581 144 q 333 -8 432 -8 q 220 22 272 -8 q 144 97 168 53 l 144 -304 q 137 -322 144 -314 q 119 -329 129 -329 q 103 -322 110 -329 q 96 -304 96 -314 l 96 632 q 119 656 96 656 m 532 244 l 532 414 q 473 553 532 492 q 335 615 414 615 q 202 560 260 615 q 144 414 144 504 l 144 193 q 203 95 144 150 q 336 40 261 40 q 473 103 414 40 q 532 244 532 165 z "},"q":{"ha":650,"x_min":69,"x_max":554,"o":"m 531 656 q 554 632 554 656 l 554 -304 q 547 -322 554 -314 q 531 -329 540 -329 q 513 -322 521 -329 q 506 -304 506 -314 l 506 97 q 430 22 482 53 q 317 -8 378 -8 q 144 68 218 -8 q 69 244 69 144 l 69 414 q 143 590 69 517 q 319 664 217 664 q 506 558 446 664 l 506 632 q 531 656 506 656 m 118 414 l 118 244 q 177 103 118 165 q 314 40 236 40 q 447 95 389 40 q 506 193 506 150 l 506 414 q 448 560 506 504 q 315 615 390 615 q 177 553 236 615 q 118 414 118 492 z "},"r":{"ha":386,"x_min":85,"x_max":367,"o":"m 310 664 l 344 664 q 367 640 367 664 q 344 615 367 615 l 310 615 q 183 543 232 615 q 133 378 133 471 l 133 24 q 126 7 133 14 q 108 0 118 0 q 92 7 99 0 q 85 24 85 14 l 85 378 q 149 578 85 492 q 310 664 214 664 z "},"s":{"ha":539,"x_min":54,"x_max":482,"o":"m 275 615 q 157 574 196 615 q 118 485 118 533 q 156 413 118 442 q 247 364 193 383 q 353 323 300 344 q 444 260 407 301 q 482 157 482 218 q 426 36 482 81 q 274 -8 371 -8 q 109 40 164 -8 q 54 158 54 89 q 79 192 54 192 q 103 157 103 192 q 144 76 103 113 q 272 40 186 40 q 394 73 354 40 q 433 157 433 106 q 396 237 433 204 q 306 289 358 269 l 197 331 q 107 392 144 353 q 69 486 69 431 q 122 609 69 554 q 272 664 174 664 q 415 616 364 664 q 467 494 467 568 q 443 458 467 458 q 418 493 418 458 q 275 615 415 615 z "},"t":{"ha":378,"x_min":92,"x_max":351,"o":"m 92 193 l 92 953 q 99 969 92 963 q 115 976 107 976 q 133 969 125 976 q 140 953 140 963 l 140 656 l 328 656 q 344 648 338 656 q 351 631 351 640 q 344 614 351 621 q 328 607 338 607 l 140 607 l 140 193 q 175 81 140 114 q 294 49 210 49 l 326 49 q 343 42 336 49 q 350 25 350 35 q 343 8 350 15 q 326 0 336 0 l 294 0 q 92 193 92 0 z "},"u":{"ha":663,"x_min":85,"x_max":578,"o":"m 332 -8 q 158 67 231 -8 q 85 242 85 142 l 85 631 q 92 648 85 640 q 110 656 100 656 q 126 648 119 656 q 133 631 133 640 l 133 242 q 192 101 133 163 q 332 40 250 40 q 471 101 413 40 q 529 242 529 163 l 529 632 q 537 649 529 642 q 554 656 544 656 q 571 649 564 656 q 578 632 578 642 l 578 242 q 505 67 578 142 q 332 -8 432 -8 z "},"v":{"ha":544,"x_min":26,"x_max":518,"o":"m 492 656 q 510 649 501 656 q 518 632 518 642 q 513 611 518 628 l 296 8 q 272 -8 289 -8 q 249 8 256 -8 l 32 611 q 26 631 26 628 q 34 649 26 642 q 51 656 42 656 q 75 640 68 656 l 272 94 l 468 632 l 469 639 q 473 645 472 644 q 476 650 474 646 q 483 655 479 654 q 492 656 486 656 z "},"w":{"ha":907,"x_min":25,"x_max":881,"o":"m 856 656 q 881 632 881 656 q 875 613 881 624 l 657 8 q 636 -8 651 -8 q 617 7 625 -8 l 454 528 l 294 15 q 271 -8 286 -8 q 257 -4 261 -8 q 247 15 253 0 l 31 613 q 25 631 25 624 q 32 649 25 642 q 50 656 39 656 q 74 640 67 656 l 269 97 l 429 600 q 454 618 436 618 q 479 600 472 618 l 633 90 l 833 640 q 856 656 838 656 z "},"x":{"ha":528,"x_min":36,"x_max":492,"o":"m 467 664 q 484 657 476 664 q 492 639 492 650 q 488 626 492 633 l 294 328 l 488 29 q 492 15 492 22 q 484 -1 492 6 q 467 -8 476 -8 q 447 3 454 -8 l 265 282 l 82 3 q 61 -8 74 -8 q 44 -1 51 -8 q 36 15 36 6 q 40 29 36 22 l 235 328 l 40 626 q 36 639 36 633 q 43 657 36 650 q 61 664 50 664 q 82 653 75 664 l 265 372 l 447 653 q 467 664 454 664 z "},"y":{"ha":546,"x_min":24,"x_max":521,"o":"m 496 664 q 521 640 521 664 q 519 632 521 635 l 297 18 l 269 -58 q 240 -132 261 -81 q 201 -210 218 -183 q 159 -268 183 -236 q 107 -315 135 -300 q 49 -329 79 -329 q 32 -322 39 -329 q 25 -306 25 -315 q 46 -281 25 -281 q 92 -269 69 -281 q 133 -231 114 -258 q 166 -183 153 -204 q 198 -117 179 -162 q 224 -53 217 -71 l 249 18 l 26 632 q 24 640 24 638 q 31 657 24 650 q 50 664 39 664 q 72 649 68 664 l 274 93 l 474 649 q 496 664 481 664 z "},"z":{"ha":532,"x_min":42,"x_max":490,"o":"m 114 49 l 465 49 q 483 41 475 49 q 490 24 490 33 q 483 7 490 14 q 465 0 475 0 l 67 0 q 42 22 42 0 q 47 39 42 33 l 418 607 l 67 607 q 49 614 57 607 q 42 631 42 621 q 49 649 42 642 q 67 656 56 656 l 465 656 q 483 649 475 656 q 490 631 490 642 q 486 617 490 622 l 114 49 z "},"{":{"ha":382,"x_min":43,"x_max":364,"o":"m 56 512 q 50 515 56 512 q 43 533 43 518 q 56 553 43 549 q 85 559 69 558 q 113 566 100 560 q 126 586 126 572 q 112 708 126 597 q 97 843 97 819 q 169 1000 97 933 q 340 1067 240 1067 q 357 1060 350 1067 q 364 1043 364 1053 q 357 1026 364 1033 q 340 1018 350 1018 q 202 964 257 1018 q 147 839 147 910 q 162 706 147 815 q 176 586 176 597 q 160 551 176 565 q 126 533 143 538 q 160 517 143 531 q 176 482 176 503 q 162 337 176 468 q 147 176 147 206 q 168 101 147 133 q 221 52 189 68 q 283 28 253 36 q 340 21 314 21 q 364 -3 364 21 q 356 -21 364 -14 q 340 -28 349 -28 q 167 30 236 -28 q 97 179 97 88 q 112 338 97 204 q 126 482 126 471 q 113 501 126 496 q 85 506 100 507 q 56 512 69 506 z "},"|":{"ha":256,"x_min":103,"x_max":153,"o":"m 145 -22 q 141 -26 145 -22 q 128 -29 138 -29 q 110 -22 118 -29 q 103 -6 103 -15 l 103 1043 q 110 1060 103 1053 q 128 1067 118 1067 q 145 1060 138 1067 q 153 1043 153 1053 l 153 -6 q 145 -22 153 -15 z "},"}":{"ha":381,"x_min":17,"x_max":338,"o":"m 324 553 q 331 551 324 553 q 338 533 338 549 q 324 512 338 518 q 296 506 311 506 q 267 501 281 507 q 254 482 254 496 q 269 338 254 471 q 283 179 283 204 q 214 30 283 88 q 40 -28 144 -28 q 24 -21 32 -28 q 17 -3 17 -14 q 40 21 17 21 q 97 28 67 21 q 160 52 128 36 q 213 101 192 68 q 233 176 233 133 q 219 337 233 206 q 204 482 204 468 q 221 517 204 503 q 254 533 238 531 q 221 551 238 538 q 204 586 204 565 q 219 706 204 597 q 233 839 233 815 q 178 964 233 910 q 40 1018 124 1018 q 24 1026 31 1018 q 17 1043 17 1033 q 24 1060 17 1053 q 40 1067 31 1067 q 212 1000 140 1067 q 283 843 283 933 q 269 708 283 819 q 254 586 254 597 q 267 566 254 572 q 296 559 281 560 q 324 553 311 558 z "},"~":{"ha":554,"x_min":74,"x_max":483,"o":"m 374 357 q 419 368 401 357 q 446 390 436 379 q 464 401 456 401 q 483 381 483 401 q 444 331 483 351 q 367 310 404 310 q 281 335 335 310 q 188 361 228 361 q 142 349 161 361 q 110 324 122 336 q 92 313 99 313 q 74 336 74 313 q 116 385 74 363 q 197 408 158 408 q 284 383 231 408 q 374 357 338 357 z "}," ":{"ha":285,"x_min":0,"x_max":0,"o":""},"¡":{"ha":265,"x_min":71,"x_max":192,"o":"m 97 40 l 122 803 q 133 826 122 826 q 143 803 143 826 l 168 40 q 159 7 168 22 q 131 -8 150 -8 q 97 40 97 -8 m 132 1039 q 174 1021 156 1039 q 192 979 192 1003 q 174 938 192 956 q 132 919 156 919 q 89 938 107 919 q 71 979 71 956 q 89 1021 71 1003 q 132 1039 107 1039 z "},"¢":{"ha":564,"x_min":57,"x_max":501,"o":"m 297 63 q 293 59 297 63 q 279 56 289 56 q 262 63 269 56 q 254 79 254 69 l 254 246 q 108 328 158 261 q 57 494 57 396 l 57 522 q 106 688 57 621 q 254 771 156 754 l 254 940 q 262 957 254 950 q 279 964 269 964 q 297 957 289 964 q 304 940 304 950 l 304 775 q 442 750 382 775 q 501 694 501 725 q 493 676 501 683 q 475 669 485 669 q 449 683 467 669 q 397 712 432 697 q 313 726 363 726 l 304 726 l 304 290 l 313 290 q 397 305 363 290 q 449 333 432 319 q 475 347 467 347 q 493 340 485 347 q 501 322 501 333 q 440 266 501 290 q 304 242 378 242 l 304 79 q 297 63 304 69 m 106 522 l 106 494 q 254 296 106 325 l 254 721 q 106 522 106 690 z "},"£":{"ha":632,"x_min":35,"x_max":582,"o":"m 68 533 q 92 558 68 558 l 218 558 l 256 819 q 353 994 271 921 q 538 1067 435 1067 l 554 1067 q 582 1042 582 1067 q 574 1025 582 1032 q 554 1018 567 1018 l 531 1018 q 382 958 449 1018 q 304 819 315 899 l 267 558 l 493 558 q 515 533 515 558 q 493 510 515 510 l 260 510 l 194 50 l 560 50 q 582 25 582 50 q 560 0 582 0 l 60 0 q 35 25 35 0 q 60 50 35 50 l 147 50 l 211 510 l 92 510 q 68 533 68 510 z "},"¤":{"ha":665,"x_min":88,"x_max":582,"o":"m 335 906 q 488 850 418 906 l 526 889 q 544 896 533 896 q 561 889 554 896 q 568 872 568 882 q 561 854 568 861 l 522 815 q 582 656 582 747 q 521 496 582 568 l 561 456 q 568 439 568 446 q 561 423 568 431 q 544 415 554 415 q 528 422 533 415 l 488 461 q 335 403 418 403 q 174 468 246 403 l 128 422 q 111 415 121 415 q 94 422 101 415 q 88 439 88 429 q 94 456 88 449 l 142 503 q 89 656 89 571 q 140 807 89 740 l 104 844 q 97 863 97 851 q 105 879 97 872 q 122 886 113 886 q 139 879 132 886 l 174 843 q 335 906 243 906 m 529 656 q 472 792 529 732 q 335 853 414 853 q 199 792 256 853 q 142 656 142 732 q 199 517 142 578 q 335 456 256 456 q 472 517 414 456 q 529 656 529 578 z "},"¥":{"ha":661,"x_min":35,"x_max":626,"o":"m 132 318 q 156 343 132 343 l 300 343 l 300 454 l 38 982 q 35 992 35 988 q 42 1008 35 1000 q 60 1015 49 1015 q 83 1001 75 1015 l 325 521 l 581 1001 q 604 1015 589 1015 q 626 992 626 1015 q 625 982 626 985 l 349 454 l 349 343 l 503 343 q 520 335 513 343 q 528 318 528 328 q 520 301 528 308 q 503 294 513 294 l 349 294 l 349 186 l 503 186 q 520 178 513 186 q 528 161 528 171 q 520 144 528 151 q 503 138 513 138 l 349 138 l 349 24 q 342 7 349 14 q 325 0 335 0 q 308 7 315 0 q 300 24 300 14 l 300 138 l 156 138 q 132 161 132 138 q 156 186 132 186 l 300 186 l 300 294 l 156 294 q 132 318 132 294 z "},"¦":{"ha":258,"x_min":104,"x_max":154,"o":"m 147 -22 q 143 -26 147 -22 q 129 -29 139 -29 q 112 -22 119 -29 q 104 -6 104 -15 l 104 386 q 112 403 104 396 q 129 410 119 410 q 147 403 139 410 q 154 386 154 396 l 154 -6 q 147 -22 154 -15 m 147 635 q 143 631 147 635 q 129 628 139 628 q 112 635 119 628 q 104 651 104 642 l 104 1043 q 112 1060 104 1053 q 129 1067 119 1067 q 147 1060 139 1067 q 154 1043 154 1053 l 154 651 q 147 635 154 642 z "},"§":{"ha":594,"x_min":83,"x_max":511,"o":"m 496 521 q 452 406 496 456 q 340 340 408 356 q 466 269 421 310 q 511 157 511 229 q 456 36 511 81 q 303 -8 400 -8 q 138 40 193 -8 q 83 158 83 89 q 108 192 83 192 q 126 183 122 192 q 132 157 131 175 q 176 74 136 107 q 301 40 217 40 q 423 73 383 40 q 463 157 463 106 q 425 239 463 206 q 333 294 386 275 l 228 335 q 137 393 175 356 q 99 486 99 431 q 140 604 99 556 q 254 667 182 653 q 128 738 174 697 q 83 850 83 778 q 139 971 83 926 q 292 1015 194 1015 q 456 967 401 1015 q 511 849 511 918 q 486 815 511 815 q 468 824 472 815 q 463 850 464 832 q 418 933 458 900 q 293 967 378 967 q 172 934 211 967 q 132 850 132 901 q 169 767 132 801 q 261 714 208 733 l 367 672 q 458 614 419 651 q 496 521 496 576 m 183 417 q 200 399 183 417 q 290 382 218 382 q 404 422 363 382 q 446 507 446 461 q 411 590 446 554 q 304 625 376 625 q 189 585 231 625 q 147 499 147 544 q 183 417 147 451 z "},"¨":{"ha":189,"x_min":0,"x_max":189,"o":"m 38 976 q 63 958 51 976 q 74 917 74 940 q 63 875 74 893 q 38 857 51 857 q 11 875 22 857 q 0 917 0 893 q 11 958 0 940 q 38 976 22 976 m 153 976 q 178 958 167 976 q 189 917 189 940 q 178 875 189 893 q 153 857 167 857 q 126 875 138 857 q 115 917 115 893 q 126 958 115 940 q 153 976 138 976 z "},"©":{"ha":981,"x_min":64,"x_max":917,"o":"m 64 497 q 103 698 64 608 q 207 841 143 788 q 345 923 271 894 q 494 951 419 951 q 643 923 569 951 q 778 841 717 894 q 878 699 840 788 q 917 503 917 611 q 877 302 917 392 q 774 159 838 213 q 635 77 710 106 q 486 49 561 49 q 338 77 411 49 q 202 159 264 106 q 102 301 140 213 q 64 497 64 389 m 868 503 q 765 790 868 678 q 494 903 661 903 q 220 790 328 903 q 113 497 113 676 q 216 210 113 322 q 486 97 319 97 q 760 210 653 97 q 868 503 868 324 m 404 624 l 404 394 q 497 283 404 283 q 561 313 540 283 q 582 368 582 343 q 590 383 582 378 q 606 389 599 389 q 635 364 635 389 q 594 274 632 310 q 492 238 557 238 q 390 276 428 238 q 351 394 351 314 l 351 624 q 390 742 351 704 q 492 781 429 781 q 599 740 564 781 q 635 658 635 699 q 608 629 635 629 q 582 650 585 629 q 494 735 567 735 q 404 624 404 735 z "},"ª":{"ha":396,"x_min":47,"x_max":326,"o":"m 99 1067 l 174 1067 q 290 1026 253 1067 q 326 918 326 986 l 326 694 q 310 676 326 676 q 282 721 285 676 q 168 669 231 669 q 81 698 114 669 q 47 782 47 726 q 97 870 47 846 q 244 894 147 894 l 281 894 l 281 918 q 253 994 281 964 q 174 1025 226 1025 l 99 1025 q 82 1031 89 1025 q 75 1047 75 1038 q 99 1067 75 1067 m 281 792 l 281 853 l 238 853 q 131 839 169 853 q 93 782 93 825 q 113 728 93 746 q 167 710 133 710 q 244 738 207 710 q 281 792 281 767 z "},"«":{"ha":501,"x_min":49,"x_max":438,"o":"m 189 115 l 56 361 q 49 385 49 372 q 56 408 49 397 l 189 656 q 213 668 194 668 q 228 661 222 668 q 235 644 235 654 q 231 632 235 639 l 97 385 l 231 139 q 235 126 235 133 q 227 110 235 117 q 210 103 219 103 q 189 115 196 103 m 392 115 l 258 361 q 251 385 251 372 q 258 408 251 397 l 392 656 q 415 668 397 668 q 431 661 425 668 q 438 644 438 654 q 433 632 438 639 l 300 385 l 433 139 q 438 126 438 133 q 430 110 438 117 q 413 103 422 103 q 392 115 399 103 z "},"¬":{"ha":665,"x_min":85,"x_max":564,"o":"m 540 88 q 515 111 515 88 l 515 310 l 108 310 q 85 333 85 310 q 108 358 85 358 l 539 358 q 556 351 549 358 q 564 333 564 343 l 564 111 q 540 88 564 88 z "},"­":{"ha":664,"x_min":86,"x_max":579,"o":"m 86 333 q 110 358 86 358 l 554 358 q 572 351 564 358 q 579 333 579 343 q 572 317 579 324 q 554 310 564 310 l 110 310 q 86 333 86 310 z "},"®":{"ha":981,"x_min":64,"x_max":917,"o":"m 64 497 q 103 698 64 608 q 207 841 143 788 q 345 923 271 894 q 494 951 419 951 q 643 923 569 951 q 778 841 717 894 q 878 699 840 788 q 917 503 917 611 q 877 302 917 392 q 774 159 838 213 q 635 77 710 106 q 486 49 561 49 q 338 77 411 49 q 202 159 264 106 q 102 301 140 213 q 64 497 64 389 m 868 503 q 765 790 868 678 q 494 903 661 903 q 220 790 328 903 q 113 497 113 676 q 216 210 113 322 q 486 97 319 97 q 760 210 653 97 q 868 503 868 324 m 363 264 l 363 757 q 369 772 363 765 q 388 779 376 779 l 497 779 q 646 633 646 779 q 542 492 646 514 l 643 276 q 646 264 646 268 q 622 240 646 240 q 579 290 600 240 l 486 488 l 415 488 l 415 264 q 389 240 415 240 q 363 264 363 240 m 497 733 l 415 733 l 415 533 l 497 533 q 593 633 593 533 q 497 733 593 733 z "},"¯":{"ha":354,"x_min":0,"x_max":354,"o":"m 0 910 q 24 935 0 935 l 329 935 q 347 927 339 935 q 354 910 354 919 q 347 893 354 900 q 329 886 339 886 l 24 886 q 0 910 0 886 z "},"°":{"ha":586,"x_min":47,"x_max":540,"o":"m 120 992 q 157 1029 120 992 q 293 1067 193 1067 q 467 993 393 1067 q 540 817 540 919 q 466 640 540 717 q 293 564 392 564 q 121 640 194 564 q 47 817 47 717 q 120 992 47 917 m 488 817 q 430 953 488 893 q 293 1014 372 1014 q 157 953 214 1014 q 100 817 100 893 q 157 678 100 739 q 293 617 214 617 q 430 678 372 617 q 488 817 488 739 z "},"±":{"ha":672,"x_min":90,"x_max":583,"o":"m 338 376 q 313 400 313 376 l 313 599 l 114 599 q 90 622 90 599 q 114 647 90 647 l 313 647 l 313 844 q 320 862 313 854 q 338 869 328 869 q 354 862 347 869 q 361 844 361 854 l 361 647 l 558 647 q 576 640 568 647 q 583 622 583 632 q 576 606 583 613 q 558 599 568 599 l 361 599 l 361 400 q 338 376 361 376 m 90 261 q 114 286 90 286 l 558 286 q 576 278 568 286 q 583 261 583 271 q 576 244 583 251 q 558 238 568 238 l 114 238 q 90 261 90 238 z "},"²":{"ha":460,"x_min":65,"x_max":397,"o":"m 79 925 q 121 1029 79 992 q 232 1067 163 1067 q 349 1019 300 1067 q 397 906 397 972 q 368 818 397 860 q 297 744 339 775 l 211 686 q 140 626 168 658 q 111 564 111 594 l 111 507 l 375 507 q 397 486 397 507 q 346 465 397 465 l 89 465 q 73 472 81 465 q 65 486 65 478 l 65 564 q 94 638 65 601 q 167 703 125 674 l 250 761 q 322 828 292 792 q 351 906 351 865 q 316 990 351 956 q 232 1025 281 1025 q 126 925 126 1025 q 119 912 126 918 q 103 906 113 906 q 86 912 93 906 q 79 925 79 918 z "},"³":{"ha":447,"x_min":56,"x_max":388,"o":"m 228 778 q 207 785 215 778 q 199 800 199 792 q 222 821 199 821 q 301 842 276 821 q 326 914 326 864 q 303 998 326 971 q 225 1025 279 1025 q 154 1006 179 1025 q 125 965 129 988 q 113 924 121 943 q 89 906 104 906 q 76 912 82 906 q 69 928 69 918 q 106 1025 69 983 q 225 1067 143 1067 q 374 922 374 1067 q 311 799 374 835 q 388 649 388 758 l 388 633 q 342 502 388 543 q 222 461 297 461 q 102 501 149 461 q 56 600 56 542 q 79 622 56 622 q 100 603 92 622 q 115 563 108 585 q 147 522 121 540 q 219 503 174 503 q 342 633 342 503 l 342 649 q 312 744 342 711 q 228 778 282 778 z "},"´":{"ha":185,"x_min":0,"x_max":185,"o":"m 171 914 l 39 839 q 26 835 33 835 q 8 842 15 835 q 0 860 0 850 q 11 878 0 872 l 153 961 q 163 964 158 964 q 185 939 185 964 q 171 914 185 922 z "},"µ":{"ha":683,"x_min":106,"x_max":590,"o":"m 154 631 l 154 208 q 218 99 154 158 q 354 40 282 40 q 485 103 428 40 q 542 242 542 165 l 542 631 q 565 656 542 656 q 590 631 590 656 l 590 242 q 522 65 590 138 q 351 -8 453 -8 q 232 22 285 -8 q 154 97 179 53 l 154 -306 q 129 -329 154 -329 q 106 -306 106 -329 l 106 631 q 113 648 106 640 q 129 656 119 656 q 147 648 139 656 q 154 631 154 640 z "},"¶":{"ha":711,"x_min":53,"x_max":596,"o":"m 325 1015 l 571 1015 q 596 990 596 1015 l 596 24 q 571 0 596 0 q 546 24 546 0 l 546 965 l 442 965 l 442 25 q 417 0 442 0 q 392 25 392 0 l 392 425 l 325 425 q 127 494 201 425 q 53 713 53 564 l 53 729 q 127 947 53 878 q 325 1015 201 1015 z "},"·":{"ha":260,"x_min":69,"x_max":190,"o":"m 131 476 q 172 458 154 476 q 190 417 190 440 q 172 375 190 393 q 131 357 154 357 q 88 375 106 357 q 69 417 69 393 q 88 458 69 440 q 131 476 106 476 z "},"¸":{"ha":217,"x_min":0,"x_max":217,"o":"m 217 -186 q 104 -290 217 -290 q 0 -271 56 -290 l 0 -222 q 103 -242 50 -242 q 171 -185 171 -242 q 147 -147 171 -156 q 78 -137 124 -137 l 36 -137 l 36 11 l 83 11 l 83 -89 q 130 -91 113 -89 q 171 -101 147 -93 q 206 -131 194 -110 q 217 -186 217 -153 z "},"¹":{"ha":407,"x_min":51,"x_max":356,"o":"m 75 465 q 51 486 51 465 q 75 507 51 507 l 181 507 l 181 960 q 175 949 181 957 l 167 935 q 158 923 164 929 q 148 913 153 917 q 139 910 143 910 q 118 929 118 910 q 126 949 118 932 l 178 1049 q 206 1067 188 1067 q 226 1047 226 1067 l 226 507 l 332 507 q 348 501 340 507 q 356 486 356 494 q 348 472 356 478 q 332 465 340 465 l 75 465 z "},"º":{"ha":418,"x_min":57,"x_max":361,"o":"m 208 1067 q 315 1022 269 1067 q 361 915 361 978 l 361 817 q 315 710 361 756 q 208 664 269 664 q 103 710 149 664 q 57 817 57 756 l 57 915 q 101 1022 57 976 q 208 1067 146 1067 m 315 817 l 315 915 q 283 991 315 957 q 208 1025 251 1025 q 134 991 165 1025 q 103 915 103 957 l 103 817 q 134 739 103 774 q 208 704 165 704 q 283 739 251 704 q 315 817 315 774 z "},"»":{"ha":501,"x_min":64,"x_max":453,"o":"m 446 361 l 313 115 q 292 103 306 103 q 274 110 282 103 q 267 126 267 117 q 271 139 267 133 l 404 385 l 271 632 q 267 644 267 639 q 273 661 267 654 q 289 668 279 668 q 313 656 306 668 l 446 408 q 453 385 453 397 q 446 361 453 372 m 243 361 l 110 115 q 89 103 103 103 q 72 110 79 103 q 64 126 64 117 q 68 139 64 133 l 201 385 l 68 632 q 64 644 64 639 q 70 661 64 654 q 86 668 76 668 q 110 656 103 668 l 243 408 q 250 385 250 397 q 243 361 250 372 z "},"¼":{"ha":956,"x_min":38,"x_max":918,"o":"m 810 21 l 810 143 l 628 143 q 586 164 586 143 q 589 176 586 171 l 788 568 q 819 601 804 601 q 843 582 843 601 q 839 571 843 579 l 644 186 l 810 186 l 810 268 q 833 289 810 289 q 857 268 857 289 l 857 186 l 896 186 q 918 164 918 186 q 878 143 918 143 l 857 143 l 857 40 q 833 0 857 0 q 810 21 810 0 m 807 1025 l 268 -12 q 244 -28 261 -28 q 222 -7 222 -28 q 225 6 222 1 l 768 1056 q 786 1067 774 1067 q 803 1059 794 1067 q 811 1040 811 1051 q 807 1025 811 1033 m 61 414 q 38 435 38 414 q 61 456 38 456 l 167 456 l 167 908 q 161 897 167 906 l 153 883 q 144 872 150 878 q 134 862 139 865 q 125 858 129 858 q 104 878 104 858 q 113 897 104 881 l 164 997 q 192 1015 174 1015 q 213 996 213 1015 l 213 456 l 318 456 q 334 449 326 456 q 342 435 342 443 q 334 420 342 426 q 318 414 326 414 l 61 414 z "},"½":{"ha":1058,"x_min":38,"x_max":1001,"o":"m 61 414 q 38 435 38 414 q 61 456 38 456 l 167 456 l 167 908 q 161 897 167 906 l 153 883 q 144 872 150 878 q 134 862 139 865 q 125 858 129 858 q 104 878 104 858 q 113 897 104 881 l 164 997 q 192 1015 174 1015 q 213 996 213 1015 l 213 456 l 318 456 q 334 449 326 456 q 342 435 342 443 q 334 420 342 426 q 318 414 326 414 l 61 414 m 683 460 q 725 564 683 526 q 836 601 767 601 q 953 554 904 601 q 1001 440 1001 507 q 972 353 1001 394 q 900 281 942 311 l 817 219 q 745 160 775 192 q 715 99 715 129 l 715 42 l 979 42 q 1001 21 1001 42 q 950 0 1001 0 l 693 0 q 677 6 685 0 q 669 21 669 13 l 669 99 q 699 172 669 136 q 769 238 728 208 l 856 297 q 926 364 897 328 q 956 440 956 400 q 920 525 956 490 q 836 560 885 560 q 731 460 731 560 q 724 447 731 453 q 707 440 717 440 q 690 447 697 440 q 683 460 683 453 m 807 1025 l 268 -12 q 244 -28 261 -28 q 222 -7 222 -28 q 225 6 222 1 l 768 1056 q 786 1067 774 1067 q 803 1059 794 1067 q 811 1040 811 1051 q 807 1025 811 1033 z "},"¾":{"ha":986,"x_min":54,"x_max":949,"o":"m 226 726 q 206 733 214 726 q 197 749 197 740 q 221 769 197 769 q 300 790 275 769 q 325 863 325 811 q 301 947 325 919 q 224 974 278 974 q 153 955 178 974 q 124 914 128 936 q 111 873 119 892 q 88 854 103 854 q 74 860 81 854 q 68 876 68 867 q 105 974 68 932 q 224 1015 142 1015 q 372 871 372 1015 q 310 747 372 783 q 386 597 386 707 l 386 582 q 341 451 386 492 q 221 410 296 410 q 101 450 147 410 q 54 549 54 490 q 78 571 54 571 q 99 552 90 571 q 113 511 107 533 q 146 470 119 489 q 218 451 172 451 q 340 582 340 451 l 340 597 q 310 693 340 660 q 226 726 281 726 m 840 21 l 840 143 l 658 143 q 617 164 617 143 q 619 176 617 171 l 818 568 q 850 601 835 601 q 874 582 874 601 q 869 571 874 579 l 675 186 l 840 186 l 840 268 q 864 289 840 289 q 888 268 888 289 l 888 186 l 926 186 q 949 164 949 186 q 908 143 949 143 l 888 143 l 888 40 q 864 0 888 0 q 840 21 840 0 m 838 1025 l 299 -12 q 275 -28 292 -28 q 253 -7 253 -28 q 256 6 253 1 l 799 1056 q 817 1067 804 1067 q 833 1059 825 1067 q 842 1040 842 1051 q 838 1025 842 1033 z "},"¿":{"ha":531,"x_min":51,"x_max":496,"o":"m 281 497 l 292 803 q 310 826 292 826 q 326 803 326 826 l 338 499 q 307 449 338 449 q 152 394 204 447 q 100 244 100 340 q 153 94 100 147 q 311 40 207 40 q 392 55 358 40 q 444 83 426 69 q 469 97 461 97 q 488 90 479 97 q 496 72 496 83 q 438 17 496 42 q 307 -8 379 -8 q 116 62 181 -8 q 51 244 51 132 q 110 422 51 353 q 281 497 169 490 m 308 1039 q 350 1021 332 1039 q 368 979 368 1003 q 350 938 368 956 q 308 919 332 919 q 265 938 283 919 q 247 979 247 956 q 265 1021 247 1003 q 308 1039 283 1039 z "},"À":{"ha":674,"x_min":38,"x_max":636,"o":"m 586 18 l 524 246 l 150 246 l 88 18 q 61 0 83 0 q 38 22 38 0 q 39 31 38 26 l 313 1004 q 338 1024 318 1024 q 364 1004 357 1024 l 635 31 q 636 22 636 26 q 613 0 636 0 q 586 18 590 0 m 338 918 l 164 296 l 510 296 l 338 918 m 390 1199 l 258 1274 q 244 1299 244 1282 q 267 1324 244 1324 q 276 1321 271 1324 l 418 1238 q 429 1219 429 1232 q 422 1202 429 1210 q 403 1194 414 1194 q 390 1199 397 1194 z "},"Á":{"ha":674,"x_min":38,"x_max":636,"o":"m 586 18 l 524 246 l 150 246 l 88 18 q 61 0 83 0 q 38 22 38 0 q 39 31 38 26 l 313 1004 q 338 1024 318 1024 q 364 1004 357 1024 l 635 31 q 636 22 636 26 q 613 0 636 0 q 586 18 590 0 m 338 918 l 164 296 l 510 296 l 338 918 m 415 1274 l 283 1199 q 271 1194 278 1194 q 252 1202 260 1194 q 244 1219 244 1210 q 256 1238 244 1232 l 397 1321 q 407 1324 403 1324 q 429 1299 429 1324 q 415 1274 429 1282 z "},"Â":{"ha":674,"x_min":38,"x_max":636,"o":"m 586 18 l 524 246 l 150 246 l 88 18 q 61 0 83 0 q 38 22 38 0 q 39 31 38 26 l 313 1004 q 338 1024 318 1024 q 364 1004 357 1024 l 635 31 q 636 22 636 26 q 613 0 636 0 q 586 18 590 0 m 338 918 l 164 296 l 510 296 l 338 918 m 336 1275 l 192 1197 q 186 1195 190 1197 q 181 1193 182 1193 q 163 1201 171 1193 q 156 1219 156 1208 q 168 1239 156 1232 l 313 1317 q 336 1324 324 1324 q 360 1317 349 1324 l 504 1240 q 517 1217 517 1235 q 510 1201 517 1207 q 493 1194 503 1194 l 481 1199 l 336 1275 z "},"Ã":{"ha":674,"x_min":38,"x_max":636,"o":"m 586 18 l 524 246 l 150 246 l 88 18 q 61 0 83 0 q 38 22 38 0 q 39 31 38 26 l 313 1004 q 338 1024 318 1024 q 364 1004 357 1024 l 635 31 q 636 22 636 26 q 613 0 636 0 q 586 18 590 0 m 338 918 l 164 296 l 510 296 l 338 918 m 432 1267 q 477 1278 460 1267 q 504 1300 494 1289 q 522 1311 514 1311 q 542 1290 542 1311 q 502 1240 542 1261 q 425 1219 463 1219 q 340 1245 393 1219 q 246 1271 286 1271 q 200 1258 219 1271 q 169 1234 181 1246 q 150 1222 157 1222 q 132 1246 132 1222 q 174 1295 132 1272 q 256 1318 217 1318 q 342 1292 289 1318 q 432 1267 396 1267 z "},"Ä":{"ha":674,"x_min":38,"x_max":636,"o":"m 586 18 l 524 246 l 150 246 l 88 18 q 61 0 83 0 q 38 22 38 0 q 39 31 38 26 l 313 1004 q 338 1024 318 1024 q 364 1004 357 1024 l 635 31 q 636 22 636 26 q 613 0 636 0 q 586 18 590 0 m 338 918 l 164 296 l 510 296 l 338 918 m 279 1336 q 304 1318 293 1336 q 315 1276 315 1300 q 304 1235 315 1253 q 279 1217 293 1217 q 253 1235 264 1217 q 242 1276 242 1253 q 253 1318 242 1300 q 279 1336 264 1336 m 394 1336 q 419 1318 408 1336 q 431 1276 431 1300 q 419 1235 431 1253 q 394 1217 408 1217 q 368 1235 379 1217 q 357 1276 357 1253 q 368 1318 357 1300 q 394 1336 379 1336 z "},"Å":{"ha":674,"x_min":38,"x_max":636,"o":"m 586 18 l 524 246 l 150 246 l 88 18 q 61 0 83 0 q 38 22 38 0 q 39 31 38 26 l 313 1004 q 338 1024 318 1024 q 364 1004 357 1024 l 635 31 q 636 22 636 26 q 613 0 636 0 q 586 18 590 0 m 338 918 l 164 296 l 510 296 l 338 918 m 336 1426 q 415 1392 381 1426 q 450 1311 450 1357 q 415 1228 450 1264 q 336 1193 381 1193 q 256 1228 290 1193 q 222 1311 222 1264 q 256 1392 222 1357 q 336 1426 289 1426 m 408 1311 q 387 1360 408 1338 q 336 1383 365 1383 q 284 1361 306 1383 q 263 1311 263 1339 q 284 1257 263 1281 q 336 1233 306 1233 q 387 1257 365 1233 q 408 1311 408 1281 z "},"Æ":{"ha":944,"x_min":107,"x_max":903,"o":"m 550 965 l 550 533 l 772 533 q 796 507 796 533 q 772 483 796 483 l 550 483 l 550 50 l 879 50 q 903 24 903 50 q 879 0 903 0 l 525 0 q 500 25 500 0 l 500 483 l 157 483 l 157 32 q 132 0 157 0 q 107 32 107 0 l 107 729 q 181 947 107 878 q 379 1015 256 1015 l 879 1015 q 903 992 903 1015 q 879 965 903 965 l 550 965 m 157 729 l 157 533 l 500 533 l 500 965 l 379 965 q 215 906 272 965 q 157 729 157 847 z "},"Ç":{"ha":693,"x_min":97,"x_max":640,"o":"m 147 729 l 147 278 q 204 101 147 160 q 368 42 261 42 q 520 87 463 42 q 590 224 578 132 q 615 249 592 249 q 640 221 640 249 q 562 56 632 119 q 368 -8 492 -8 q 171 60 244 -8 q 97 278 97 129 l 97 729 q 171 947 97 878 q 368 1015 244 1015 q 562 951 492 1015 q 640 786 632 888 q 615 758 640 758 q 590 783 592 758 q 520 920 578 875 q 368 965 463 965 q 204 906 261 965 q 147 729 147 847 m 542 -186 q 429 -290 542 -290 q 325 -271 381 -290 l 325 -222 q 428 -242 375 -242 q 496 -185 496 -242 q 472 -147 496 -156 q 403 -137 449 -137 l 361 -137 l 361 11 l 408 11 l 408 -89 q 455 -91 438 -89 q 496 -101 472 -93 q 531 -131 519 -110 q 542 -186 542 -153 z "},"È":{"ha":693,"x_min":114,"x_max":657,"o":"m 164 965 l 164 533 l 386 533 q 410 507 410 533 q 386 483 410 483 l 164 483 l 164 50 l 633 50 q 657 24 657 50 q 633 0 657 0 l 139 0 q 114 25 114 0 l 114 990 q 139 1015 114 1015 l 633 1015 q 657 992 657 1015 q 633 965 657 965 l 164 965 m 439 1199 l 307 1274 q 293 1299 293 1282 q 315 1324 293 1324 q 325 1321 319 1324 l 467 1238 q 478 1219 478 1232 q 470 1202 478 1210 q 451 1194 463 1194 q 439 1199 444 1194 z "},"É":{"ha":693,"x_min":114,"x_max":657,"o":"m 164 965 l 164 533 l 386 533 q 410 507 410 533 q 386 483 410 483 l 164 483 l 164 50 l 633 50 q 657 24 657 50 q 633 0 657 0 l 139 0 q 114 25 114 0 l 114 990 q 139 1015 114 1015 l 633 1015 q 657 992 657 1015 q 633 965 657 965 l 164 965 m 464 1274 l 332 1199 q 319 1194 326 1194 q 301 1202 308 1194 q 293 1219 293 1210 q 304 1238 293 1232 l 446 1321 q 456 1324 451 1324 q 478 1299 478 1324 q 464 1274 478 1282 z "},"Ê":{"ha":693,"x_min":114,"x_max":657,"o":"m 164 965 l 164 533 l 386 533 q 410 507 410 533 q 386 483 410 483 l 164 483 l 164 50 l 633 50 q 657 24 657 50 q 633 0 657 0 l 139 0 q 114 25 114 0 l 114 990 q 139 1015 114 1015 l 633 1015 q 657 992 657 1015 q 633 965 657 965 l 164 965 m 385 1275 l 240 1197 q 235 1195 239 1197 q 229 1193 231 1193 q 212 1201 219 1193 q 204 1219 204 1208 q 217 1239 204 1233 l 361 1317 q 385 1324 372 1324 q 408 1317 397 1324 l 553 1240 q 565 1217 565 1233 q 558 1201 565 1207 q 542 1194 551 1194 l 529 1199 l 385 1275 z "},"Ë":{"ha":693,"x_min":114,"x_max":657,"o":"m 164 965 l 164 533 l 386 533 q 410 507 410 533 q 386 483 410 483 l 164 483 l 164 50 l 633 50 q 657 24 657 50 q 633 0 657 0 l 139 0 q 114 25 114 0 l 114 990 q 139 1015 114 1015 l 633 1015 q 657 992 657 1015 q 633 965 657 965 l 164 965 m 328 1336 q 353 1318 342 1336 q 364 1276 364 1300 q 353 1235 364 1253 q 328 1217 342 1217 q 301 1235 313 1217 q 290 1276 290 1253 q 301 1318 290 1300 q 328 1336 313 1336 m 443 1336 q 468 1318 457 1336 q 479 1276 479 1300 q 468 1235 479 1253 q 443 1217 457 1217 q 417 1235 428 1217 q 406 1276 406 1253 q 417 1318 406 1300 q 443 1336 428 1336 z "},"Ì":{"ha":278,"x_min":46,"x_max":231,"o":"m 114 25 l 114 992 q 139 1015 114 1015 q 164 992 164 1015 l 164 25 q 139 0 164 0 q 114 25 114 0 m 192 1199 l 60 1274 q 46 1299 46 1282 q 68 1324 46 1324 q 78 1321 72 1324 l 219 1238 q 231 1219 231 1232 q 223 1202 231 1210 q 204 1194 215 1194 q 192 1199 197 1194 z "},"Í":{"ha":278,"x_min":46,"x_max":231,"o":"m 114 25 l 114 992 q 139 1015 114 1015 q 164 992 164 1015 l 164 25 q 139 0 164 0 q 114 25 114 0 m 217 1274 l 85 1199 q 72 1194 79 1194 q 53 1202 61 1194 q 46 1219 46 1210 q 57 1238 46 1232 l 199 1321 q 208 1324 204 1324 q 231 1299 231 1324 q 217 1274 231 1282 z "},"Î":{"ha":278,"x_min":-42,"x_max":319,"o":"m 114 25 l 114 992 q 139 1015 114 1015 q 164 992 164 1015 l 164 25 q 139 0 164 0 q 114 25 114 0 m 139 1275 l -6 1197 q -11 1195 -7 1197 q -17 1193 -15 1193 q -34 1201 -26 1193 q -42 1219 -42 1208 q -29 1239 -42 1233 l 115 1317 q 139 1324 126 1324 q 163 1317 151 1324 l 307 1240 q 319 1217 319 1233 q 313 1201 319 1207 q 296 1194 306 1194 l 283 1199 l 139 1275 z "},"Ï":{"ha":278,"x_min":44,"x_max":233,"o":"m 114 25 l 114 992 q 139 1015 114 1015 q 164 992 164 1015 l 164 25 q 139 0 164 0 q 114 25 114 0 m 82 1336 q 107 1318 96 1336 q 118 1276 118 1300 q 107 1235 118 1253 q 82 1217 96 1217 q 56 1235 67 1217 q 44 1276 44 1253 q 56 1318 44 1300 q 82 1336 67 1336 m 197 1336 q 222 1318 211 1336 q 233 1276 233 1300 q 222 1235 233 1253 q 197 1217 211 1217 q 171 1235 182 1217 q 160 1276 160 1253 q 171 1318 160 1300 q 197 1336 182 1336 z "},"Ð":{"ha":769,"x_min":4,"x_max":672,"o":"m 4 533 q 28 558 4 558 l 361 558 q 378 551 371 558 q 386 533 386 543 q 378 517 386 524 q 361 510 371 510 l 28 510 q 4 533 4 510 m 154 1015 l 400 1015 q 598 947 524 1015 q 672 729 672 878 l 672 286 q 598 69 672 138 q 400 0 524 0 l 154 0 q 129 24 129 0 l 129 992 q 154 1015 129 1015 m 400 965 l 179 965 l 179 50 l 400 50 q 565 109 507 50 q 622 286 622 168 l 622 729 q 565 906 622 847 q 400 965 507 965 z "},"Ñ":{"ha":774,"x_min":115,"x_max":658,"o":"m 183 965 l 608 124 l 608 992 q 633 1015 608 1015 q 658 992 658 1015 l 658 25 q 633 0 658 0 q 593 50 618 0 l 165 893 l 165 25 q 140 0 165 0 q 115 25 115 0 l 115 992 q 140 1015 115 1015 q 183 965 156 1015 m 482 1267 q 527 1278 510 1267 q 554 1300 544 1289 q 572 1311 564 1311 q 592 1290 592 1311 q 552 1240 592 1261 q 475 1219 513 1219 q 390 1245 443 1219 q 296 1271 336 1271 q 250 1258 269 1271 q 219 1234 231 1246 q 200 1222 207 1222 q 182 1246 182 1222 q 224 1295 182 1272 q 306 1318 267 1318 q 392 1292 339 1318 q 482 1267 446 1267 z "},"Ò":{"ha":738,"x_min":97,"x_max":640,"o":"m 566 60 q 529 26 566 60 q 368 -8 492 -8 q 171 60 244 -8 q 97 278 97 129 l 97 729 q 171 947 97 878 q 368 1015 244 1015 q 566 947 492 1015 q 640 729 640 878 l 640 278 q 566 60 640 129 m 590 278 l 590 729 q 533 906 590 847 q 368 965 475 965 q 204 906 261 965 q 147 729 147 847 l 147 278 q 204 101 147 160 q 368 42 261 42 q 533 101 475 42 q 590 278 590 160 m 422 1199 l 290 1274 q 276 1299 276 1282 q 299 1324 276 1324 q 308 1321 303 1324 l 450 1238 q 461 1219 461 1232 q 453 1202 461 1210 q 435 1194 446 1194 q 422 1199 429 1194 z "},"Ó":{"ha":738,"x_min":97,"x_max":640,"o":"m 566 60 q 529 26 566 60 q 368 -8 492 -8 q 171 60 244 -8 q 97 278 97 129 l 97 729 q 171 947 97 878 q 368 1015 244 1015 q 566 947 492 1015 q 640 729 640 878 l 640 278 q 566 60 640 129 m 590 278 l 590 729 q 533 906 590 847 q 368 965 475 965 q 204 906 261 965 q 147 729 147 847 l 147 278 q 204 101 147 160 q 368 42 261 42 q 533 101 475 42 q 590 278 590 160 m 447 1274 l 315 1199 q 303 1194 310 1194 q 284 1202 292 1194 q 276 1219 276 1210 q 288 1238 276 1232 l 429 1321 q 439 1324 435 1324 q 461 1299 461 1324 q 447 1274 461 1282 z "},"Ô":{"ha":738,"x_min":97,"x_max":640,"o":"m 566 60 q 529 26 566 60 q 368 -8 492 -8 q 171 60 244 -8 q 97 278 97 129 l 97 729 q 171 947 97 878 q 368 1015 244 1015 q 566 947 492 1015 q 640 729 640 878 l 640 278 q 566 60 640 129 m 590 278 l 590 729 q 533 906 590 847 q 368 965 475 965 q 204 906 261 965 q 147 729 147 847 l 147 278 q 204 101 147 160 q 368 42 261 42 q 533 101 475 42 q 590 278 590 160 m 368 1275 l 224 1197 q 218 1195 222 1197 q 213 1193 214 1193 q 195 1201 203 1193 q 188 1219 188 1208 q 200 1239 188 1232 l 344 1317 q 368 1324 356 1324 q 392 1317 381 1324 l 536 1240 q 549 1217 549 1235 q 542 1201 549 1207 q 525 1194 535 1194 l 513 1199 l 368 1275 z "},"Õ":{"ha":738,"x_min":97,"x_max":640,"o":"m 566 60 q 529 26 566 60 q 368 -8 492 -8 q 171 60 244 -8 q 97 278 97 129 l 97 729 q 171 947 97 878 q 368 1015 244 1015 q 566 947 492 1015 q 640 729 640 878 l 640 278 q 566 60 640 129 m 590 278 l 590 729 q 533 906 590 847 q 368 965 475 965 q 204 906 261 965 q 147 729 147 847 l 147 278 q 204 101 147 160 q 368 42 261 42 q 533 101 475 42 q 590 278 590 160 m 464 1267 q 509 1278 492 1267 q 536 1300 526 1289 q 554 1311 546 1311 q 574 1290 574 1311 q 534 1240 574 1261 q 457 1219 494 1219 q 372 1245 425 1219 q 278 1271 318 1271 q 232 1259 251 1271 q 201 1235 213 1247 q 182 1222 189 1222 q 164 1246 164 1222 q 206 1295 164 1272 q 288 1318 249 1318 q 374 1292 321 1318 q 464 1267 428 1267 z "},"Ö":{"ha":738,"x_min":97,"x_max":640,"o":"m 566 60 q 529 26 566 60 q 368 -8 492 -8 q 171 60 244 -8 q 97 278 97 129 l 97 729 q 171 947 97 878 q 368 1015 244 1015 q 566 947 492 1015 q 640 729 640 878 l 640 278 q 566 60 640 129 m 590 278 l 590 729 q 533 906 590 847 q 368 965 475 965 q 204 906 261 965 q 147 729 147 847 l 147 278 q 204 101 147 160 q 368 42 261 42 q 533 101 475 42 q 590 278 590 160 m 311 1336 q 336 1318 325 1336 q 347 1276 347 1300 q 336 1235 347 1253 q 311 1217 325 1217 q 285 1235 296 1217 q 274 1276 274 1253 q 285 1318 274 1300 q 311 1336 296 1336 m 426 1336 q 451 1318 440 1336 q 463 1276 463 1300 q 451 1235 463 1253 q 426 1217 440 1217 q 400 1235 411 1217 q 389 1276 389 1253 q 400 1318 389 1300 q 426 1336 411 1336 z "},"×":{"ha":535,"x_min":86,"x_max":449,"o":"m 449 406 q 442 390 449 397 q 425 382 435 382 q 408 389 415 382 l 267 529 l 126 389 q 110 382 119 382 q 93 389 100 382 q 86 406 86 396 q 93 422 86 415 l 233 563 l 93 703 q 86 721 86 710 q 93 738 86 731 q 110 744 100 744 q 128 738 121 744 l 267 597 l 407 738 q 425 744 414 744 q 442 738 435 744 q 449 721 449 731 q 442 703 449 710 l 301 563 l 442 422 q 449 406 449 415 z "},"Ø":{"ha":738,"x_min":74,"x_max":663,"o":"m 566 60 q 529 26 566 60 q 368 -8 492 -8 q 171 60 244 -8 q 97 278 97 129 l 97 729 q 171 947 97 878 q 368 1015 244 1015 q 566 947 492 1015 q 640 729 640 878 l 640 278 q 566 60 640 129 m 590 278 l 590 729 q 533 906 590 847 q 368 965 475 965 q 204 906 261 965 q 147 729 147 847 l 147 278 q 204 101 147 160 q 368 42 261 42 q 533 101 475 42 q 590 278 590 160 m 658 1025 l 119 -12 q 96 -28 111 -28 q 74 -7 74 -28 q 76 6 74 1 l 619 1056 q 638 1067 625 1067 q 654 1059 646 1067 q 663 1040 663 1051 q 658 1025 663 1033 z "},"Ù":{"ha":760,"x_min":108,"x_max":651,"o":"m 108 278 l 108 992 q 133 1015 108 1015 q 158 992 158 1015 l 158 278 q 215 101 158 160 q 379 42 272 42 q 544 101 486 42 q 601 278 601 160 l 601 992 q 626 1015 601 1015 q 651 992 651 1015 l 651 278 q 577 60 651 129 q 379 -8 503 -8 q 182 60 256 -8 q 108 278 108 129 m 433 1199 l 301 1274 q 288 1299 288 1282 q 310 1324 288 1324 q 319 1321 314 1324 l 461 1238 q 472 1219 472 1232 q 465 1202 472 1210 q 446 1194 457 1194 q 433 1199 440 1194 z "},"Ú":{"ha":760,"x_min":108,"x_max":651,"o":"m 108 278 l 108 992 q 133 1015 108 1015 q 158 992 158 1015 l 158 278 q 215 101 158 160 q 379 42 272 42 q 544 101 486 42 q 601 278 601 160 l 601 992 q 626 1015 601 1015 q 651 992 651 1015 l 651 278 q 577 60 651 129 q 379 -8 503 -8 q 182 60 256 -8 q 108 278 108 129 m 458 1274 l 326 1199 q 314 1194 321 1194 q 295 1202 303 1194 q 288 1219 288 1210 q 299 1238 288 1232 l 440 1321 q 450 1324 446 1324 q 472 1299 472 1324 q 458 1274 472 1282 z "},"Û":{"ha":760,"x_min":108,"x_max":651,"o":"m 108 278 l 108 992 q 133 1015 108 1015 q 158 992 158 1015 l 158 278 q 215 101 158 160 q 379 42 272 42 q 544 101 486 42 q 601 278 601 160 l 601 992 q 626 1015 601 1015 q 651 992 651 1015 l 651 278 q 577 60 651 129 q 379 -8 503 -8 q 182 60 256 -8 q 108 278 108 129 m 379 1275 l 235 1197 q 229 1195 233 1197 q 224 1193 225 1193 q 206 1201 214 1193 q 199 1219 199 1208 q 211 1239 199 1232 l 356 1317 q 379 1324 367 1324 q 403 1317 392 1324 l 547 1240 q 560 1217 560 1235 q 553 1201 560 1207 q 536 1194 546 1194 l 524 1199 l 379 1275 z "},"Ü":{"ha":760,"x_min":108,"x_max":651,"o":"m 108 278 l 108 992 q 133 1015 108 1015 q 158 992 158 1015 l 158 278 q 215 101 158 160 q 379 42 272 42 q 544 101 486 42 q 601 278 601 160 l 601 992 q 626 1015 601 1015 q 651 992 651 1015 l 651 278 q 577 60 651 129 q 379 -8 503 -8 q 182 60 256 -8 q 108 278 108 129 m 322 1336 q 347 1318 336 1336 q 358 1276 358 1300 q 347 1235 358 1253 q 322 1217 336 1217 q 296 1235 307 1217 q 285 1276 285 1253 q 296 1318 285 1300 q 322 1336 307 1336 m 438 1336 q 463 1318 451 1336 q 474 1276 474 1300 q 463 1235 474 1253 q 438 1217 451 1217 q 411 1235 422 1217 q 400 1276 400 1253 q 411 1318 400 1300 q 438 1336 422 1336 z "},"Ý":{"ha":710,"x_min":32,"x_max":676,"o":"m 669 965 l 381 388 q 379 379 379 385 l 379 25 q 354 0 379 0 q 329 25 329 0 l 329 379 q 328 388 329 385 l 40 965 q 32 993 32 982 q 50 1015 32 1015 q 78 992 67 1015 l 354 435 l 632 992 q 660 1015 644 1015 q 676 993 676 1015 q 669 965 676 979 m 432 1274 l 300 1199 q 288 1194 294 1194 q 269 1202 276 1194 q 261 1219 261 1210 q 272 1238 261 1232 l 414 1321 q 424 1324 419 1324 q 446 1299 446 1324 q 432 1274 446 1282 z "},"Þ":{"ha":671,"x_min":115,"x_max":600,"o":"m 115 25 l 115 993 q 139 1015 115 1015 q 164 992 164 1015 l 164 753 q 363 858 224 858 q 530 805 460 858 q 600 657 600 751 l 600 390 q 530 241 600 296 q 369 186 460 186 q 241 217 301 186 q 164 294 181 247 l 164 25 q 157 8 164 15 q 140 0 150 0 q 123 8 131 0 q 115 25 115 15 m 365 235 q 496 275 440 235 q 551 390 551 315 l 551 657 q 497 770 551 731 q 365 810 442 810 q 224 767 283 810 q 164 657 164 724 l 164 390 q 222 283 164 332 q 365 235 281 235 z "},"ß":{"ha":726,"x_min":10,"x_max":671,"o":"m 442 -28 q 343 -16 396 -28 q 290 22 290 -4 q 297 39 290 32 q 311 46 303 46 q 350 31 314 46 q 428 15 386 15 q 573 81 519 15 q 626 272 626 147 l 626 299 q 607 403 626 353 q 532 497 588 454 q 393 544 476 539 q 360 549 369 546 q 350 567 350 553 q 394 594 350 590 q 529 801 529 603 q 485 961 529 904 q 358 1018 442 1018 q 233 962 272 1018 q 194 819 194 906 l 194 24 q 187 7 194 14 q 168 0 179 0 q 146 24 146 0 l 146 607 l 33 607 q 10 631 10 607 q 33 656 10 656 l 146 656 l 146 819 q 199 997 146 928 q 358 1067 251 1067 q 517 1004 457 1067 q 578 818 578 942 q 551 666 578 736 q 476 574 525 596 q 610 479 549 560 q 671 299 671 399 l 671 272 q 603 49 671 126 q 442 -28 536 -28 z "},"à":{"ha":586,"x_min":47,"x_max":497,"o":"m 121 656 l 250 656 q 438 588 378 656 q 497 410 497 521 l 497 25 q 474 0 497 0 q 456 7 464 0 q 449 25 449 14 l 449 97 q 240 -8 357 -8 q 101 38 154 -8 q 47 175 47 85 q 130 319 47 279 q 371 358 213 358 l 449 358 l 449 410 q 398 551 449 494 q 250 607 347 607 l 121 607 q 103 615 111 607 q 96 632 96 622 q 121 656 96 656 m 449 193 l 449 310 l 372 310 q 267 306 310 310 q 182 288 225 301 q 117 247 139 275 q 96 175 96 218 q 135 74 96 108 q 239 40 175 40 q 381 93 314 40 q 449 193 449 146 m 325 839 l 193 914 q 179 939 179 922 q 201 964 179 964 q 211 961 206 964 l 353 878 q 364 860 364 872 q 356 842 364 850 q 338 835 349 835 q 325 839 332 835 z "},"á":{"ha":586,"x_min":47,"x_max":497,"o":"m 121 656 l 250 656 q 438 588 378 656 q 497 410 497 521 l 497 25 q 474 0 497 0 q 456 7 464 0 q 449 25 449 14 l 449 97 q 240 -8 357 -8 q 101 38 154 -8 q 47 175 47 85 q 130 319 47 279 q 371 358 213 358 l 449 358 l 449 410 q 398 551 449 494 q 250 607 347 607 l 121 607 q 103 615 111 607 q 96 632 96 622 q 121 656 96 656 m 449 193 l 449 310 l 372 310 q 267 306 310 310 q 182 288 225 301 q 117 247 139 275 q 96 175 96 218 q 135 74 96 108 q 239 40 175 40 q 381 93 314 40 q 449 193 449 146 m 350 914 l 218 839 q 206 835 211 835 q 187 842 194 835 q 179 860 179 850 q 190 878 179 872 l 332 961 q 342 964 338 964 q 364 939 364 964 q 350 914 364 922 z "},"â":{"ha":586,"x_min":47,"x_max":497,"o":"m 121 656 l 250 656 q 438 588 378 656 q 497 410 497 521 l 497 25 q 474 0 497 0 q 456 7 464 0 q 449 25 449 14 l 449 97 q 240 -8 357 -8 q 101 38 154 -8 q 47 175 47 85 q 130 319 47 279 q 371 358 213 358 l 449 358 l 449 410 q 398 551 449 494 q 250 607 347 607 l 121 607 q 103 615 111 607 q 96 632 96 622 q 121 656 96 656 m 449 193 l 449 310 l 372 310 q 267 306 310 310 q 182 288 225 301 q 117 247 139 275 q 96 175 96 218 q 135 74 96 108 q 239 40 175 40 q 381 93 314 40 q 449 193 449 146 m 286 915 l 142 838 q 136 835 140 838 q 131 833 132 833 q 113 841 121 833 q 106 860 106 849 q 118 879 106 872 l 263 957 q 286 964 274 964 q 310 957 299 964 l 454 881 q 467 857 467 875 q 460 841 467 847 q 443 835 453 835 l 431 839 l 286 915 z "},"ã":{"ha":586,"x_min":47,"x_max":497,"o":"m 121 656 l 250 656 q 438 588 378 656 q 497 410 497 521 l 497 25 q 474 0 497 0 q 456 7 464 0 q 449 25 449 14 l 449 97 q 240 -8 357 -8 q 101 38 154 -8 q 47 175 47 85 q 130 319 47 279 q 371 358 213 358 l 449 358 l 449 410 q 398 551 449 494 q 250 607 347 607 l 121 607 q 103 615 111 607 q 96 632 96 622 q 121 656 96 656 m 449 193 l 449 310 l 372 310 q 267 306 310 310 q 182 288 225 301 q 117 247 139 275 q 96 175 96 218 q 135 74 96 108 q 239 40 175 40 q 381 93 314 40 q 449 193 449 146 m 367 907 q 412 918 394 907 q 439 940 429 929 q 457 951 449 951 q 476 931 476 951 q 437 881 476 901 q 360 860 397 860 q 274 885 328 860 q 181 911 221 911 q 135 899 154 911 q 103 874 115 886 q 85 863 92 863 q 67 886 67 863 q 109 935 67 913 q 190 958 151 958 q 277 933 224 958 q 367 907 331 907 z "},"ä":{"ha":586,"x_min":47,"x_max":497,"o":"m 121 656 l 250 656 q 438 588 378 656 q 497 410 497 521 l 497 25 q 474 0 497 0 q 456 7 464 0 q 449 25 449 14 l 449 97 q 240 -8 357 -8 q 101 38 154 -8 q 47 175 47 85 q 130 319 47 279 q 371 358 213 358 l 449 358 l 449 410 q 398 551 449 494 q 250 607 347 607 l 121 607 q 103 615 111 607 q 96 632 96 622 q 121 656 96 656 m 449 193 l 449 310 l 372 310 q 267 306 310 310 q 182 288 225 301 q 117 247 139 275 q 96 175 96 218 q 135 74 96 108 q 239 40 175 40 q 381 93 314 40 q 449 193 449 146 m 215 976 q 240 958 229 976 q 251 917 251 940 q 240 875 251 893 q 215 857 229 857 q 189 875 200 857 q 178 917 178 893 q 189 958 178 940 q 215 976 200 976 m 331 976 q 356 958 344 976 q 367 917 367 940 q 356 875 367 893 q 331 857 344 857 q 304 875 315 857 q 293 917 293 893 q 304 958 293 940 q 331 976 315 976 z "},"å":{"ha":586,"x_min":47,"x_max":497,"o":"m 121 656 l 250 656 q 438 588 378 656 q 497 410 497 521 l 497 25 q 474 0 497 0 q 456 7 464 0 q 449 25 449 14 l 449 97 q 240 -8 357 -8 q 101 38 154 -8 q 47 175 47 85 q 130 319 47 279 q 371 358 213 358 l 449 358 l 449 410 q 398 551 449 494 q 250 607 347 607 l 121 607 q 103 615 111 607 q 96 632 96 622 q 121 656 96 656 m 449 193 l 449 310 l 372 310 q 267 306 310 310 q 182 288 225 301 q 117 247 139 275 q 96 175 96 218 q 135 74 96 108 q 239 40 175 40 q 381 93 314 40 q 449 193 449 146 m 286 1067 q 365 1032 331 1067 q 400 951 400 997 q 365 869 400 904 q 286 833 331 833 q 206 869 240 833 q 172 951 172 904 q 206 1032 172 997 q 286 1067 239 1067 m 358 951 q 337 1001 358 978 q 286 1024 315 1024 q 234 1001 256 1024 q 213 951 213 979 q 234 897 213 921 q 286 874 256 874 q 337 897 315 874 q 358 951 358 921 z "},"æ":{"ha":997,"x_min":47,"x_max":942,"o":"m 696 664 q 869 592 796 664 q 942 417 942 521 q 924 328 942 346 q 826 310 906 310 l 500 310 l 500 244 q 565 95 500 150 q 736 40 629 40 q 813 51 785 40 q 878 90 840 63 q 894 97 888 97 q 913 90 904 97 q 921 72 921 83 q 914 54 921 63 q 833 10 894 29 q 714 -8 771 -8 q 568 32 635 -8 q 471 140 501 72 q 380 28 443 64 q 240 -8 317 -8 q 101 38 154 -8 q 47 175 47 85 q 129 319 47 279 q 368 358 211 358 l 446 358 l 446 417 q 395 553 446 499 q 250 607 344 607 l 121 607 q 103 615 111 607 q 96 632 96 622 q 121 656 96 656 l 250 656 q 475 528 422 656 q 566 626 507 589 q 696 664 625 664 m 500 358 l 810 358 q 879 368 865 358 q 893 410 893 378 q 838 552 893 489 q 696 615 782 615 q 556 557 613 615 q 500 419 500 499 l 500 358 m 446 193 l 446 310 l 369 310 q 265 306 307 310 q 181 288 222 301 q 117 247 139 275 q 96 175 96 218 q 135 74 96 108 q 239 40 175 40 q 380 93 314 40 q 446 193 446 146 z "},"ç":{"ha":564,"x_min":71,"x_max":515,"o":"m 325 -8 q 135 61 200 -8 q 71 244 71 131 l 71 411 q 135 594 71 524 q 325 664 200 664 q 461 636 407 664 q 515 582 515 608 q 507 565 515 572 q 490 558 499 558 q 464 572 482 558 q 410 601 446 586 q 325 615 375 615 q 173 561 226 615 q 119 411 119 507 l 119 244 q 173 94 119 149 q 326 40 226 40 q 412 55 378 40 q 463 83 446 69 q 490 97 481 97 q 508 90 500 97 q 515 74 515 83 q 461 19 515 46 q 325 -8 407 -8 m 472 -186 q 360 -290 472 -290 q 256 -271 311 -290 l 256 -222 q 358 -242 306 -242 q 426 -185 426 -242 q 403 -147 426 -156 q 333 -137 379 -137 l 292 -137 l 292 11 l 339 11 l 339 -89 q 385 -91 368 -89 q 426 -101 403 -93 q 461 -131 450 -110 q 472 -186 472 -153 z "},"è":{"ha":617,"x_min":69,"x_max":563,"o":"m 317 664 q 490 592 417 664 q 563 414 563 521 q 554 356 563 378 q 526 324 546 333 q 491 312 507 314 q 447 310 475 310 l 118 310 l 118 244 q 183 96 118 151 q 353 40 249 40 q 439 55 404 40 q 491 83 474 69 q 517 97 508 97 q 534 89 526 97 q 542 72 542 81 q 519 40 542 58 q 451 6 497 21 q 350 -8 406 -8 q 148 62 226 -8 q 69 244 69 132 l 69 418 q 142 591 69 518 q 317 664 215 664 m 118 358 l 431 358 q 498 368 482 358 q 514 410 514 378 q 458 552 514 489 q 317 615 403 615 q 176 556 233 615 q 118 418 118 497 l 118 358 m 369 839 l 238 914 q 224 939 224 922 q 246 964 224 964 q 256 961 250 964 l 397 878 q 408 860 408 872 q 401 842 408 850 q 382 835 393 835 q 369 839 375 835 z "},"é":{"ha":617,"x_min":69,"x_max":563,"o":"m 317 664 q 490 592 417 664 q 563 414 563 521 q 554 356 563 378 q 526 324 546 333 q 491 312 507 314 q 447 310 475 310 l 118 310 l 118 244 q 183 96 118 151 q 353 40 249 40 q 439 55 404 40 q 491 83 474 69 q 517 97 508 97 q 534 89 526 97 q 542 72 542 81 q 519 40 542 58 q 451 6 497 21 q 350 -8 406 -8 q 148 62 226 -8 q 69 244 69 132 l 69 418 q 142 591 69 518 q 317 664 215 664 m 118 358 l 431 358 q 498 368 482 358 q 514 410 514 378 q 458 552 514 489 q 317 615 403 615 q 176 556 233 615 q 118 418 118 497 l 118 358 m 394 914 l 263 839 q 250 835 257 835 q 231 842 239 835 q 224 860 224 850 q 235 878 224 872 l 376 961 q 386 964 382 964 q 408 939 408 964 q 394 914 408 922 z "},"ê":{"ha":617,"x_min":69,"x_max":563,"o":"m 317 664 q 490 592 417 664 q 563 414 563 521 q 554 356 563 378 q 526 324 546 333 q 491 312 507 314 q 447 310 475 310 l 118 310 l 118 244 q 183 96 118 151 q 353 40 249 40 q 439 55 404 40 q 491 83 474 69 q 517 97 508 97 q 534 89 526 97 q 542 72 542 81 q 519 40 542 58 q 451 6 497 21 q 350 -8 406 -8 q 148 62 226 -8 q 69 244 69 132 l 69 418 q 142 591 69 518 q 317 664 215 664 m 118 358 l 431 358 q 498 368 482 358 q 514 410 514 378 q 458 552 514 489 q 317 615 403 615 q 176 556 233 615 q 118 418 118 497 l 118 358 m 315 915 l 171 838 q 165 835 169 838 q 160 833 161 833 q 142 841 150 833 q 135 860 135 849 q 147 879 135 872 l 292 957 q 315 964 303 964 q 339 957 328 964 l 483 881 q 496 857 496 875 q 489 841 496 847 q 472 835 482 835 l 460 839 l 315 915 z "},"ë":{"ha":617,"x_min":69,"x_max":563,"o":"m 317 664 q 490 592 417 664 q 563 414 563 521 q 554 356 563 378 q 526 324 546 333 q 491 312 507 314 q 447 310 475 310 l 118 310 l 118 244 q 183 96 118 151 q 353 40 249 40 q 439 55 404 40 q 491 83 474 69 q 517 97 508 97 q 534 89 526 97 q 542 72 542 81 q 519 40 542 58 q 451 6 497 21 q 350 -8 406 -8 q 148 62 226 -8 q 69 244 69 132 l 69 418 q 142 591 69 518 q 317 664 215 664 m 118 358 l 431 358 q 498 368 482 358 q 514 410 514 378 q 458 552 514 489 q 317 615 403 615 q 176 556 233 615 q 118 418 118 497 l 118 358 m 258 976 q 283 958 272 976 q 294 917 294 940 q 283 875 294 893 q 258 857 272 857 q 232 875 243 857 q 221 917 221 893 q 232 958 221 940 q 258 976 243 976 m 374 976 q 399 958 388 976 q 410 917 410 940 q 399 875 410 893 q 374 857 388 857 q 347 875 358 857 q 336 917 336 893 q 347 958 336 940 q 374 976 358 976 z "},"ì":{"ha":240,"x_min":26,"x_max":211,"o":"m 119 656 q 144 632 144 656 l 144 25 q 137 8 144 15 q 119 0 129 0 q 103 8 110 0 q 96 25 96 15 l 96 632 q 103 649 96 642 q 119 656 110 656 m 172 839 l 40 914 q 26 939 26 922 q 49 964 26 964 q 58 961 53 964 l 200 878 q 211 860 211 872 q 203 842 211 850 q 185 835 196 835 q 172 839 178 835 z "},"í":{"ha":240,"x_min":26,"x_max":211,"o":"m 119 656 q 144 632 144 656 l 144 25 q 137 8 144 15 q 119 0 129 0 q 103 8 110 0 q 96 25 96 15 l 96 632 q 103 649 96 642 q 119 656 110 656 m 197 914 l 65 839 q 53 835 60 835 q 34 842 42 835 q 26 860 26 850 q 38 878 26 872 l 179 961 q 189 964 185 964 q 211 939 211 964 q 197 914 211 922 z "},"î":{"ha":240,"x_min":-61,"x_max":300,"o":"m 119 656 q 144 632 144 656 l 144 25 q 137 8 144 15 q 119 0 129 0 q 103 8 110 0 q 96 25 96 15 l 96 632 q 103 649 96 642 q 119 656 110 656 m 119 915 l -25 838 q -31 835 -26 838 q -36 833 -35 833 q -53 841 -46 833 q -61 860 -61 849 q -49 879 -61 872 l 96 957 q 119 964 107 964 q 143 957 132 964 l 288 881 q 300 857 300 875 q 293 841 300 847 q 276 835 286 835 l 264 839 l 119 915 z "},"ï":{"ha":240,"x_min":24,"x_max":213,"o":"m 119 656 q 144 632 144 656 l 144 25 q 137 8 144 15 q 119 0 129 0 q 103 8 110 0 q 96 25 96 15 l 96 632 q 103 649 96 642 q 119 656 110 656 m 61 976 q 86 958 75 976 q 97 917 97 940 q 86 875 97 893 q 61 857 75 857 q 35 875 46 857 q 24 917 24 893 q 35 958 24 940 q 61 976 46 976 m 176 976 q 201 958 190 976 q 213 917 213 940 q 201 875 213 893 q 176 857 190 857 q 150 875 161 857 q 139 917 139 893 q 150 958 139 940 q 176 976 161 976 z "},"ð":{"ha":649,"x_min":69,"x_max":563,"o":"m 176 1015 q 160 1039 160 1015 q 193 1067 160 1067 q 411 949 306 1067 l 522 1013 q 532 1015 528 1015 q 549 1008 542 1015 q 557 992 557 1001 q 544 971 557 978 l 442 911 q 563 507 563 749 l 563 244 q 488 68 563 144 q 315 -8 414 -8 q 143 68 217 -8 q 69 244 69 144 l 69 414 q 142 589 69 514 q 315 664 215 664 q 438 631 379 664 q 514 544 497 599 q 399 886 494 757 l 263 808 q 250 804 256 804 q 233 813 240 804 q 226 831 226 821 q 239 850 226 844 l 367 924 q 176 1015 279 1015 m 514 244 l 514 421 q 455 556 514 496 q 315 615 396 615 q 176 553 233 615 q 118 414 118 492 l 118 244 q 176 103 118 165 q 315 40 235 40 q 455 103 396 40 q 514 244 514 165 z "},"ñ":{"ha":663,"x_min":85,"x_max":578,"o":"m 331 664 q 505 589 432 664 q 578 414 578 514 l 578 25 q 570 8 578 15 q 553 0 563 0 q 536 8 543 0 q 529 25 529 15 l 529 414 q 471 554 529 493 q 331 615 413 615 q 192 554 250 615 q 133 414 133 493 l 133 24 q 126 7 133 14 q 108 0 118 0 q 92 7 99 0 q 85 24 85 14 l 85 414 q 158 589 85 514 q 331 664 231 664 m 426 907 q 472 918 454 907 q 499 940 489 929 q 517 951 508 951 q 536 931 536 951 q 497 881 536 901 q 419 860 457 860 q 334 885 388 860 q 240 911 281 911 q 194 899 214 911 q 163 874 175 886 q 144 863 151 863 q 126 886 126 863 q 169 935 126 913 q 250 958 211 958 q 337 933 283 958 q 426 907 390 907 z "},"ò":{"ha":632,"x_min":69,"x_max":563,"o":"m 142 589 q 179 626 142 589 q 315 664 215 664 q 489 590 415 664 q 563 414 563 517 l 563 244 q 488 68 563 144 q 315 -8 414 -8 q 143 68 217 -8 q 69 244 69 144 l 69 414 q 142 589 69 514 m 514 244 l 514 414 q 456 553 514 492 q 315 615 397 615 q 176 553 233 615 q 118 414 118 492 l 118 244 q 176 103 118 165 q 315 40 235 40 q 455 103 396 40 q 514 244 514 165 m 369 839 l 238 914 q 224 939 224 922 q 246 964 224 964 q 256 961 250 964 l 397 878 q 408 860 408 872 q 401 842 408 850 q 382 835 393 835 q 369 839 376 835 z "},"ó":{"ha":632,"x_min":69,"x_max":563,"o":"m 142 589 q 179 626 142 589 q 315 664 215 664 q 489 590 415 664 q 563 414 563 517 l 563 244 q 488 68 563 144 q 315 -8 414 -8 q 143 68 217 -8 q 69 244 69 144 l 69 414 q 142 589 69 514 m 514 244 l 514 414 q 456 553 514 492 q 315 615 397 615 q 176 553 233 615 q 118 414 118 492 l 118 244 q 176 103 118 165 q 315 40 235 40 q 455 103 396 40 q 514 244 514 165 m 394 914 l 263 839 q 250 835 257 835 q 231 842 239 835 q 224 860 224 850 q 235 878 224 872 l 376 961 q 386 964 382 964 q 408 939 408 964 q 394 914 408 922 z "},"ô":{"ha":632,"x_min":69,"x_max":563,"o":"m 142 589 q 179 626 142 589 q 315 664 215 664 q 489 590 415 664 q 563 414 563 517 l 563 244 q 488 68 563 144 q 315 -8 414 -8 q 143 68 217 -8 q 69 244 69 144 l 69 414 q 142 589 69 514 m 514 244 l 514 414 q 456 553 514 492 q 315 615 397 615 q 176 553 233 615 q 118 414 118 492 l 118 244 q 176 103 118 165 q 315 40 235 40 q 455 103 396 40 q 514 244 514 165 m 315 915 l 171 838 q 165 835 169 838 q 160 833 161 833 q 142 841 150 833 q 135 860 135 849 q 147 879 135 872 l 292 957 q 315 964 303 964 q 339 957 328 964 l 483 881 q 496 857 496 875 q 489 841 496 847 q 472 835 482 835 l 460 839 l 315 915 z "},"õ":{"ha":632,"x_min":69,"x_max":563,"o":"m 142 589 q 179 626 142 589 q 315 664 215 664 q 489 590 415 664 q 563 414 563 517 l 563 244 q 488 68 563 144 q 315 -8 414 -8 q 143 68 217 -8 q 69 244 69 144 l 69 414 q 142 589 69 514 m 514 244 l 514 414 q 456 553 514 492 q 315 615 397 615 q 176 553 233 615 q 118 414 118 492 l 118 244 q 176 103 118 165 q 315 40 235 40 q 455 103 396 40 q 514 244 514 165 m 411 907 q 456 918 439 907 q 483 940 474 929 q 501 951 493 951 q 521 931 521 951 q 481 881 521 901 q 404 860 442 860 q 319 885 372 860 q 225 911 265 911 q 179 899 199 911 q 148 874 160 886 q 129 863 136 863 q 111 886 111 863 q 153 935 111 913 q 235 958 196 958 q 322 933 268 958 q 411 907 375 907 z "},"ö":{"ha":632,"x_min":69,"x_max":563,"o":"m 142 589 q 179 626 142 589 q 315 664 215 664 q 489 590 415 664 q 563 414 563 517 l 563 244 q 488 68 563 144 q 315 -8 414 -8 q 143 68 217 -8 q 69 244 69 144 l 69 414 q 142 589 69 514 m 514 244 l 514 414 q 456 553 514 492 q 315 615 397 615 q 176 553 233 615 q 118 414 118 492 l 118 244 q 176 103 118 165 q 315 40 235 40 q 455 103 396 40 q 514 244 514 165 m 258 976 q 283 958 272 976 q 294 917 294 940 q 283 875 294 893 q 258 857 272 857 q 232 875 243 857 q 221 917 221 893 q 232 958 221 940 q 258 976 243 976 m 374 976 q 399 958 388 976 q 410 917 410 940 q 399 875 410 893 q 374 857 388 857 q 347 875 358 857 q 336 917 336 893 q 347 958 336 940 q 374 976 358 976 z "},"÷":{"ha":629,"x_min":68,"x_max":561,"o":"m 310 400 q 351 382 333 400 q 369 340 369 364 q 351 299 369 317 q 310 281 333 281 q 267 299 285 281 q 249 340 249 317 q 267 382 249 364 q 310 400 285 400 m 310 846 q 351 828 333 846 q 369 786 369 810 q 351 744 369 763 q 310 726 333 726 q 267 744 285 726 q 249 786 249 763 q 267 828 249 810 q 310 846 285 846 m 68 563 q 92 588 68 588 l 536 588 q 553 580 546 588 q 561 563 561 572 q 553 546 561 553 q 536 539 546 539 l 92 539 q 68 563 68 539 z "},"ø":{"ha":632,"x_min":69,"x_max":563,"o":"m 513 665 l 154 -29 q 131 -44 147 -44 q 108 -24 108 -44 q 111 -11 108 -15 l 474 696 q 492 707 479 707 q 508 699 500 707 q 517 681 517 692 q 513 665 517 674 m 142 589 q 179 626 142 589 q 315 664 215 664 q 489 590 415 664 q 563 414 563 517 l 563 244 q 488 68 563 144 q 315 -8 414 -8 q 143 68 217 -8 q 69 244 69 144 l 69 414 q 142 589 69 514 m 514 244 l 514 414 q 456 553 514 492 q 315 615 397 615 q 176 553 233 615 q 118 414 118 492 l 118 244 q 176 103 118 165 q 315 40 235 40 q 455 103 396 40 q 514 244 514 165 z "},"ù":{"ha":664,"x_min":85,"x_max":578,"o":"m 332 -8 q 158 67 231 -8 q 85 242 85 142 l 85 631 q 92 648 85 640 q 110 656 100 656 q 126 648 119 656 q 133 631 133 640 l 133 242 q 192 101 133 163 q 332 40 250 40 q 471 101 413 40 q 529 242 529 163 l 529 632 q 537 649 529 642 q 554 656 544 656 q 571 649 564 656 q 578 632 578 642 l 578 242 q 505 67 578 142 q 332 -8 432 -8 m 385 839 l 253 914 q 239 939 239 922 q 261 964 239 964 q 271 961 265 964 l 413 878 q 424 860 424 872 q 416 842 424 850 q 397 835 408 835 q 385 839 392 835 z "},"ú":{"ha":664,"x_min":85,"x_max":578,"o":"m 332 -8 q 158 67 231 -8 q 85 242 85 142 l 85 631 q 92 648 85 640 q 110 656 100 656 q 126 648 119 656 q 133 631 133 640 l 133 242 q 192 101 133 163 q 332 40 250 40 q 471 101 413 40 q 529 242 529 163 l 529 632 q 537 649 529 642 q 554 656 544 656 q 571 649 564 656 q 578 632 578 642 l 578 242 q 505 67 578 142 q 332 -8 432 -8 m 410 914 l 278 839 q 265 835 272 835 q 247 842 254 835 q 239 860 239 850 q 250 878 239 872 l 392 961 q 401 964 397 964 q 424 939 424 964 q 410 914 424 922 z "},"û":{"ha":664,"x_min":85,"x_max":578,"o":"m 332 -8 q 158 67 231 -8 q 85 242 85 142 l 85 631 q 92 648 85 640 q 110 656 100 656 q 126 648 119 656 q 133 631 133 640 l 133 242 q 192 101 133 163 q 332 40 250 40 q 471 101 413 40 q 529 242 529 163 l 529 632 q 537 649 529 642 q 554 656 544 656 q 571 649 564 656 q 578 632 578 642 l 578 242 q 505 67 578 142 q 332 -8 432 -8 m 331 915 l 186 838 q 181 835 185 838 q 175 833 176 833 q 158 841 165 833 q 150 860 150 849 q 163 879 150 872 l 307 957 q 331 964 318 964 q 354 957 343 964 l 499 881 q 511 857 511 875 q 504 841 511 847 q 488 835 497 835 l 475 839 l 331 915 z "},"ü":{"ha":664,"x_min":85,"x_max":578,"o":"m 332 -8 q 158 67 231 -8 q 85 242 85 142 l 85 631 q 92 648 85 640 q 110 656 100 656 q 126 648 119 656 q 133 631 133 640 l 133 242 q 192 101 133 163 q 332 40 250 40 q 471 101 413 40 q 529 242 529 163 l 529 632 q 537 649 529 642 q 554 656 544 656 q 571 649 564 656 q 578 632 578 642 l 578 242 q 505 67 578 142 q 332 -8 432 -8 m 274 976 q 299 958 288 976 q 310 917 310 940 q 299 875 310 893 q 274 857 288 857 q 247 875 258 857 q 236 917 236 893 q 247 958 236 940 q 274 976 258 976 m 389 976 q 414 958 403 976 q 425 917 425 940 q 414 875 425 893 q 389 857 403 857 q 363 875 374 857 q 351 917 351 893 q 363 958 351 940 q 389 976 374 976 z "},"ý":{"ha":546,"x_min":24,"x_max":521,"o":"m 496 664 q 521 640 521 664 q 519 632 521 635 l 297 18 l 269 -58 q 240 -132 261 -81 q 201 -210 218 -183 q 159 -268 183 -236 q 107 -315 135 -300 q 49 -329 79 -329 q 32 -322 39 -329 q 25 -306 25 -315 q 46 -281 25 -281 q 92 -269 69 -281 q 133 -231 114 -258 q 166 -183 153 -204 q 198 -117 179 -162 q 224 -53 217 -71 l 249 18 l 26 632 q 24 640 24 638 q 31 657 24 650 q 50 664 39 664 q 72 649 68 664 l 274 93 l 474 649 q 496 664 481 664 m 350 914 l 218 839 q 206 835 213 835 q 187 842 194 835 q 179 860 179 850 q 190 878 179 872 l 332 961 q 342 964 338 964 q 364 939 364 964 q 350 914 364 922 z "},"þ":{"ha":654,"x_min":96,"x_max":581,"o":"m 96 -187 l 96 813 q 119 835 96 835 q 144 811 144 835 l 144 558 q 343 664 204 664 q 510 610 440 664 q 581 463 581 557 l 581 196 q 510 47 581 101 q 350 -8 440 -8 q 222 22 282 -8 q 144 100 161 53 l 144 -187 q 138 -205 144 -197 q 121 -212 131 -212 q 103 -205 111 -212 q 96 -187 96 -197 m 346 40 q 476 81 421 40 q 532 196 532 121 l 532 463 q 477 576 532 536 q 346 615 422 615 q 204 572 264 615 q 144 463 144 529 l 144 196 q 203 89 144 138 q 346 40 261 40 z "},"ÿ":{"ha":546,"x_min":24,"x_max":521,"o":"m 496 664 q 521 640 521 664 q 519 632 521 635 l 297 18 l 269 -58 q 240 -132 261 -81 q 201 -210 218 -183 q 159 -268 183 -236 q 107 -315 135 -300 q 49 -329 79 -329 q 32 -322 39 -329 q 25 -306 25 -315 q 46 -281 25 -281 q 92 -269 69 -281 q 133 -231 114 -258 q 166 -183 153 -204 q 198 -117 179 -162 q 224 -53 217 -71 l 249 18 l 26 632 q 24 640 24 638 q 31 657 24 650 q 50 664 39 664 q 72 649 68 664 l 274 93 l 474 649 q 496 664 481 664 m 215 976 q 240 958 229 976 q 251 917 251 940 q 240 875 251 893 q 215 857 229 857 q 189 875 200 857 q 178 917 178 893 q 189 958 178 940 q 215 976 200 976 m 331 976 q 356 958 344 976 q 367 917 367 940 q 356 875 367 893 q 331 857 344 857 q 304 875 315 857 q 293 917 293 893 q 304 958 293 940 q 331 976 315 976 z "},"Ā":{"ha":674,"x_min":38,"x_max":636,"o":"m 586 18 l 524 246 l 150 246 l 88 18 q 61 0 83 0 q 38 22 38 0 q 39 31 38 26 l 313 1004 q 338 1024 318 1024 q 364 1004 357 1024 l 635 31 q 636 22 636 26 q 613 0 636 0 q 586 18 590 0 m 338 918 l 164 296 l 510 296 l 338 918 m 160 1269 q 183 1294 160 1294 l 489 1294 q 506 1287 499 1294 q 514 1269 514 1279 q 506 1253 514 1260 q 489 1246 499 1246 l 183 1246 q 160 1269 160 1246 z "},"ā":{"ha":586,"x_min":47,"x_max":497,"o":"m 121 656 l 250 656 q 438 588 378 656 q 497 410 497 521 l 497 25 q 474 0 497 0 q 456 7 464 0 q 449 25 449 14 l 449 97 q 240 -8 357 -8 q 101 38 154 -8 q 47 175 47 85 q 130 319 47 279 q 371 358 213 358 l 449 358 l 449 410 q 398 551 449 494 q 250 607 347 607 l 121 607 q 103 615 111 607 q 96 632 96 622 q 121 656 96 656 m 449 193 l 449 310 l 372 310 q 267 306 310 310 q 182 288 225 301 q 117 247 139 275 q 96 175 96 218 q 135 74 96 108 q 239 40 175 40 q 381 93 314 40 q 449 193 449 146 m 108 910 q 132 935 108 935 l 438 935 q 455 927 447 935 q 463 910 463 919 q 455 893 463 900 q 438 886 447 886 l 132 886 q 108 910 108 886 z "},"Ă":{"ha":674,"x_min":38,"x_max":636,"o":"m 586 18 l 524 246 l 150 246 l 88 18 q 61 0 83 0 q 38 22 38 0 q 39 31 38 26 l 313 1004 q 338 1024 318 1024 q 364 1004 357 1024 l 635 31 q 636 22 636 26 q 613 0 636 0 q 586 18 590 0 m 338 918 l 164 296 l 510 296 l 338 918 m 442 1321 l 488 1321 q 442 1232 488 1269 q 336 1194 396 1194 q 230 1232 275 1194 q 185 1321 185 1269 l 229 1321 q 260 1257 229 1283 q 336 1231 292 1231 q 410 1257 379 1231 q 442 1321 442 1283 z "},"ă":{"ha":586,"x_min":47,"x_max":497,"o":"m 121 656 l 250 656 q 438 588 378 656 q 497 410 497 521 l 497 25 q 474 0 497 0 q 456 7 464 0 q 449 25 449 14 l 449 97 q 240 -8 357 -8 q 101 38 154 -8 q 47 175 47 85 q 130 319 47 279 q 371 358 213 358 l 449 358 l 449 410 q 398 551 449 494 q 250 607 347 607 l 121 607 q 103 615 111 607 q 96 632 96 622 q 121 656 96 656 m 449 193 l 449 310 l 372 310 q 267 306 310 310 q 182 288 225 301 q 117 247 139 275 q 96 175 96 218 q 135 74 96 108 q 239 40 175 40 q 381 93 314 40 q 449 193 449 146 m 392 961 l 438 961 q 392 872 438 910 q 286 835 346 835 q 180 872 225 835 q 135 961 135 910 l 179 961 q 210 897 179 924 q 286 871 242 871 q 360 897 329 871 q 392 961 392 924 z "},"Ą":{"ha":674,"x_min":38,"x_max":636,"o":"m 586 18 l 524 246 l 150 246 l 88 18 q 61 0 83 0 q 38 22 38 0 q 39 31 38 26 l 313 1004 q 338 1024 318 1024 q 364 1004 357 1024 l 635 31 q 636 22 636 26 q 613 0 636 0 q 586 18 590 0 m 338 918 l 164 296 l 510 296 l 338 918 m 611 -179 q 636 -197 636 -179 q 604 -215 636 -215 q 520 -194 557 -215 q 483 -122 483 -172 q 588 25 483 -46 l 624 3 q 549 -58 574 -31 q 524 -119 524 -85 q 611 -179 524 -179 z "},"ą":{"ha":586,"x_min":47,"x_max":497,"o":"m 121 656 l 250 656 q 438 588 378 656 q 497 410 497 521 l 497 25 q 474 0 497 0 q 456 7 464 0 q 449 25 449 14 l 449 97 q 240 -8 357 -8 q 101 38 154 -8 q 47 175 47 85 q 130 319 47 279 q 371 358 213 358 l 449 358 l 449 410 q 398 551 449 494 q 250 607 347 607 l 121 607 q 103 615 111 607 q 96 632 96 622 q 121 656 96 656 m 449 193 l 449 310 l 372 310 q 267 306 310 310 q 182 288 225 301 q 117 247 139 275 q 96 175 96 218 q 135 74 96 108 q 239 40 175 40 q 381 93 314 40 q 449 193 449 146 m 472 -179 q 497 -197 497 -179 q 465 -215 497 -215 q 381 -194 418 -215 q 344 -122 344 -172 q 449 25 344 -46 l 485 3 q 410 -58 435 -31 q 385 -119 385 -85 q 472 -179 385 -179 z "},"Ć":{"ha":693,"x_min":97,"x_max":640,"o":"m 147 729 l 147 278 q 204 101 147 160 q 368 42 261 42 q 520 87 463 42 q 590 224 578 132 q 615 249 592 249 q 640 221 640 249 q 562 56 632 119 q 368 -8 492 -8 q 171 60 244 -8 q 97 278 97 129 l 97 729 q 171 947 97 878 q 368 1015 244 1015 q 562 951 492 1015 q 640 786 632 888 q 615 758 640 758 q 590 783 592 758 q 520 920 578 875 q 368 965 463 965 q 204 906 261 965 q 147 729 147 847 m 447 1274 l 315 1199 q 303 1194 310 1194 q 284 1202 292 1194 q 276 1219 276 1210 q 288 1238 276 1232 l 429 1321 q 439 1324 435 1324 q 461 1299 461 1324 q 447 1274 461 1282 z "},"ć":{"ha":564,"x_min":71,"x_max":515,"o":"m 325 -8 q 135 61 200 -8 q 71 244 71 131 l 71 411 q 135 594 71 524 q 325 664 200 664 q 461 636 407 664 q 515 582 515 608 q 507 565 515 572 q 490 558 499 558 q 464 572 482 558 q 410 601 446 586 q 325 615 375 615 q 173 561 226 615 q 119 411 119 507 l 119 244 q 173 94 119 149 q 326 40 226 40 q 412 55 378 40 q 463 83 446 69 q 490 97 481 97 q 508 90 500 97 q 515 74 515 83 q 461 19 515 46 q 325 -8 407 -8 m 371 914 l 239 839 q 226 835 233 835 q 208 842 215 835 q 200 860 200 850 q 211 878 200 872 l 353 961 q 363 964 358 964 q 385 939 385 964 q 371 914 385 922 z "},"Ĉ":{"ha":693,"x_min":97,"x_max":640,"o":"m 147 729 l 147 278 q 204 101 147 160 q 368 42 261 42 q 520 87 463 42 q 590 224 578 132 q 615 249 592 249 q 640 221 640 249 q 562 56 632 119 q 368 -8 492 -8 q 171 60 244 -8 q 97 278 97 129 l 97 729 q 171 947 97 878 q 368 1015 244 1015 q 562 951 492 1015 q 640 786 632 888 q 615 758 640 758 q 590 783 592 758 q 520 920 578 875 q 368 965 463 965 q 204 906 261 965 q 147 729 147 847 m 368 1275 l 224 1197 q 218 1195 222 1197 q 213 1193 214 1193 q 195 1201 203 1193 q 188 1219 188 1208 q 200 1239 188 1233 l 344 1317 q 368 1324 356 1324 q 392 1317 381 1324 l 536 1240 q 549 1217 549 1233 q 542 1201 549 1207 q 525 1194 535 1194 l 513 1199 l 368 1275 z "},"ĉ":{"ha":564,"x_min":71,"x_max":515,"o":"m 325 -8 q 135 61 200 -8 q 71 244 71 131 l 71 411 q 135 594 71 524 q 325 664 200 664 q 461 636 407 664 q 515 582 515 608 q 507 565 515 572 q 490 558 499 558 q 464 572 482 558 q 410 601 446 586 q 325 615 375 615 q 173 561 226 615 q 119 411 119 507 l 119 244 q 173 94 119 149 q 326 40 226 40 q 412 55 378 40 q 463 83 446 69 q 490 97 481 97 q 508 90 500 97 q 515 74 515 83 q 461 19 515 46 q 325 -8 407 -8 m 293 915 l 149 838 q 143 835 147 838 q 138 833 139 833 q 120 841 128 833 q 113 860 113 849 q 125 879 113 872 l 269 957 q 293 964 281 964 q 317 957 306 964 l 461 881 q 474 857 474 875 q 467 841 474 847 q 450 835 460 835 l 438 839 l 293 915 z "},"Ċ":{"ha":693,"x_min":97,"x_max":640,"o":"m 147 729 l 147 278 q 204 101 147 160 q 368 42 261 42 q 520 87 463 42 q 590 224 578 132 q 615 249 592 249 q 640 221 640 249 q 562 56 632 119 q 368 -8 492 -8 q 171 60 244 -8 q 97 278 97 129 l 97 729 q 171 947 97 878 q 368 1015 244 1015 q 562 951 492 1015 q 640 786 632 888 q 615 758 640 758 q 590 783 592 758 q 520 920 578 875 q 368 965 463 965 q 204 906 261 965 q 147 729 147 847 m 369 1281 q 411 1263 393 1281 q 429 1221 429 1244 q 411 1179 429 1197 q 369 1161 393 1161 q 326 1179 344 1161 q 308 1221 308 1197 q 326 1263 308 1244 q 369 1281 344 1281 z "},"ċ":{"ha":564,"x_min":71,"x_max":515,"o":"m 325 -8 q 135 61 200 -8 q 71 244 71 131 l 71 411 q 135 594 71 524 q 325 664 200 664 q 461 636 407 664 q 515 582 515 608 q 507 565 515 572 q 490 558 499 558 q 464 572 482 558 q 410 601 446 586 q 325 615 375 615 q 173 561 226 615 q 119 411 119 507 l 119 244 q 173 94 119 149 q 326 40 226 40 q 412 55 378 40 q 463 83 446 69 q 490 97 481 97 q 508 90 500 97 q 515 74 515 83 q 461 19 515 46 q 325 -8 407 -8 m 293 921 q 335 903 317 921 q 353 861 353 885 q 335 819 353 838 q 293 801 317 801 q 250 819 268 801 q 232 861 232 838 q 250 903 232 885 q 293 921 268 921 z "},"Č":{"ha":693,"x_min":97,"x_max":640,"o":"m 147 729 l 147 278 q 204 101 147 160 q 368 42 261 42 q 520 87 463 42 q 590 224 578 132 q 615 249 592 249 q 640 221 640 249 q 562 56 632 119 q 368 -8 492 -8 q 171 60 244 -8 q 97 278 97 129 l 97 729 q 171 947 97 878 q 368 1015 244 1015 q 562 951 492 1015 q 640 786 632 888 q 615 758 640 758 q 590 783 592 758 q 520 920 578 875 q 368 965 463 965 q 204 906 261 965 q 147 729 147 847 m 338 1179 l 185 1319 q 172 1343 172 1332 q 192 1363 172 1363 q 217 1351 206 1363 l 367 1213 l 517 1351 q 542 1363 528 1363 q 561 1343 561 1363 q 549 1319 561 1332 l 396 1179 q 367 1167 381 1167 q 338 1179 353 1167 z "},"č":{"ha":564,"x_min":71,"x_max":515,"o":"m 325 -8 q 135 61 200 -8 q 71 244 71 131 l 71 411 q 135 594 71 524 q 325 664 200 664 q 461 636 407 664 q 515 582 515 608 q 507 565 515 572 q 490 558 499 558 q 464 572 482 558 q 410 601 446 586 q 325 615 375 615 q 173 561 226 615 q 119 411 119 507 l 119 244 q 173 94 119 149 q 326 40 226 40 q 412 55 378 40 q 463 83 446 69 q 490 97 481 97 q 508 90 500 97 q 515 74 515 83 q 461 19 515 46 q 325 -8 407 -8 m 263 819 l 110 960 q 97 983 97 972 q 117 1003 97 1003 q 142 992 131 1003 l 292 853 l 442 992 q 467 1003 453 1003 q 486 983 486 1003 q 474 960 486 972 l 321 819 q 292 807 306 807 q 263 819 278 807 z "},"Ď":{"ha":756,"x_min":115,"x_max":658,"o":"m 140 1015 l 386 1015 q 584 947 510 1015 q 658 729 658 878 l 658 286 q 584 69 658 138 q 386 0 510 0 l 140 0 q 115 24 115 0 l 115 992 q 140 1015 115 1015 m 386 965 l 165 965 l 165 50 l 386 50 q 551 109 493 50 q 608 286 608 168 l 608 729 q 551 906 608 847 q 386 965 493 965 m 356 1179 l 203 1319 q 190 1343 190 1332 q 210 1363 190 1363 q 235 1351 224 1363 l 385 1213 l 535 1351 q 560 1363 546 1363 q 579 1343 579 1363 q 567 1319 579 1332 l 414 1179 q 385 1167 399 1167 q 356 1179 371 1167 z "},"ď":{"ha":650,"x_min":69,"x_max":747,"o":"m 531 1067 q 554 1043 554 1067 l 554 25 q 547 8 554 15 q 531 0 540 0 q 513 8 521 0 q 506 25 506 15 l 506 97 q 430 22 482 53 q 317 -8 378 -8 q 144 68 218 -8 q 69 244 69 144 l 69 414 q 143 590 69 517 q 319 664 217 664 q 506 558 446 664 l 506 1043 q 531 1067 506 1067 m 118 414 l 118 244 q 177 103 118 165 q 314 40 236 40 q 447 95 389 40 q 506 193 506 150 l 506 414 q 448 560 506 504 q 315 615 390 615 q 177 553 236 615 q 118 414 118 492 m 692 1015 q 747 939 747 1015 q 728 819 747 883 q 688 756 710 756 q 675 775 675 756 q 686 822 675 785 q 697 908 697 858 q 638 957 638 908 q 692 1015 638 1015 z "},"Ē":{"ha":693,"x_min":114,"x_max":657,"o":"m 164 965 l 164 533 l 386 533 q 410 507 410 533 q 386 483 410 483 l 164 483 l 164 50 l 633 50 q 657 24 657 50 q 633 0 657 0 l 139 0 q 114 25 114 0 l 114 990 q 139 1015 114 1015 l 633 1015 q 657 992 657 1015 q 633 965 657 965 l 164 965 m 208 1269 q 232 1294 208 1294 l 538 1294 q 555 1287 547 1294 q 563 1269 563 1279 q 555 1253 563 1260 q 538 1246 547 1246 l 232 1246 q 208 1269 208 1246 z "},"ē":{"ha":617,"x_min":69,"x_max":563,"o":"m 317 664 q 490 592 417 664 q 563 414 563 521 q 554 356 563 378 q 526 324 546 333 q 491 312 507 314 q 447 310 475 310 l 118 310 l 118 244 q 183 96 118 151 q 353 40 249 40 q 439 55 404 40 q 491 83 474 69 q 517 97 508 97 q 534 89 526 97 q 542 72 542 81 q 519 40 542 58 q 451 6 497 21 q 350 -8 406 -8 q 148 62 226 -8 q 69 244 69 132 l 69 418 q 142 591 69 518 q 317 664 215 664 m 118 358 l 431 358 q 498 368 482 358 q 514 410 514 378 q 458 552 514 489 q 317 615 403 615 q 176 556 233 615 q 118 418 118 497 l 118 358 m 139 910 q 163 935 139 935 l 468 935 q 485 927 478 935 q 493 910 493 919 q 485 893 493 900 q 468 886 478 886 l 163 886 q 139 910 139 886 z "},"Ĕ":{"ha":693,"x_min":114,"x_max":657,"o":"m 164 965 l 164 533 l 386 533 q 410 507 410 533 q 386 483 410 483 l 164 483 l 164 50 l 633 50 q 657 24 657 50 q 633 0 657 0 l 139 0 q 114 25 114 0 l 114 990 q 139 1015 114 1015 l 633 1015 q 657 992 657 1015 q 633 965 657 965 l 164 965 m 490 1321 l 536 1321 q 490 1232 536 1269 q 385 1194 444 1194 q 278 1232 324 1194 q 233 1321 233 1269 l 278 1321 q 309 1257 278 1283 q 385 1231 340 1231 q 459 1257 428 1231 q 490 1321 490 1283 z "},"ĕ":{"ha":617,"x_min":69,"x_max":563,"o":"m 317 664 q 490 592 417 664 q 563 414 563 521 q 554 356 563 378 q 526 324 546 333 q 491 312 507 314 q 447 310 475 310 l 118 310 l 118 244 q 183 96 118 151 q 353 40 249 40 q 439 55 404 40 q 491 83 474 69 q 517 97 508 97 q 534 89 526 97 q 542 72 542 81 q 519 40 542 58 q 451 6 497 21 q 350 -8 406 -8 q 148 62 226 -8 q 69 244 69 132 l 69 418 q 142 591 69 518 q 317 664 215 664 m 118 358 l 431 358 q 498 368 482 358 q 514 410 514 378 q 458 552 514 489 q 317 615 403 615 q 176 556 233 615 q 118 418 118 497 l 118 358 m 421 961 l 467 961 q 421 872 467 910 q 315 835 375 835 q 209 872 254 835 q 164 961 164 910 l 208 961 q 240 897 208 924 q 315 871 271 871 q 390 897 358 871 q 421 961 421 924 z "},"Ė":{"ha":693,"x_min":114,"x_max":657,"o":"m 164 965 l 164 533 l 386 533 q 410 507 410 533 q 386 483 410 483 l 164 483 l 164 50 l 633 50 q 657 24 657 50 q 633 0 657 0 l 139 0 q 114 25 114 0 l 114 990 q 139 1015 114 1015 l 633 1015 q 657 992 657 1015 q 633 965 657 965 l 164 965 m 386 1281 q 428 1263 410 1281 q 446 1221 446 1244 q 428 1179 446 1197 q 386 1161 410 1161 q 343 1179 361 1161 q 325 1221 325 1197 q 343 1263 325 1244 q 386 1281 361 1281 z "},"ė":{"ha":617,"x_min":69,"x_max":563,"o":"m 317 664 q 490 592 417 664 q 563 414 563 521 q 554 356 563 378 q 526 324 546 333 q 491 312 507 314 q 447 310 475 310 l 118 310 l 118 244 q 183 96 118 151 q 353 40 249 40 q 439 55 404 40 q 491 83 474 69 q 517 97 508 97 q 534 89 526 97 q 542 72 542 81 q 519 40 542 58 q 451 6 497 21 q 350 -8 406 -8 q 148 62 226 -8 q 69 244 69 132 l 69 418 q 142 591 69 518 q 317 664 215 664 m 118 358 l 431 358 q 498 368 482 358 q 514 410 514 378 q 458 552 514 489 q 317 615 403 615 q 176 556 233 615 q 118 418 118 497 l 118 358 m 317 921 q 358 903 340 921 q 376 861 376 885 q 358 819 376 838 q 317 801 340 801 q 274 819 292 801 q 256 861 256 838 q 274 903 256 885 q 317 921 292 921 z "},"Ę":{"ha":693,"x_min":114,"x_max":657,"o":"m 164 965 l 164 533 l 386 533 q 410 507 410 533 q 386 483 410 483 l 164 483 l 164 50 l 633 50 q 657 24 657 50 q 633 0 657 0 l 139 0 q 114 25 114 0 l 114 990 q 139 1015 114 1015 l 633 1015 q 657 992 657 1015 q 633 965 657 965 l 164 965 m 632 -179 q 657 -197 657 -179 q 625 -215 657 -215 q 541 -194 578 -215 q 504 -122 504 -172 q 608 25 504 -46 l 644 3 q 569 -58 594 -31 q 544 -119 544 -85 q 632 -179 544 -179 z "},"ę":{"ha":617,"x_min":69,"x_max":563,"o":"m 317 664 q 490 592 417 664 q 563 414 563 521 q 554 356 563 378 q 526 324 546 333 q 491 312 507 314 q 447 310 475 310 l 118 310 l 118 244 q 183 96 118 151 q 353 40 249 40 q 439 55 404 40 q 491 83 474 69 q 517 97 508 97 q 534 89 526 97 q 542 72 542 81 q 519 40 542 58 q 451 6 497 21 q 350 -8 406 -8 q 148 62 226 -8 q 69 244 69 132 l 69 418 q 142 591 69 518 q 317 664 215 664 m 118 358 l 431 358 q 498 368 482 358 q 514 410 514 378 q 458 552 514 489 q 317 615 403 615 q 176 556 233 615 q 118 418 118 497 l 118 358 m 500 -144 q 525 -162 525 -144 q 493 -181 525 -181 q 409 -159 446 -181 q 372 -87 372 -137 q 476 60 372 -11 l 513 38 q 438 -23 463 4 q 413 -85 413 -50 q 500 -144 413 -144 z "},"Ě":{"ha":693,"x_min":114,"x_max":657,"o":"m 164 965 l 164 533 l 386 533 q 410 507 410 533 q 386 483 410 483 l 164 483 l 164 50 l 633 50 q 657 24 657 50 q 633 0 657 0 l 139 0 q 114 25 114 0 l 114 990 q 139 1015 114 1015 l 633 1015 q 657 992 657 1015 q 633 965 657 965 l 164 965 m 354 1179 l 201 1319 q 189 1343 189 1332 q 208 1363 189 1363 q 233 1351 222 1363 l 383 1213 l 533 1351 q 558 1363 544 1363 q 578 1343 578 1363 q 565 1319 578 1332 l 413 1179 q 383 1167 397 1167 q 354 1179 369 1167 z "},"ě":{"ha":617,"x_min":69,"x_max":563,"o":"m 317 664 q 490 592 417 664 q 563 414 563 521 q 554 356 563 378 q 526 324 546 333 q 491 312 507 314 q 447 310 475 310 l 118 310 l 118 244 q 183 96 118 151 q 353 40 249 40 q 439 55 404 40 q 491 83 474 69 q 517 97 508 97 q 534 89 526 97 q 542 72 542 81 q 519 40 542 58 q 451 6 497 21 q 350 -8 406 -8 q 148 62 226 -8 q 69 244 69 132 l 69 418 q 142 591 69 518 q 317 664 215 664 m 118 358 l 431 358 q 498 368 482 358 q 514 410 514 378 q 458 552 514 489 q 317 615 403 615 q 176 556 233 615 q 118 418 118 497 l 118 358 m 285 819 l 132 960 q 119 983 119 972 q 139 1003 119 1003 q 164 992 153 1003 l 314 853 l 464 992 q 489 1003 475 1003 q 508 983 508 1003 q 496 960 508 972 l 343 819 q 314 807 328 807 q 285 819 300 807 z "},"Ĝ":{"ha":722,"x_min":97,"x_max":640,"o":"m 590 483 l 369 483 q 346 508 346 483 q 369 533 346 533 l 617 533 q 640 507 640 533 l 640 278 q 566 60 640 129 q 368 -8 492 -8 q 171 60 244 -8 q 97 278 97 129 l 97 729 q 171 947 97 878 q 368 1015 244 1015 q 562 951 492 1015 q 640 786 632 888 q 615 758 640 758 q 590 783 592 758 q 520 920 578 875 q 368 965 463 965 q 204 906 261 965 q 147 729 147 847 l 147 278 q 204 101 147 160 q 368 42 261 42 q 533 101 475 42 q 590 278 590 160 l 590 483 m 368 1275 l 224 1197 q 218 1195 222 1197 q 213 1193 214 1193 q 195 1201 203 1193 q 188 1219 188 1208 q 200 1239 188 1233 l 344 1317 q 368 1324 356 1324 q 392 1317 381 1324 l 536 1240 q 549 1217 549 1233 q 542 1201 549 1207 q 525 1194 535 1194 l 513 1199 l 368 1275 z "},"ĝ":{"ha":625,"x_min":44,"x_max":608,"o":"m 306 664 q 471 597 407 664 q 527 658 489 635 q 608 682 565 682 l 608 628 q 494 567 524 628 q 531 436 531 511 l 531 374 q 467 208 531 274 q 306 143 404 143 q 190 172 240 143 q 135 106 135 147 q 167 58 135 75 q 249 36 200 40 q 354 23 297 32 q 460 1 411 14 q 541 -49 508 -12 q 574 -142 574 -85 q 504 -280 574 -231 q 314 -329 435 -329 q 118 -281 192 -329 q 44 -150 44 -232 q 171 4 44 -40 q 86 103 86 28 q 154 199 86 167 q 82 374 82 263 l 82 436 q 144 601 82 538 q 306 664 206 664 m 482 374 l 482 436 q 435 565 482 514 q 306 615 388 615 q 178 565 225 615 q 131 436 131 514 l 131 375 q 178 243 131 294 q 307 192 225 192 q 434 243 386 192 q 482 374 482 294 m 525 -143 q 509 -91 525 -114 q 472 -56 493 -68 q 416 -33 451 -43 q 356 -20 381 -24 q 293 -12 332 -17 q 243 -7 254 -8 q 137 -61 181 -25 q 93 -149 93 -97 q 152 -244 93 -208 q 304 -281 211 -281 q 464 -242 403 -281 q 525 -143 525 -203 m 326 915 l 182 838 q 176 835 181 838 q 171 833 172 833 q 153 841 161 833 q 146 860 146 849 q 158 879 146 872 l 303 957 q 326 964 314 964 q 350 957 339 964 l 494 881 q 507 857 507 875 q 500 841 507 847 q 483 835 493 835 l 471 839 l 326 915 z "},"Ğ":{"ha":722,"x_min":97,"x_max":640,"o":"m 590 483 l 369 483 q 346 508 346 483 q 369 533 346 533 l 617 533 q 640 507 640 533 l 640 278 q 566 60 640 129 q 368 -8 492 -8 q 171 60 244 -8 q 97 278 97 129 l 97 729 q 171 947 97 878 q 368 1015 244 1015 q 562 951 492 1015 q 640 786 632 888 q 615 758 640 758 q 590 783 592 758 q 520 920 578 875 q 368 965 463 965 q 204 906 261 965 q 147 729 147 847 l 147 278 q 204 101 147 160 q 368 42 261 42 q 533 101 475 42 q 590 278 590 160 l 590 483 m 474 1321 l 519 1321 q 474 1232 519 1269 q 368 1194 428 1194 q 262 1232 307 1194 q 217 1321 217 1269 l 261 1321 q 292 1257 261 1283 q 368 1231 324 1231 q 442 1257 411 1231 q 474 1321 474 1283 z "},"ğ":{"ha":625,"x_min":44,"x_max":608,"o":"m 306 664 q 471 597 407 664 q 527 658 489 635 q 608 682 565 682 l 608 628 q 494 567 524 628 q 531 436 531 511 l 531 374 q 467 208 531 274 q 306 143 404 143 q 190 172 240 143 q 135 106 135 147 q 167 58 135 75 q 249 36 200 40 q 354 23 297 32 q 460 1 411 14 q 541 -49 508 -12 q 574 -142 574 -85 q 504 -280 574 -231 q 314 -329 435 -329 q 118 -281 192 -329 q 44 -150 44 -232 q 171 4 44 -40 q 86 103 86 28 q 154 199 86 167 q 82 374 82 263 l 82 436 q 144 601 82 538 q 306 664 206 664 m 482 374 l 482 436 q 435 565 482 514 q 306 615 388 615 q 178 565 225 615 q 131 436 131 514 l 131 375 q 178 243 131 294 q 307 192 225 192 q 434 243 386 192 q 482 374 482 294 m 525 -143 q 509 -91 525 -114 q 472 -56 493 -68 q 416 -33 451 -43 q 356 -20 381 -24 q 293 -12 332 -17 q 243 -7 254 -8 q 137 -61 181 -25 q 93 -149 93 -97 q 152 -244 93 -208 q 304 -281 211 -281 q 464 -242 403 -281 q 525 -143 525 -203 m 432 961 l 478 961 q 432 872 478 910 q 326 835 386 835 q 220 872 265 835 q 175 961 175 910 l 219 961 q 251 897 219 924 q 326 871 282 871 q 401 897 369 871 q 432 961 432 924 z "},"Ġ":{"ha":722,"x_min":97,"x_max":640,"o":"m 590 483 l 369 483 q 346 508 346 483 q 369 533 346 533 l 617 533 q 640 507 640 533 l 640 278 q 566 60 640 129 q 368 -8 492 -8 q 171 60 244 -8 q 97 278 97 129 l 97 729 q 171 947 97 878 q 368 1015 244 1015 q 562 951 492 1015 q 640 786 632 888 q 615 758 640 758 q 590 783 592 758 q 520 920 578 875 q 368 965 463 965 q 204 906 261 965 q 147 729 147 847 l 147 278 q 204 101 147 160 q 368 42 261 42 q 533 101 475 42 q 590 278 590 160 l 590 483 m 369 1281 q 411 1263 393 1281 q 429 1221 429 1244 q 411 1179 429 1197 q 369 1161 393 1161 q 326 1179 344 1161 q 308 1221 308 1197 q 326 1263 308 1244 q 369 1281 344 1281 z "},"ġ":{"ha":625,"x_min":44,"x_max":608,"o":"m 306 664 q 471 597 407 664 q 527 658 489 635 q 608 682 565 682 l 608 628 q 494 567 524 628 q 531 436 531 511 l 531 374 q 467 208 531 274 q 306 143 404 143 q 190 172 240 143 q 135 106 135 147 q 167 58 135 75 q 249 36 200 40 q 354 23 297 32 q 460 1 411 14 q 541 -49 508 -12 q 574 -142 574 -85 q 504 -280 574 -231 q 314 -329 435 -329 q 118 -281 192 -329 q 44 -150 44 -232 q 171 4 44 -40 q 86 103 86 28 q 154 199 86 167 q 82 374 82 263 l 82 436 q 144 601 82 538 q 306 664 206 664 m 482 374 l 482 436 q 435 565 482 514 q 306 615 388 615 q 178 565 225 615 q 131 436 131 514 l 131 375 q 178 243 131 294 q 307 192 225 192 q 434 243 386 192 q 482 374 482 294 m 525 -143 q 509 -91 525 -114 q 472 -56 493 -68 q 416 -33 451 -43 q 356 -20 381 -24 q 293 -12 332 -17 q 243 -7 254 -8 q 137 -61 181 -25 q 93 -149 93 -97 q 152 -244 93 -208 q 304 -281 211 -281 q 464 -242 403 -281 q 525 -143 525 -203 m 326 921 q 368 903 350 921 q 386 861 386 885 q 368 819 386 838 q 326 801 350 801 q 283 819 301 801 q 265 861 265 838 q 283 903 265 885 q 326 921 301 921 z "},"Ĩ":{"ha":278,"x_min":-65,"x_max":344,"o":"m 114 25 l 114 992 q 139 1015 114 1015 q 164 992 164 1015 l 164 25 q 139 0 164 0 q 114 25 114 0 m 235 1267 q 280 1278 263 1267 q 307 1300 297 1289 q 325 1311 317 1311 q 344 1290 344 1311 q 305 1240 344 1261 q 228 1219 265 1219 q 142 1245 196 1219 q 49 1271 89 1271 q 3 1259 22 1271 q -28 1235 -17 1247 q -47 1222 -40 1222 q -65 1246 -65 1222 q -23 1295 -65 1272 q 58 1318 19 1318 q 145 1292 92 1318 q 235 1267 199 1267 z "},"ĩ":{"ha":240,"x_min":-86,"x_max":324,"o":"m 119 656 q 144 632 144 656 l 144 25 q 137 8 144 15 q 119 0 129 0 q 103 8 110 0 q 96 25 96 15 l 96 632 q 103 649 96 642 q 119 656 110 656 m 214 907 q 259 918 242 907 q 286 940 276 929 q 304 951 296 951 q 324 931 324 951 q 284 881 324 901 q 207 860 244 860 q 122 885 175 860 q 28 911 68 911 q -18 899 1 911 q -49 874 -37 886 q -68 863 -61 863 q -86 886 -86 863 q -44 935 -86 913 q 38 958 -1 958 q 124 933 71 958 q 214 907 178 907 z "},"Ī":{"ha":278,"x_min":-36,"x_max":318,"o":"m 114 25 l 114 992 q 139 1015 114 1015 q 164 992 164 1015 l 164 25 q 139 0 164 0 q 114 25 114 0 m -36 1269 q -12 1294 -36 1294 l 293 1294 q 310 1287 303 1294 q 318 1269 318 1279 q 310 1253 318 1260 q 293 1246 303 1246 l -12 1246 q -36 1269 -36 1246 z "},"ī":{"ha":240,"x_min":-57,"x_max":297,"o":"m 119 656 q 144 632 144 656 l 144 25 q 137 8 144 15 q 119 0 129 0 q 103 8 110 0 q 96 25 96 15 l 96 632 q 103 649 96 642 q 119 656 110 656 m -57 910 q -33 935 -57 935 l 272 935 q 290 927 282 935 q 297 910 297 919 q 290 893 297 900 q 272 886 282 886 l -33 886 q -57 910 -57 886 z "},"Į":{"ha":282,"x_min":21,"x_max":174,"o":"m 117 25 l 117 992 q 142 1015 117 1015 q 167 992 167 1015 l 167 25 q 142 0 167 0 q 117 25 117 0 m 149 -172 q 174 -190 174 -172 q 142 -208 174 -208 q 58 -187 94 -208 q 21 -115 21 -165 q 125 32 21 -39 l 161 10 q 86 -51 111 -24 q 61 -112 61 -78 q 149 -172 61 -172 z "},"į":{"ha":243,"x_min":-6,"x_max":182,"o":"m 122 656 q 147 632 147 656 l 147 25 q 140 8 147 15 q 122 0 132 0 q 106 8 113 0 q 99 25 99 15 l 99 632 q 106 649 99 642 q 122 656 113 656 m 122 976 q 164 958 146 976 q 182 917 182 940 q 164 875 182 893 q 122 857 146 857 q 79 875 97 857 q 61 917 61 893 q 79 958 61 940 q 122 976 97 976 m 122 -178 q 147 -196 147 -178 q 115 -214 147 -214 q 31 -192 68 -214 q -6 -121 -6 -171 q 99 26 -6 -44 l 135 4 q 60 -56 85 -29 q 35 -118 35 -83 q 122 -178 35 -178 z "},"İ":{"ha":278,"x_min":79,"x_max":200,"o":"m 114 25 l 114 992 q 139 1015 114 1015 q 164 992 164 1015 l 164 25 q 139 0 164 0 q 114 25 114 0 m 140 1281 q 182 1263 164 1281 q 200 1221 200 1244 q 182 1179 200 1197 q 140 1161 164 1161 q 97 1179 115 1161 q 79 1221 79 1197 q 97 1263 79 1244 q 140 1281 115 1281 z "},"ı":{"ha":240,"x_min":96,"x_max":144,"o":"m 119 656 q 144 632 144 656 l 144 25 q 137 8 144 15 q 119 0 129 0 q 103 8 110 0 q 96 25 96 15 l 96 632 q 103 649 96 642 q 119 656 110 656 z "},"Ĺ":{"ha":626,"x_min":114,"x_max":607,"o":"m 586 0 l 139 0 q 114 25 114 0 l 114 992 q 139 1015 114 1015 q 164 992 164 1015 l 164 50 l 586 50 q 607 25 607 50 q 586 0 607 0 m 439 1274 l 307 1199 q 294 1194 301 1194 q 276 1202 283 1194 q 268 1219 268 1210 q 279 1238 268 1232 l 421 1321 q 431 1324 426 1324 q 453 1299 453 1324 q 439 1274 453 1282 z "},"ĺ":{"ha":240,"x_min":28,"x_max":213,"o":"m 119 1067 q 144 1043 144 1067 l 144 25 q 137 8 144 15 q 119 0 129 0 q 103 8 110 0 q 96 25 96 15 l 96 1043 q 119 1067 96 1067 m 199 1206 l 67 1131 q 54 1126 61 1126 q 35 1134 43 1126 q 28 1151 28 1142 q 39 1169 28 1164 l 181 1253 q 190 1256 186 1256 q 213 1231 213 1256 q 199 1206 213 1214 z "},"Ľ":{"ha":626,"x_min":114,"x_max":607,"o":"m 586 0 l 139 0 q 114 25 114 0 l 114 992 q 139 1015 114 1015 q 164 992 164 1015 l 164 50 l 586 50 q 607 25 607 50 q 586 0 607 0 m 386 1015 q 442 939 442 1015 q 423 819 442 883 q 382 756 404 756 q 369 775 369 756 q 381 822 369 785 q 392 908 392 858 q 332 957 332 908 q 386 1015 332 1015 z "},"ľ":{"ha":240,"x_min":96,"x_max":346,"o":"m 119 1067 q 144 1043 144 1067 l 144 25 q 137 8 144 15 q 119 0 129 0 q 103 8 110 0 q 96 25 96 15 l 96 1043 q 119 1067 96 1067 m 290 1015 q 346 939 346 1015 q 327 819 346 883 q 286 756 308 756 q 274 775 274 756 q 285 822 274 785 q 296 908 296 858 q 236 957 236 908 q 290 1015 236 1015 z "},"Ł":{"ha":636,"x_min":8,"x_max":617,"o":"m 32 371 q 16 379 24 371 q 8 397 8 388 q 21 417 8 411 l 333 597 q 346 600 338 600 q 363 594 356 600 q 369 578 369 588 q 357 556 369 563 l 44 375 q 32 371 39 371 m 596 0 l 149 0 q 124 25 124 0 l 124 992 q 149 1015 124 1015 q 174 992 174 1015 l 174 50 l 596 50 q 617 25 617 50 q 596 0 617 0 z "},"ł":{"ha":390,"x_min":15,"x_max":376,"o":"m 39 371 q 23 379 31 371 q 15 397 15 388 q 28 417 15 411 l 340 597 q 353 600 344 600 q 369 594 363 600 q 376 578 376 588 q 364 556 376 563 l 51 375 q 39 371 44 371 m 185 1067 q 210 1043 210 1067 l 210 25 q 202 8 210 15 q 185 0 194 0 q 168 8 175 0 q 161 25 161 15 l 161 1043 q 185 1067 161 1067 z "},"Ń":{"ha":774,"x_min":115,"x_max":658,"o":"m 183 965 l 608 124 l 608 992 q 633 1015 608 1015 q 658 992 658 1015 l 658 25 q 633 0 658 0 q 593 50 618 0 l 165 893 l 165 25 q 140 0 165 0 q 115 25 115 0 l 115 992 q 140 1015 115 1015 q 183 965 156 1015 m 465 1274 l 333 1199 q 321 1194 328 1194 q 302 1202 310 1194 q 294 1219 294 1210 q 306 1238 294 1232 l 447 1321 q 457 1324 453 1324 q 479 1299 479 1324 q 465 1274 479 1282 z "},"ń":{"ha":663,"x_min":85,"x_max":578,"o":"m 331 664 q 505 589 432 664 q 578 414 578 514 l 578 25 q 570 8 578 15 q 553 0 563 0 q 536 8 543 0 q 529 25 529 15 l 529 414 q 471 554 529 493 q 331 615 413 615 q 192 554 250 615 q 133 414 133 493 l 133 24 q 126 7 133 14 q 108 0 118 0 q 92 7 99 0 q 85 24 85 14 l 85 414 q 158 589 85 514 q 331 664 231 664 m 410 914 l 278 839 q 265 835 272 835 q 247 842 254 835 q 239 860 239 850 q 250 878 239 872 l 392 961 q 401 964 397 964 q 424 939 424 964 q 410 914 424 922 z "},"Ň":{"ha":774,"x_min":115,"x_max":658,"o":"m 183 965 l 608 124 l 608 992 q 633 1015 608 1015 q 658 992 658 1015 l 658 25 q 633 0 658 0 q 593 50 618 0 l 165 893 l 165 25 q 140 0 165 0 q 115 25 115 0 l 115 992 q 140 1015 115 1015 q 183 965 156 1015 m 356 1179 l 203 1319 q 190 1343 190 1332 q 210 1363 190 1363 q 235 1351 224 1363 l 385 1213 l 535 1351 q 560 1363 546 1363 q 579 1343 579 1363 q 567 1319 579 1332 l 414 1179 q 385 1167 399 1167 q 356 1179 371 1167 z "},"ň":{"ha":663,"x_min":85,"x_max":578,"o":"m 331 664 q 505 589 432 664 q 578 414 578 514 l 578 25 q 570 8 578 15 q 553 0 563 0 q 536 8 543 0 q 529 25 529 15 l 529 414 q 471 554 529 493 q 331 615 413 615 q 192 554 250 615 q 133 414 133 493 l 133 24 q 126 7 133 14 q 108 0 118 0 q 92 7 99 0 q 85 24 85 14 l 85 414 q 158 589 85 514 q 331 664 231 664 m 300 819 l 147 960 q 135 983 135 972 q 154 1003 135 1003 q 179 992 168 1003 l 329 853 l 479 992 q 504 1003 490 1003 q 524 983 524 1003 q 511 960 524 972 l 358 819 q 329 807 343 807 q 300 819 315 807 z "},"Ō":{"ha":738,"x_min":97,"x_max":640,"o":"m 566 60 q 529 26 566 60 q 368 -8 492 -8 q 171 60 244 -8 q 97 278 97 129 l 97 729 q 171 947 97 878 q 368 1015 244 1015 q 566 947 492 1015 q 640 729 640 878 l 640 278 q 566 60 640 129 m 590 278 l 590 729 q 533 906 590 847 q 368 965 475 965 q 204 906 261 965 q 147 729 147 847 l 147 278 q 204 101 147 160 q 368 42 261 42 q 533 101 475 42 q 590 278 590 160 m 192 1269 q 215 1294 192 1294 l 521 1294 q 538 1287 531 1294 q 546 1269 546 1279 q 538 1253 546 1260 q 521 1246 531 1246 l 215 1246 q 192 1269 192 1246 z "},"ō":{"ha":632,"x_min":69,"x_max":563,"o":"m 142 589 q 179 626 142 589 q 315 664 215 664 q 489 590 415 664 q 563 414 563 517 l 563 244 q 488 68 563 144 q 315 -8 414 -8 q 143 68 217 -8 q 69 244 69 144 l 69 414 q 142 589 69 514 m 514 244 l 514 414 q 456 553 514 492 q 315 615 397 615 q 176 553 233 615 q 118 414 118 492 l 118 244 q 176 103 118 165 q 315 40 235 40 q 455 103 396 40 q 514 244 514 165 m 139 910 q 163 935 139 935 l 468 935 q 485 927 478 935 q 493 910 493 919 q 485 893 493 900 q 468 886 478 886 l 163 886 q 139 910 139 886 z "},"Ŏ":{"ha":738,"x_min":97,"x_max":640,"o":"m 566 60 q 529 26 566 60 q 368 -8 492 -8 q 171 60 244 -8 q 97 278 97 129 l 97 729 q 171 947 97 878 q 368 1015 244 1015 q 566 947 492 1015 q 640 729 640 878 l 640 278 q 566 60 640 129 m 590 278 l 590 729 q 533 906 590 847 q 368 965 475 965 q 204 906 261 965 q 147 729 147 847 l 147 278 q 204 101 147 160 q 368 42 261 42 q 533 101 475 42 q 590 278 590 160 m 474 1321 l 519 1321 q 474 1232 519 1269 q 368 1194 428 1194 q 262 1232 307 1194 q 217 1321 217 1269 l 261 1321 q 292 1257 261 1283 q 368 1231 324 1231 q 442 1257 411 1231 q 474 1321 474 1283 z "},"ŏ":{"ha":632,"x_min":69,"x_max":563,"o":"m 142 589 q 179 626 142 589 q 315 664 215 664 q 489 590 415 664 q 563 414 563 517 l 563 244 q 488 68 563 144 q 315 -8 414 -8 q 143 68 217 -8 q 69 244 69 144 l 69 414 q 142 589 69 514 m 514 244 l 514 414 q 456 553 514 492 q 315 615 397 615 q 176 553 233 615 q 118 414 118 492 l 118 244 q 176 103 118 165 q 315 40 235 40 q 455 103 396 40 q 514 244 514 165 m 421 961 l 467 961 q 421 872 467 910 q 315 835 375 835 q 209 872 254 835 q 164 961 164 910 l 208 961 q 240 897 208 924 q 315 871 271 871 q 390 897 358 871 q 421 961 421 924 z "},"Ő":{"ha":738,"x_min":97,"x_max":640,"o":"m 566 60 q 529 26 566 60 q 368 -8 492 -8 q 171 60 244 -8 q 97 278 97 129 l 97 729 q 171 947 97 878 q 368 1015 244 1015 q 566 947 492 1015 q 640 729 640 878 l 640 278 q 566 60 640 129 m 590 278 l 590 729 q 533 906 590 847 q 368 965 475 965 q 204 906 261 965 q 147 729 147 847 l 147 278 q 204 101 147 160 q 368 42 261 42 q 533 101 475 42 q 590 278 590 160 m 400 1274 l 268 1199 q 256 1194 261 1194 q 237 1202 244 1194 q 229 1219 229 1210 q 240 1238 229 1232 l 382 1321 q 392 1324 388 1324 q 414 1299 414 1324 q 400 1274 414 1282 m 604 1274 l 472 1199 q 460 1194 467 1194 q 441 1202 449 1194 q 433 1219 433 1210 q 444 1238 433 1232 l 586 1321 q 596 1324 592 1324 q 618 1299 618 1324 q 604 1274 618 1282 z "},"ő":{"ha":632,"x_min":69,"x_max":563,"o":"m 142 589 q 179 626 142 589 q 315 664 215 664 q 489 590 415 664 q 563 414 563 517 l 563 244 q 488 68 563 144 q 315 -8 414 -8 q 143 68 217 -8 q 69 244 69 144 l 69 414 q 142 589 69 514 m 514 244 l 514 414 q 456 553 514 492 q 315 615 397 615 q 176 553 233 615 q 118 414 118 492 l 118 244 q 176 103 118 165 q 315 40 235 40 q 455 103 396 40 q 514 244 514 165 m 329 914 l 197 839 q 185 835 192 835 q 166 842 174 835 q 158 860 158 850 q 169 878 158 872 l 311 961 q 321 964 317 964 q 343 939 343 964 q 329 914 343 922 m 533 914 l 401 839 q 389 835 394 835 q 370 842 378 835 q 363 860 363 850 q 374 878 363 872 l 515 961 q 525 964 521 964 q 547 939 547 964 q 533 914 547 922 z "},"Œ":{"ha":1168,"x_min":97,"x_max":1132,"o":"m 639 965 l 639 533 l 861 533 q 885 507 885 533 q 861 483 885 483 l 639 483 l 639 50 l 1108 50 q 1132 24 1132 50 q 1108 0 1132 0 l 617 0 q 592 25 592 0 l 592 92 q 368 -8 524 -8 q 171 60 244 -8 q 97 278 97 129 l 97 729 q 171 947 97 878 q 368 1015 244 1015 q 592 915 524 1015 l 592 990 q 617 1015 592 1015 l 1108 1015 q 1132 992 1132 1015 q 1108 965 1132 965 l 639 965 m 590 278 l 590 729 q 533 906 590 847 q 368 965 475 965 q 204 906 261 965 q 147 729 147 847 l 147 278 q 204 101 147 160 q 368 42 261 42 q 533 101 475 42 q 590 278 590 160 z "},"œ":{"ha":1061,"x_min":69,"x_max":1007,"o":"m 315 664 q 445 624 385 664 q 538 521 506 585 q 628 624 567 585 q 761 664 689 664 q 934 592 861 664 q 1007 417 1007 521 q 999 356 1007 379 q 972 324 990 333 q 937 312 953 314 q 892 310 921 310 l 563 310 l 563 244 q 628 95 563 150 q 801 40 694 40 q 884 55 851 40 q 933 83 917 69 q 960 97 950 97 q 986 69 986 97 q 928 19 986 47 q 793 -8 869 -8 q 635 31 703 -8 q 536 136 568 69 q 445 32 506 72 q 315 -8 385 -8 q 143 68 217 -8 q 69 244 69 144 l 69 414 q 142 589 69 514 q 315 664 215 664 m 514 244 l 514 414 q 456 553 514 492 q 315 615 397 615 q 176 553 233 615 q 118 414 118 492 l 118 244 q 176 103 118 165 q 315 40 235 40 q 455 103 396 40 q 514 244 514 165 m 563 358 l 875 358 q 942 368 926 358 q 958 410 958 378 q 903 552 958 489 q 761 615 847 615 q 621 558 679 615 q 563 424 563 500 l 563 358 z "},"Ŕ":{"ha":706,"x_min":115,"x_max":658,"o":"m 115 25 l 115 992 q 140 1015 115 1013 l 372 1015 q 579 953 500 1015 q 658 750 658 890 q 425 486 658 514 l 654 40 q 658 25 658 32 q 651 7 658 14 q 633 0 644 0 q 623 3 628 0 q 613 13 618 6 q 606 24 608 19 l 600 39 q 593 50 594 49 l 371 483 l 165 483 l 165 25 q 140 0 165 0 q 115 25 115 0 m 372 965 l 165 965 l 165 533 l 372 533 q 545 586 482 533 q 608 750 608 639 q 545 913 608 861 q 372 965 482 965 m 465 1274 l 333 1199 q 321 1194 328 1194 q 302 1202 310 1194 q 294 1219 294 1210 q 306 1238 294 1232 l 447 1321 q 457 1324 453 1324 q 479 1299 479 1324 q 465 1274 479 1282 z "},"ŕ":{"ha":386,"x_min":85,"x_max":367,"o":"m 310 664 l 344 664 q 367 640 367 664 q 344 615 367 615 l 310 615 q 183 543 232 615 q 133 378 133 471 l 133 24 q 126 7 133 14 q 108 0 118 0 q 92 7 99 0 q 85 24 85 14 l 85 378 q 149 578 85 492 q 310 664 214 664 m 290 914 l 158 839 q 146 835 153 835 q 127 842 135 835 q 119 860 119 850 q 131 878 119 872 l 272 961 q 282 964 278 964 q 304 939 304 964 q 290 914 304 922 z "},"Ř":{"ha":706,"x_min":115,"x_max":658,"o":"m 115 25 l 115 992 q 140 1015 115 1013 l 372 1015 q 579 953 500 1015 q 658 750 658 890 q 425 486 658 514 l 654 40 q 658 25 658 32 q 651 7 658 14 q 633 0 644 0 q 623 3 628 0 q 613 13 618 6 q 606 24 608 19 l 600 39 q 593 50 594 50 l 371 483 l 165 483 l 165 25 q 140 0 165 0 q 115 25 115 0 m 372 965 l 165 965 l 165 533 l 372 533 q 545 586 482 533 q 608 750 608 639 q 545 913 608 861 q 372 965 482 965 m 356 1179 l 203 1319 q 190 1343 190 1332 q 210 1363 190 1363 q 235 1351 224 1363 l 385 1213 l 535 1351 q 560 1363 546 1363 q 579 1343 579 1363 q 567 1319 579 1332 l 414 1179 q 385 1167 399 1167 q 356 1179 371 1167 z "},"ř":{"ha":386,"x_min":15,"x_max":404,"o":"m 310 664 l 344 664 q 367 640 367 664 q 344 615 367 615 l 310 615 q 183 543 232 615 q 133 378 133 471 l 133 24 q 126 7 133 14 q 108 0 118 0 q 92 7 99 0 q 85 24 85 14 l 85 378 q 149 578 85 492 q 310 664 214 664 m 181 819 l 28 960 q 15 983 15 972 q 35 1003 15 1003 q 60 992 49 1003 l 210 853 l 360 992 q 385 1003 371 1003 q 404 983 404 1003 q 392 960 404 972 l 239 819 q 210 807 224 807 q 181 819 196 807 z "},"Ś":{"ha":675,"x_min":63,"x_max":606,"o":"m 556 267 q 530 383 556 333 q 463 460 504 432 q 372 508 422 486 l 272 550 q 181 595 222 569 q 113 665 139 621 q 88 769 88 708 q 111 895 88 843 q 174 972 135 947 q 251 1006 213 996 q 332 1015 289 1015 q 517 950 454 1015 q 581 786 581 885 q 556 758 581 758 q 528 800 528 758 q 520 851 528 826 q 494 904 513 876 q 435 949 476 932 q 336 965 394 965 q 269 957 300 965 q 206 928 238 949 q 156 867 175 908 q 138 769 138 826 q 163 683 138 719 q 231 625 189 647 q 322 584 272 603 q 422 542 372 565 q 513 488 471 518 q 580 403 554 457 q 606 278 606 350 q 532 60 606 129 q 336 -8 458 -8 q 139 58 215 -8 q 63 221 63 124 q 89 249 63 249 q 113 224 107 249 q 129 165 121 188 q 160 109 138 142 q 224 59 182 76 q 328 42 267 42 q 497 99 438 42 q 556 267 556 157 m 413 1274 l 281 1199 q 268 1194 275 1194 q 249 1202 257 1194 q 242 1219 242 1210 q 253 1238 242 1232 l 394 1321 q 404 1324 400 1324 q 426 1299 426 1324 q 413 1274 426 1282 z "},"ś":{"ha":539,"x_min":54,"x_max":482,"o":"m 275 615 q 157 574 196 615 q 118 485 118 533 q 156 413 118 442 q 247 364 193 383 q 353 323 300 344 q 444 260 407 301 q 482 157 482 218 q 426 36 482 81 q 274 -8 371 -8 q 109 40 164 -8 q 54 158 54 89 q 79 192 54 192 q 103 157 103 192 q 144 76 103 113 q 272 40 186 40 q 394 73 354 40 q 433 157 433 106 q 396 237 433 204 q 306 289 358 269 l 197 331 q 107 392 144 353 q 69 486 69 431 q 122 609 69 554 q 272 664 174 664 q 415 616 364 664 q 467 494 467 568 q 443 458 467 458 q 418 493 418 458 q 275 615 415 615 m 346 914 l 214 839 q 201 835 208 835 q 183 842 190 835 q 175 860 175 850 q 186 878 175 872 l 328 961 q 338 964 333 964 q 360 939 360 964 q 346 914 360 922 z "},"Ŝ":{"ha":675,"x_min":63,"x_max":606,"o":"m 556 267 q 530 383 556 333 q 463 460 504 432 q 372 508 421 488 l 272 550 q 181 596 222 571 q 113 665 139 621 q 88 769 88 708 q 111 895 88 843 q 174 972 135 947 q 251 1006 213 996 q 332 1015 289 1015 q 517 950 454 1015 q 581 786 581 885 q 556 758 581 758 q 528 800 528 758 q 520 851 528 826 q 494 904 513 876 q 435 949 476 932 q 336 965 394 965 q 269 957 300 965 q 206 928 238 949 q 156 867 175 908 q 138 769 138 826 q 163 683 138 719 q 231 625 189 647 q 322 584 272 603 q 422 542 372 565 q 513 488 471 518 q 580 403 554 457 q 606 278 606 350 q 532 60 606 129 q 336 -8 458 -8 q 139 58 215 -8 q 63 221 63 124 q 89 249 63 249 q 113 224 107 249 q 129 165 121 188 q 160 109 138 142 q 224 59 182 76 q 328 42 267 42 q 497 99 438 42 q 556 267 556 157 m 333 1275 l 189 1197 q 183 1195 188 1197 q 178 1193 179 1193 q 160 1201 168 1193 q 153 1219 153 1208 q 165 1239 153 1232 l 310 1317 q 333 1324 321 1324 q 357 1317 346 1324 l 501 1240 q 514 1217 514 1235 q 507 1201 514 1207 q 490 1194 500 1194 l 478 1199 l 333 1275 z "},"ŝ":{"ha":539,"x_min":54,"x_max":482,"o":"m 275 615 q 157 574 196 615 q 118 485 118 533 q 156 413 118 442 q 247 364 193 383 q 353 323 300 344 q 444 260 407 301 q 482 157 482 218 q 426 36 482 81 q 274 -8 371 -8 q 109 40 164 -8 q 54 158 54 89 q 79 192 54 192 q 103 157 103 192 q 144 76 103 113 q 272 40 186 40 q 394 73 354 40 q 433 157 433 106 q 396 237 433 204 q 306 289 358 269 l 197 331 q 107 392 144 353 q 69 486 69 431 q 122 609 69 554 q 272 664 174 664 q 415 616 364 664 q 467 494 467 568 q 443 458 467 458 q 418 493 418 458 q 275 615 415 615 m 268 915 l 124 838 q 118 835 122 838 q 113 833 114 833 q 95 841 103 833 q 88 860 88 849 q 100 879 88 872 l 244 957 q 268 964 256 964 q 292 957 281 964 l 436 881 q 449 857 449 875 q 442 841 449 847 q 425 835 435 835 l 413 839 l 268 915 z "},"Ş":{"ha":675,"x_min":63,"x_max":606,"o":"m 556 267 q 530 383 556 333 q 463 460 504 432 q 372 508 421 488 l 272 550 q 181 596 222 571 q 113 665 139 621 q 88 769 88 708 q 111 895 88 843 q 174 972 135 947 q 251 1006 213 996 q 332 1015 289 1015 q 517 950 454 1015 q 581 786 581 885 q 556 758 581 758 q 528 800 528 758 q 520 851 528 826 q 494 904 513 876 q 435 949 476 932 q 336 965 394 965 q 269 957 300 965 q 206 928 238 949 q 156 867 175 908 q 138 769 138 826 q 163 683 138 719 q 231 625 189 647 q 322 584 272 603 q 422 542 372 565 q 513 488 471 518 q 580 403 554 457 q 606 278 606 350 q 532 60 606 129 q 336 -8 458 -8 q 139 58 215 -8 q 63 221 63 124 q 89 249 63 249 q 113 224 107 249 q 129 165 121 188 q 160 109 138 142 q 224 59 182 76 q 328 42 267 42 q 497 99 438 42 q 556 267 556 157 m 511 -186 q 399 -290 511 -290 q 294 -271 350 -290 l 294 -222 q 397 -242 344 -242 q 465 -185 465 -242 q 442 -147 465 -156 q 372 -137 418 -137 l 331 -137 l 331 11 l 378 11 l 378 -89 q 424 -91 407 -89 q 465 -101 442 -93 q 500 -131 489 -110 q 511 -186 511 -153 z "},"ş":{"ha":540,"x_min":56,"x_max":483,"o":"m 276 615 q 158 574 197 615 q 119 485 119 533 q 157 413 119 442 q 248 364 194 383 q 355 323 301 344 q 446 260 408 301 q 483 157 483 218 q 428 36 483 81 q 275 -8 372 -8 q 110 40 165 -8 q 56 158 56 89 q 81 192 56 192 q 104 157 104 192 q 147 76 104 113 q 274 40 189 40 q 395 73 356 40 q 435 157 435 106 q 397 236 435 204 q 306 289 358 269 l 200 331 q 109 392 147 353 q 71 486 71 431 q 123 609 71 554 q 274 664 175 664 q 417 616 365 664 q 468 494 468 568 q 444 458 468 458 q 419 493 419 458 q 276 615 417 615 m 443 -186 q 331 -290 443 -290 q 226 -271 282 -290 l 226 -222 q 329 -242 276 -242 q 397 -185 397 -242 q 374 -147 397 -156 q 304 -137 350 -137 l 263 -137 l 263 11 l 310 11 l 310 -89 q 356 -91 339 -89 q 397 -101 374 -93 q 432 -131 421 -110 q 443 -186 443 -153 z "},"Š":{"ha":675,"x_min":63,"x_max":606,"o":"m 556 267 q 530 383 556 333 q 463 460 504 432 q 372 508 422 486 l 272 550 q 181 595 222 569 q 113 665 139 621 q 88 769 88 708 q 111 895 88 843 q 174 972 135 947 q 251 1006 213 996 q 332 1015 289 1015 q 517 950 454 1015 q 581 786 581 885 q 556 758 581 758 q 528 800 528 758 q 520 851 528 826 q 494 904 513 876 q 435 949 476 932 q 336 965 394 965 q 269 957 300 965 q 206 928 238 949 q 156 867 175 908 q 138 769 138 826 q 163 683 138 719 q 231 625 189 647 q 322 584 272 603 q 422 542 372 565 q 513 488 471 518 q 580 403 554 457 q 606 278 606 350 q 532 60 606 129 q 336 -8 458 -8 q 139 58 215 -8 q 63 221 63 124 q 89 249 63 249 q 113 224 107 249 q 129 165 121 188 q 160 109 138 142 q 224 59 182 76 q 328 42 267 42 q 497 99 438 42 q 556 267 556 157 m 303 1179 l 150 1319 q 138 1343 138 1332 q 157 1363 138 1363 q 182 1351 171 1363 l 332 1213 l 482 1351 q 507 1363 493 1363 q 526 1343 526 1363 q 514 1319 526 1332 l 361 1179 q 332 1167 346 1167 q 303 1179 318 1167 z "},"š":{"ha":539,"x_min":54,"x_max":482,"o":"m 275 615 q 157 574 196 615 q 118 485 118 533 q 156 413 118 442 q 247 364 193 383 q 353 323 300 344 q 444 260 407 301 q 482 157 482 218 q 426 36 482 81 q 274 -8 371 -8 q 109 40 164 -8 q 54 158 54 89 q 79 192 54 192 q 103 157 103 192 q 144 76 103 113 q 272 40 186 40 q 394 73 354 40 q 433 157 433 106 q 396 237 433 204 q 306 289 358 269 l 197 331 q 107 392 144 353 q 69 486 69 431 q 122 609 69 554 q 272 664 174 664 q 415 616 364 664 q 467 494 467 568 q 443 458 467 458 q 418 493 418 458 q 275 615 415 615 m 238 819 l 85 960 q 72 983 72 972 q 92 1003 72 1003 q 117 992 106 1003 l 267 853 l 417 992 q 442 1003 428 1003 q 461 983 461 1003 q 449 960 461 972 l 296 819 q 267 807 281 807 q 238 819 253 807 z "},"Ť":{"ha":649,"x_min":28,"x_max":621,"o":"m 300 965 l 53 965 q 35 973 42 965 q 28 990 28 981 q 35 1008 28 1000 q 53 1015 42 1015 l 596 1015 q 621 992 621 1015 q 596 965 621 965 l 350 965 l 350 25 q 325 0 350 0 q 300 25 300 0 l 300 965 m 293 1179 l 140 1319 q 128 1343 128 1332 q 147 1363 128 1363 q 172 1351 161 1363 l 322 1213 l 472 1351 q 497 1363 483 1363 q 517 1343 517 1363 q 504 1319 517 1332 l 351 1179 q 322 1167 336 1167 q 293 1179 308 1167 z "},"ť":{"ha":378,"x_min":92,"x_max":351,"o":"m 92 193 l 92 953 q 99 969 92 963 q 115 976 107 976 q 133 969 125 976 q 140 953 140 963 l 140 656 l 328 656 q 344 648 338 656 q 351 631 351 640 q 344 614 351 621 q 328 607 338 607 l 140 607 l 140 193 q 175 81 140 114 q 294 49 210 49 l 326 49 q 343 42 336 49 q 350 25 350 35 q 343 8 350 15 q 326 0 336 0 l 294 0 q 92 193 92 0 m 294 1015 q 350 939 350 1015 q 331 819 350 883 q 290 756 313 756 q 278 775 278 756 q 289 822 278 785 q 300 908 300 858 q 240 957 240 908 q 294 1015 240 1015 z "},"Ũ":{"ha":760,"x_min":108,"x_max":651,"o":"m 108 278 l 108 992 q 133 1015 108 1015 q 158 992 158 1015 l 158 278 q 215 101 158 160 q 379 42 272 42 q 544 101 486 42 q 601 278 601 160 l 601 992 q 626 1015 601 1015 q 651 992 651 1015 l 651 278 q 577 60 651 129 q 379 -8 503 -8 q 182 60 256 -8 q 108 278 108 129 m 475 1267 q 520 1278 503 1267 q 547 1300 538 1289 q 565 1311 557 1311 q 585 1290 585 1311 q 545 1240 585 1261 q 468 1219 506 1219 q 383 1245 436 1219 q 289 1271 329 1271 q 243 1258 263 1271 q 212 1234 224 1246 q 193 1222 200 1222 q 175 1246 175 1222 q 217 1295 175 1272 q 299 1318 260 1318 q 385 1292 332 1318 q 475 1267 439 1267 z "},"ũ":{"ha":664,"x_min":85,"x_max":578,"o":"m 332 -8 q 158 67 231 -8 q 85 242 85 142 l 85 631 q 92 648 85 640 q 110 656 100 656 q 126 648 119 656 q 133 631 133 640 l 133 242 q 192 101 133 163 q 332 40 250 40 q 471 101 413 40 q 529 242 529 163 l 529 632 q 537 649 529 642 q 554 656 544 656 q 571 649 564 656 q 578 632 578 642 l 578 242 q 505 67 578 142 q 332 -8 432 -8 m 426 907 q 472 918 454 907 q 499 940 489 929 q 517 951 508 951 q 536 931 536 951 q 497 881 536 901 q 419 860 457 860 q 334 885 388 860 q 240 911 281 911 q 194 899 214 911 q 163 874 175 886 q 144 863 151 863 q 126 886 126 863 q 169 935 126 913 q 250 958 211 958 q 337 933 283 958 q 426 907 390 907 z "},"Ū":{"ha":760,"x_min":108,"x_max":651,"o":"m 108 278 l 108 992 q 133 1015 108 1015 q 158 992 158 1015 l 158 278 q 215 101 158 160 q 379 42 272 42 q 544 101 486 42 q 601 278 601 160 l 601 992 q 626 1015 601 1015 q 651 992 651 1015 l 651 278 q 577 60 651 129 q 379 -8 503 -8 q 182 60 256 -8 q 108 278 108 129 m 203 1269 q 226 1294 203 1294 l 532 1294 q 549 1287 542 1294 q 557 1269 557 1279 q 549 1253 557 1260 q 532 1246 542 1246 l 226 1246 q 203 1269 203 1246 z "},"ū":{"ha":664,"x_min":85,"x_max":578,"o":"m 332 -8 q 158 67 231 -8 q 85 242 85 142 l 85 631 q 92 648 85 640 q 110 656 100 656 q 126 648 119 656 q 133 631 133 640 l 133 242 q 192 101 133 163 q 332 40 250 40 q 471 101 413 40 q 529 242 529 163 l 529 632 q 537 649 529 642 q 554 656 544 656 q 571 649 564 656 q 578 632 578 642 l 578 242 q 505 67 578 142 q 332 -8 432 -8 m 154 910 q 178 935 154 935 l 483 935 q 501 927 493 935 q 508 910 508 919 q 501 893 508 900 q 483 886 493 886 l 178 886 q 154 910 154 886 z "},"Ŭ":{"ha":760,"x_min":108,"x_max":651,"o":"m 108 278 l 108 992 q 133 1015 108 1015 q 158 992 158 1015 l 158 278 q 215 101 158 160 q 379 42 272 42 q 544 101 486 42 q 601 278 601 160 l 601 992 q 626 1015 601 1015 q 651 992 651 1015 l 651 278 q 577 60 651 129 q 379 -8 503 -8 q 182 60 256 -8 q 108 278 108 129 m 485 1321 l 531 1321 q 485 1232 531 1269 q 379 1194 439 1194 q 273 1232 318 1194 q 228 1321 228 1269 l 272 1321 q 303 1257 272 1283 q 379 1231 335 1231 q 453 1257 422 1231 q 485 1321 485 1283 z "},"ŭ":{"ha":664,"x_min":85,"x_max":578,"o":"m 332 -8 q 158 67 231 -8 q 85 242 85 142 l 85 631 q 92 648 85 640 q 110 656 100 656 q 126 648 119 656 q 133 631 133 640 l 133 242 q 192 101 133 163 q 332 40 250 40 q 471 101 413 40 q 529 242 529 163 l 529 632 q 537 649 529 642 q 554 656 544 656 q 571 649 564 656 q 578 632 578 642 l 578 242 q 505 67 578 142 q 332 -8 432 -8 m 436 961 l 482 961 q 436 872 482 910 q 331 835 390 835 q 224 872 269 835 q 179 961 179 910 l 224 961 q 255 897 224 924 q 331 871 286 871 q 405 897 374 871 q 436 961 436 924 z "},"Ů":{"ha":760,"x_min":108,"x_max":651,"o":"m 108 278 l 108 992 q 133 1015 108 1015 q 158 992 158 1015 l 158 278 q 215 101 158 160 q 379 42 272 42 q 544 101 486 42 q 601 278 601 160 l 601 992 q 626 1015 601 1015 q 651 992 651 1015 l 651 278 q 577 60 651 129 q 379 -8 503 -8 q 182 60 256 -8 q 108 278 108 129 m 379 1426 q 458 1392 424 1426 q 493 1311 493 1357 q 458 1228 493 1264 q 379 1193 424 1193 q 299 1228 333 1193 q 265 1311 265 1264 q 299 1392 265 1357 q 379 1426 332 1426 m 451 1311 q 430 1360 451 1338 q 379 1383 408 1383 q 327 1361 349 1383 q 306 1311 306 1339 q 327 1257 306 1281 q 379 1233 349 1233 q 430 1257 408 1233 q 451 1311 451 1281 z "},"ů":{"ha":664,"x_min":85,"x_max":578,"o":"m 332 -8 q 158 67 231 -8 q 85 242 85 142 l 85 631 q 92 648 85 640 q 110 656 100 656 q 126 648 119 656 q 133 631 133 640 l 133 242 q 192 101 133 163 q 332 40 250 40 q 471 101 413 40 q 529 242 529 163 l 529 632 q 537 649 529 642 q 554 656 544 656 q 571 649 564 656 q 578 632 578 642 l 578 242 q 505 67 578 142 q 332 -8 432 -8 m 331 1067 q 410 1032 375 1067 q 444 951 444 997 q 410 869 444 904 q 331 833 375 833 q 251 869 285 833 q 217 951 217 904 q 250 1032 217 997 q 331 1067 283 1067 m 403 951 q 381 1001 403 978 q 331 1024 360 1024 q 278 1001 300 1024 q 257 951 257 979 q 278 897 257 921 q 331 874 300 874 q 381 897 360 874 q 403 951 403 921 z "},"Ű":{"ha":760,"x_min":108,"x_max":651,"o":"m 108 278 l 108 992 q 133 1015 108 1015 q 158 992 158 1015 l 158 278 q 215 101 158 160 q 379 42 272 42 q 544 101 486 42 q 601 278 601 160 l 601 992 q 626 1015 601 1015 q 651 992 651 1015 l 651 278 q 577 60 651 129 q 379 -8 503 -8 q 182 60 256 -8 q 108 278 108 129 m 426 1274 l 294 1199 q 282 1194 289 1194 q 263 1202 271 1194 q 256 1219 256 1210 q 267 1238 256 1232 l 408 1321 q 418 1324 414 1324 q 440 1299 440 1324 q 426 1274 440 1282 m 631 1274 l 499 1199 q 486 1194 492 1194 q 467 1202 475 1194 q 460 1219 460 1210 q 471 1238 460 1232 l 613 1321 q 622 1324 618 1324 q 644 1299 644 1324 q 631 1274 644 1282 z "},"ű":{"ha":664,"x_min":85,"x_max":579,"o":"m 332 -8 q 158 67 231 -8 q 85 242 85 142 l 85 631 q 92 648 85 640 q 110 656 100 656 q 126 648 119 656 q 133 631 133 640 l 133 242 q 192 101 133 163 q 332 40 250 40 q 471 101 413 40 q 529 242 529 163 l 529 632 q 537 649 529 642 q 554 656 544 656 q 571 649 564 656 q 578 632 578 642 l 578 242 q 505 67 578 142 q 332 -8 432 -8 m 361 914 l 229 839 q 217 835 222 835 q 198 842 206 835 q 190 860 190 850 q 201 878 190 872 l 343 961 q 353 964 349 964 q 375 939 375 964 q 361 914 375 922 m 565 914 l 433 839 q 421 835 428 835 q 402 842 410 835 q 394 860 394 850 q 406 878 394 872 l 547 961 q 557 964 553 964 q 579 939 579 964 q 565 914 579 922 z "},"Ų":{"ha":761,"x_min":108,"x_max":651,"o":"m 108 278 l 108 992 q 133 1015 108 1015 q 158 992 158 1015 l 158 278 q 215 101 158 160 q 379 42 272 42 q 544 101 486 42 q 601 278 601 160 l 601 992 q 626 1015 601 1015 q 651 992 651 1015 l 651 278 q 577 60 651 129 q 379 -8 503 -8 q 182 60 256 -8 q 108 278 108 129 m 547 -136 q 572 -154 572 -136 q 540 -172 572 -172 q 456 -151 493 -172 q 419 -79 419 -129 q 524 68 419 -3 l 560 46 q 485 -15 510 13 q 460 -76 460 -42 q 547 -136 460 -136 z "},"ų":{"ha":667,"x_min":86,"x_max":579,"o":"m 333 -8 q 159 67 232 -8 q 86 242 86 142 l 86 631 q 94 648 86 640 q 111 656 101 656 q 128 648 121 656 q 135 631 135 640 l 135 242 q 193 101 135 163 q 333 40 251 40 q 472 101 414 40 q 531 242 531 163 l 531 632 q 538 649 531 642 q 556 656 546 656 q 572 649 565 656 q 579 632 579 642 l 579 242 q 506 67 579 142 q 333 -8 433 -8 m 467 -139 q 492 -157 492 -139 q 460 -175 492 -175 q 376 -153 413 -175 q 339 -82 339 -132 q 443 65 339 -6 l 479 43 q 404 -17 429 10 q 379 -79 379 -44 q 467 -139 379 -139 z "},"Ŵ":{"ha":1029,"x_min":38,"x_max":992,"o":"m 338 97 l 485 632 q 515 656 492 656 q 543 632 536 656 l 693 97 l 942 997 q 968 1015 946 1015 q 992 993 992 1015 q 990 985 992 989 l 719 11 q 693 -8 713 -8 q 668 11 672 -8 l 515 556 l 364 11 q 338 -8 357 -8 q 313 11 317 -8 l 39 985 q 38 993 38 989 q 61 1015 38 1015 q 88 997 83 1015 l 338 97 m 514 1275 l 369 1197 q 364 1195 368 1197 q 358 1193 360 1193 q 341 1201 349 1193 q 333 1219 333 1208 q 346 1239 333 1233 l 490 1317 q 514 1324 501 1324 q 538 1317 526 1324 l 682 1240 q 694 1217 694 1233 q 688 1201 694 1207 q 671 1194 681 1194 l 658 1199 l 514 1275 z "},"ŵ":{"ha":907,"x_min":25,"x_max":881,"o":"m 856 656 q 881 632 881 656 q 875 613 881 624 l 657 8 q 636 -8 651 -8 q 617 7 625 -8 l 454 528 l 294 15 q 271 -8 286 -8 q 257 -4 261 -8 q 247 15 253 0 l 31 613 q 25 631 25 624 q 32 649 25 642 q 50 656 39 656 q 74 640 67 656 l 269 97 l 429 600 q 454 618 436 618 q 479 600 472 618 l 633 90 l 833 640 q 856 656 838 656 m 453 915 l 308 838 q 303 835 307 838 q 297 833 299 833 q 280 841 288 833 q 272 860 272 849 q 285 879 272 872 l 429 957 q 453 964 440 964 q 476 957 465 964 l 621 881 q 633 857 633 875 q 626 841 633 847 q 610 835 619 835 l 597 839 l 453 915 z "},"Ŷ":{"ha":710,"x_min":32,"x_max":676,"o":"m 669 965 l 381 388 q 379 379 379 385 l 379 25 q 354 0 379 0 q 329 25 329 0 l 329 379 q 328 388 329 385 l 40 965 q 32 993 32 982 q 50 1015 32 1015 q 78 992 67 1015 l 354 435 l 632 992 q 660 1015 644 1015 q 676 993 676 1015 q 669 965 676 979 m 354 1275 l 210 1197 q 204 1195 208 1197 q 199 1193 200 1193 q 181 1201 189 1193 q 174 1219 174 1208 q 186 1239 174 1233 l 331 1317 q 354 1324 342 1324 q 378 1317 367 1324 l 522 1240 q 535 1217 535 1233 q 528 1201 535 1207 q 511 1194 521 1194 l 499 1199 l 354 1275 z "},"ŷ":{"ha":546,"x_min":24,"x_max":521,"o":"m 496 664 q 521 640 521 664 q 519 632 521 635 l 297 18 l 269 -58 q 240 -132 261 -81 q 201 -210 218 -183 q 159 -268 183 -236 q 107 -315 135 -300 q 49 -329 79 -329 q 32 -322 39 -329 q 25 -306 25 -315 q 46 -281 25 -281 q 92 -269 69 -281 q 133 -231 114 -258 q 166 -183 153 -204 q 197 -117 179 -162 q 224 -53 217 -72 l 249 18 l 26 632 q 24 640 24 638 q 31 657 24 650 q 50 664 39 664 q 72 649 68 664 l 274 93 l 474 649 q 496 664 481 664 m 272 915 l 128 838 q 122 835 126 838 q 117 833 118 833 q 99 841 107 833 q 92 860 92 849 q 104 879 92 872 l 249 957 q 272 964 260 964 q 296 957 285 964 l 440 881 q 453 857 453 875 q 446 841 453 847 q 429 835 439 835 l 417 839 l 272 915 z "},"Ÿ":{"ha":710,"x_min":32,"x_max":676,"o":"m 669 965 l 381 388 q 379 379 379 385 l 379 25 q 354 0 379 0 q 329 25 329 0 l 329 379 q 328 388 329 385 l 40 965 q 32 993 32 982 q 50 1015 32 1015 q 78 992 67 1015 l 354 435 l 632 992 q 660 1015 644 1015 q 676 993 676 1015 q 669 965 676 979 m 297 1336 q 322 1318 311 1336 q 333 1276 333 1300 q 322 1235 333 1253 q 297 1217 311 1217 q 271 1235 282 1217 q 260 1276 260 1253 q 271 1318 260 1300 q 297 1336 282 1336 m 413 1336 q 438 1318 426 1336 q 449 1276 449 1300 q 438 1235 449 1253 q 413 1217 426 1217 q 386 1235 397 1217 q 375 1276 375 1253 q 386 1318 375 1300 q 413 1336 397 1336 z "},"Ź":{"ha":631,"x_min":44,"x_max":588,"o":"m 563 0 l 69 0 q 51 7 58 0 q 44 25 44 14 q 49 40 44 32 l 521 965 l 69 965 q 44 990 44 965 q 69 1015 44 1015 l 563 1015 q 588 996 588 1015 q 581 972 588 986 l 110 50 l 563 50 q 588 25 588 50 q 563 0 588 0 m 394 1274 l 263 1199 q 250 1194 257 1194 q 231 1202 239 1194 q 224 1219 224 1210 q 235 1238 224 1232 l 376 1321 q 386 1324 382 1324 q 408 1299 408 1324 q 394 1274 408 1282 z "},"ź":{"ha":532,"x_min":42,"x_max":490,"o":"m 114 49 l 465 49 q 483 41 475 49 q 490 24 490 33 q 483 7 490 14 q 465 0 475 0 l 67 0 q 42 22 42 0 q 47 39 42 33 l 418 607 l 67 607 q 49 614 57 607 q 42 631 42 621 q 49 649 42 642 q 67 656 56 656 l 465 656 q 483 649 475 656 q 490 631 490 642 q 486 617 490 622 l 114 49 m 344 914 l 213 839 q 200 835 207 835 q 181 842 189 835 q 174 860 174 850 q 185 878 174 872 l 326 961 q 336 964 332 964 q 358 939 358 964 q 344 914 358 922 z "},"Ż":{"ha":631,"x_min":44,"x_max":588,"o":"m 563 0 l 69 0 q 51 7 58 0 q 44 25 44 14 q 49 40 44 32 l 521 965 l 69 965 q 44 990 44 965 q 69 1015 44 1015 l 563 1015 q 588 996 588 1015 q 581 972 588 986 l 110 50 l 563 50 q 588 25 588 50 q 563 0 588 0 m 317 1281 q 358 1263 340 1281 q 376 1221 376 1244 q 358 1179 376 1197 q 317 1161 340 1161 q 274 1179 292 1161 q 256 1221 256 1197 q 274 1263 256 1244 q 317 1281 292 1281 z "},"ż":{"ha":532,"x_min":42,"x_max":490,"o":"m 114 49 l 465 49 q 483 41 475 49 q 490 24 490 33 q 483 7 490 14 q 465 0 475 0 l 67 0 q 42 22 42 0 q 47 39 42 33 l 418 607 l 67 607 q 49 614 57 607 q 42 631 42 621 q 49 649 42 642 q 67 656 56 656 l 465 656 q 483 649 475 656 q 490 631 490 642 q 486 617 490 622 l 114 49 m 267 921 q 308 903 290 921 q 326 861 326 885 q 308 819 326 838 q 267 801 290 801 q 224 819 242 801 q 206 861 206 838 q 224 903 206 885 q 267 921 242 921 z "},"Ž":{"ha":631,"x_min":44,"x_max":588,"o":"m 563 0 l 69 0 q 51 7 58 0 q 44 25 44 14 q 49 40 44 32 l 521 965 l 69 965 q 44 990 44 965 q 69 1015 44 1015 l 563 1015 q 588 996 588 1015 q 581 972 588 986 l 110 50 l 563 50 q 588 25 588 50 q 563 0 588 0 m 285 1179 l 132 1319 q 119 1343 119 1332 q 139 1363 119 1363 q 164 1351 153 1363 l 314 1213 l 464 1351 q 489 1363 475 1363 q 508 1343 508 1363 q 496 1319 508 1332 l 343 1179 q 314 1167 328 1167 q 285 1179 300 1167 z "},"ž":{"ha":532,"x_min":42,"x_max":490,"o":"m 114 49 l 465 49 q 483 41 475 49 q 490 24 490 33 q 483 7 490 14 q 465 0 475 0 l 67 0 q 42 22 42 0 q 47 39 42 33 l 418 607 l 67 607 q 49 614 57 607 q 42 631 42 621 q 49 649 42 642 q 67 656 56 656 l 465 656 q 483 649 475 656 q 490 631 490 642 q 486 617 490 622 l 114 49 m 235 819 l 82 960 q 69 983 69 972 q 89 1003 69 1003 q 114 992 103 1003 l 264 853 l 414 992 q 439 1003 425 1003 q 458 983 458 1003 q 446 960 458 972 l 293 819 q 264 807 278 807 q 235 819 250 807 z "},"ƒ":{"ha":450,"x_min":-107,"x_max":486,"o":"m 226 819 l 189 558 l 401 558 q 424 538 424 558 q 415 518 424 526 q 394 510 406 510 l 182 510 l 121 72 q -57 -190 83 -190 l -85 -190 q -107 -168 -107 -190 q -98 -149 -107 -157 q -78 -142 -89 -142 l -50 -142 q 72 72 42 -142 l 178 819 q 276 993 192 919 q 460 1067 360 1067 l 465 1067 q 486 1044 486 1067 q 478 1026 486 1033 q 458 1018 469 1018 l 453 1018 q 304 958 371 1018 q 226 819 238 899 z "},"ˆ":{"ha":361,"x_min":0,"x_max":361,"o":"m 181 915 l 36 838 q 31 835 35 838 q 25 833 26 833 q 8 841 15 833 q 0 860 0 849 q 13 879 0 872 l 157 957 q 181 964 168 964 q 204 957 193 964 l 349 881 q 361 857 361 875 q 354 841 361 847 q 338 835 347 835 l 325 839 l 181 915 z "},"ˇ":{"ha":389,"x_min":0,"x_max":389,"o":"m 165 819 l 13 960 q 0 983 0 972 q 19 1003 0 1003 q 44 992 33 1003 l 194 853 l 344 992 q 369 1003 356 1003 q 389 983 389 1003 q 376 960 389 972 l 224 819 q 194 807 208 807 q 165 819 181 807 z "},"˘":{"ha":303,"x_min":0,"x_max":303,"o":"m 257 961 l 303 961 q 257 872 303 910 q 151 835 211 835 q 45 872 90 835 q 0 961 0 910 l 44 961 q 76 897 44 924 q 151 871 107 871 q 226 897 194 871 q 257 961 257 924 z "},"˙":{"ha":288,"x_min":92,"x_max":213,"o":"m 153 921 q 194 903 176 921 q 213 861 213 885 q 194 819 213 838 q 153 801 176 801 q 110 819 128 801 q 92 861 92 838 q 110 903 92 885 q 153 921 128 921 z "},"˚":{"ha":228,"x_min":0,"x_max":228,"o":"m 114 1067 q 193 1032 158 1067 q 228 951 228 997 q 193 869 228 904 q 114 833 158 833 q 34 869 68 833 q 0 951 0 904 q 33 1032 0 997 q 114 1067 67 1067 m 186 951 q 165 1001 186 978 q 114 1024 143 1024 q 62 1001 83 1024 q 40 951 40 979 q 62 897 40 921 q 114 874 83 874 q 165 897 143 874 q 186 951 186 921 z "},"˛":{"ha":153,"x_min":0,"x_max":153,"o":"m 128 -179 q 153 -197 153 -179 q 121 -215 153 -215 q 37 -194 74 -215 q 0 -122 0 -172 q 104 25 0 -46 l 140 3 q 65 -58 90 -31 q 40 -119 40 -85 q 128 -179 40 -179 z "},"˜":{"ha":410,"x_min":0,"x_max":410,"o":"m 300 907 q 345 918 328 907 q 372 940 363 929 q 390 951 382 951 q 410 931 410 951 q 370 881 410 901 q 293 860 331 860 q 208 885 261 860 q 114 911 154 911 q 68 899 88 911 q 37 874 49 886 q 18 863 25 863 q 0 886 0 863 q 42 935 0 913 q 124 958 85 958 q 210 933 157 958 q 300 907 264 907 z "},"˝":{"ha":389,"x_min":0,"x_max":389,"o":"m 171 914 l 39 839 q 26 835 33 835 q 8 842 15 835 q 0 860 0 850 q 11 878 0 872 l 153 961 q 163 964 158 964 q 185 939 185 964 q 171 914 185 922 m 375 914 l 243 839 q 231 835 236 835 q 212 842 219 835 q 204 860 204 850 q 215 878 204 872 l 357 961 q 367 964 363 964 q 389 939 389 964 q 375 914 389 922 z "},"Ẁ":{"ha":1029,"x_min":38,"x_max":992,"o":"m 338 97 l 485 632 q 515 656 492 656 q 543 632 536 656 l 693 97 l 942 997 q 968 1015 946 1015 q 992 993 992 1015 q 990 985 992 989 l 719 11 q 693 -8 713 -8 q 668 11 672 -8 l 515 556 l 364 11 q 338 -8 357 -8 q 313 11 317 -8 l 39 985 q 38 993 38 989 q 61 1015 38 1015 q 88 997 83 1015 l 338 97 m 568 1199 l 436 1274 q 422 1299 422 1282 q 444 1324 422 1324 q 454 1321 449 1324 l 596 1238 q 607 1219 607 1232 q 599 1202 607 1210 q 581 1194 592 1194 q 568 1199 575 1194 z "},"ẁ":{"ha":907,"x_min":25,"x_max":881,"o":"m 856 656 q 881 632 881 656 q 875 613 881 624 l 657 8 q 636 -8 651 -8 q 617 7 625 -8 l 454 528 l 294 15 q 271 -8 286 -8 q 257 -4 261 -8 q 247 15 253 0 l 31 613 q 25 631 25 624 q 32 649 25 642 q 50 656 39 656 q 74 640 67 656 l 269 97 l 429 600 q 454 618 436 618 q 479 600 472 618 l 633 90 l 833 640 q 856 656 838 656 m 506 839 l 374 914 q 360 939 360 922 q 382 964 360 964 q 392 961 386 964 l 533 878 q 544 860 544 872 q 537 842 544 850 q 518 835 529 835 q 506 839 511 835 z "},"Ẃ":{"ha":1029,"x_min":38,"x_max":992,"o":"m 338 97 l 485 632 q 515 656 492 656 q 543 632 536 656 l 693 97 l 942 997 q 968 1015 946 1015 q 992 993 992 1015 q 990 985 992 989 l 719 11 q 693 -8 713 -8 q 668 11 672 -8 l 515 556 l 364 11 q 338 -8 357 -8 q 313 11 317 -8 l 39 985 q 38 993 38 989 q 61 1015 38 1015 q 88 997 83 1015 l 338 97 m 593 1274 l 461 1199 q 449 1194 456 1194 q 430 1202 438 1194 q 422 1219 422 1210 q 433 1238 422 1232 l 575 1321 q 585 1324 581 1324 q 607 1299 607 1324 q 593 1274 607 1282 z "},"ẃ":{"ha":907,"x_min":25,"x_max":881,"o":"m 856 656 q 881 632 881 656 q 875 613 881 624 l 657 8 q 636 -8 651 -8 q 617 7 625 -8 l 454 528 l 294 15 q 271 -8 286 -8 q 257 -4 261 -8 q 247 15 253 0 l 31 613 q 25 631 25 624 q 32 649 25 642 q 50 656 39 656 q 74 640 67 656 l 269 97 l 429 600 q 454 618 436 618 q 479 600 472 618 l 633 90 l 833 640 q 856 656 838 656 m 531 914 l 399 839 q 386 835 393 835 q 367 842 375 835 q 360 860 360 850 q 371 878 360 872 l 513 961 q 522 964 518 964 q 544 939 544 964 q 531 914 544 922 z "},"Ẅ":{"ha":1029,"x_min":38,"x_max":992,"o":"m 338 97 l 485 632 q 515 656 492 656 q 543 632 536 656 l 693 97 l 942 997 q 968 1015 946 1015 q 992 993 992 1015 q 990 985 992 989 l 719 11 q 693 -8 713 -8 q 668 11 672 -8 l 515 556 l 364 11 q 338 -8 357 -8 q 313 11 317 -8 l 39 985 q 38 993 38 989 q 61 1015 38 1015 q 88 997 83 1015 l 338 97 m 457 1336 q 482 1318 471 1336 q 493 1276 493 1300 q 482 1235 493 1253 q 457 1217 471 1217 q 431 1235 442 1217 q 419 1276 419 1253 q 431 1318 419 1300 q 457 1336 442 1336 m 572 1336 q 597 1318 586 1336 q 608 1276 608 1300 q 597 1235 608 1253 q 572 1217 586 1217 q 546 1235 557 1217 q 535 1276 535 1253 q 546 1318 535 1300 q 572 1336 557 1336 z "},"ẅ":{"ha":907,"x_min":25,"x_max":881,"o":"m 856 656 q 881 632 881 656 q 875 613 881 624 l 657 8 q 636 -8 651 -8 q 617 7 625 -8 l 454 528 l 294 15 q 271 -8 286 -8 q 257 -4 261 -8 q 247 15 253 0 l 31 613 q 25 631 25 624 q 32 649 25 642 q 50 656 39 656 q 74 640 67 656 l 269 97 l 429 600 q 454 618 436 618 q 479 600 472 618 l 633 90 l 833 640 q 856 656 838 656 m 396 976 q 421 958 410 976 q 432 917 432 940 q 421 875 432 893 q 396 857 410 857 q 369 875 381 857 q 358 917 358 893 q 369 958 358 940 q 396 976 381 976 m 511 976 q 536 958 525 976 q 547 917 547 940 q 536 875 547 893 q 511 857 525 857 q 485 875 496 857 q 474 917 474 893 q 485 958 474 940 q 511 976 496 976 z "},"ỳ":{"ha":546,"x_min":24,"x_max":521,"o":"m 496 664 q 521 640 521 664 q 519 632 521 635 l 297 18 l 269 -58 q 240 -132 261 -81 q 201 -210 218 -183 q 159 -268 183 -236 q 107 -315 135 -300 q 49 -329 79 -329 q 32 -322 39 -329 q 25 -306 25 -315 q 46 -281 25 -281 q 92 -269 69 -281 q 133 -231 114 -258 q 166 -183 153 -204 q 197 -117 179 -162 q 224 -53 217 -72 l 249 18 l 26 632 q 24 640 24 638 q 31 657 24 650 q 50 664 39 664 q 72 649 68 664 l 274 93 l 474 649 q 496 664 481 664 m 325 839 l 193 914 q 179 939 179 922 q 201 964 179 964 q 211 961 206 964 l 353 878 q 364 860 364 872 q 356 842 364 850 q 338 835 349 835 q 325 839 331 835 z "},"–":{"ha":664,"x_min":86,"x_max":579,"o":"m 86 333 q 110 358 86 358 l 554 358 q 572 351 564 358 q 579 333 579 343 q 572 317 579 324 q 554 310 564 310 l 110 310 q 86 333 86 310 z "},"—":{"ha":1053,"x_min":86,"x_max":968,"o":"m 86 333 q 110 358 86 358 l 943 358 q 960 351 953 358 q 968 333 968 343 q 960 317 968 324 q 943 310 953 310 l 110 310 q 86 333 86 310 z "},"‘":{"ha":210,"x_min":54,"x_max":164,"o":"m 110 756 q 54 832 54 756 q 73 951 54 888 q 114 1015 92 1015 q 126 996 126 1015 q 115 949 126 986 q 104 863 104 913 q 164 814 164 863 q 110 756 164 756 z "},"’":{"ha":207,"x_min":44,"x_max":154,"o":"m 99 1015 q 154 939 154 1015 q 135 819 154 883 q 94 756 117 756 q 82 775 82 756 q 93 822 82 785 q 104 908 104 858 q 44 957 44 908 q 99 1015 44 1015 z "},"‚":{"ha":244,"x_min":61,"x_max":182,"o":"m 122 111 q 164 94 146 111 q 182 40 182 78 q 158 -51 182 -3 q 115 -100 135 -100 q 99 -78 99 -100 q 121 -8 99 -74 q 78 10 96 -7 q 61 51 61 28 q 79 93 61 75 q 122 111 97 111 z "},"“":{"ha":390,"x_min":54,"x_max":344,"o":"m 290 756 q 235 832 235 756 q 253 951 235 888 q 294 1015 272 1015 q 307 996 307 1015 q 296 949 307 986 q 285 863 285 913 q 344 814 344 863 q 290 756 344 756 m 110 756 q 54 832 54 756 q 73 951 54 888 q 114 1015 92 1015 q 126 996 126 1015 q 115 949 126 986 q 104 863 104 913 q 164 814 164 863 q 110 756 164 756 z "},"”":{"ha":390,"x_min":46,"x_max":336,"o":"m 100 756 q 46 814 46 756 q 106 863 46 863 q 94 949 106 913 q 83 996 83 986 q 96 1015 83 1015 q 137 951 118 1015 q 156 832 156 888 q 100 756 156 756 m 281 756 q 226 814 226 756 q 286 863 226 863 q 275 949 286 913 q 264 996 264 986 q 276 1015 264 1015 q 317 951 299 1015 q 336 832 336 888 q 281 756 336 756 z "},"„":{"ha":439,"x_min":61,"x_max":376,"o":"m 122 111 q 164 94 146 111 q 182 40 182 78 q 158 -51 182 -3 q 115 -100 135 -100 q 99 -78 99 -100 q 100 -71 99 -74 l 121 -8 q 78 10 96 -7 q 61 51 61 28 q 79 93 61 75 q 122 111 97 111 m 317 111 q 358 94 340 111 q 376 40 376 78 q 353 -51 376 -3 q 310 -100 329 -100 q 293 -78 293 -100 q 294 -71 293 -74 l 315 -8 q 273 10 290 -7 q 256 51 256 28 q 274 93 256 75 q 317 111 292 111 z "},"†":{"ha":560,"x_min":33,"x_max":526,"o":"m 33 631 q 57 656 33 656 l 254 647 l 254 992 q 262 1008 254 1001 q 279 1015 269 1015 q 297 1008 289 1015 q 304 992 304 1001 l 304 647 l 501 656 q 519 648 511 656 q 526 631 526 640 q 519 614 526 621 q 501 607 511 607 l 304 615 l 304 -6 q 297 -22 304 -15 q 279 -29 289 -29 q 262 -22 269 -29 q 254 -6 254 -15 l 254 615 l 57 607 q 33 631 33 607 z "},"‡":{"ha":608,"x_min":58,"x_max":551,"o":"m 58 631 q 82 656 58 656 l 279 647 l 279 992 q 287 1008 279 1001 q 304 1015 294 1015 q 322 1008 314 1015 q 329 992 329 1001 l 329 647 l 526 656 q 544 648 536 656 q 551 631 551 640 q 544 614 551 621 q 526 607 536 607 l 329 615 l 329 350 l 526 358 q 544 351 536 358 q 551 335 551 344 q 544 317 551 325 q 526 310 536 310 l 329 318 l 329 -6 q 322 -22 329 -15 q 304 -29 314 -29 q 287 -22 294 -29 q 279 -6 279 -15 l 279 318 l 82 310 q 58 335 58 310 q 82 358 58 358 l 279 350 l 279 615 l 82 607 q 58 631 58 607 z "},"•":{"ha":343,"x_min":63,"x_max":281,"o":"m 172 524 q 248 492 215 524 q 281 417 281 460 q 248 342 281 374 q 172 310 215 310 q 95 342 128 310 q 63 417 63 374 q 95 492 63 460 q 172 524 128 524 z "},"…":{"ha":735,"x_min":61,"x_max":674,"o":"m 122 111 q 164 93 146 111 q 182 51 182 75 q 164 10 182 28 q 122 -8 146 -8 q 79 10 97 -8 q 61 51 61 28 q 79 93 61 75 q 122 111 97 111 m 368 111 q 410 93 392 111 q 428 51 428 75 q 410 10 428 28 q 368 -8 392 -8 q 325 10 343 -8 q 307 51 307 28 q 325 93 307 75 q 368 111 343 111 m 614 111 q 656 93 638 111 q 674 51 674 75 q 656 10 674 28 q 614 -8 638 -8 q 571 10 589 -8 q 553 51 553 28 q 571 93 553 75 q 614 111 589 111 z "},"‰":{"ha":1540,"x_min":53,"x_max":1490,"o":"m 638 456 q 665 487 638 456 q 792 518 693 518 q 947 456 890 518 q 1003 290 1003 394 l 1003 228 q 946 62 1003 126 q 792 -3 889 -3 q 638 61 694 -3 q 582 228 582 125 l 582 290 q 638 456 582 393 m 954 228 l 954 290 q 913 420 954 371 q 792 469 872 469 q 672 420 713 469 q 631 290 631 371 l 631 229 q 672 97 631 147 q 793 46 713 46 q 913 96 871 46 q 954 228 954 146 m 108 953 q 136 984 108 953 q 263 1015 164 1015 q 417 953 361 1015 q 474 788 474 892 l 474 725 q 417 559 474 624 q 263 494 360 494 q 109 558 165 494 q 53 725 53 622 l 53 788 q 108 953 53 890 m 425 725 l 425 788 q 384 917 425 868 q 263 967 343 967 q 142 917 183 967 q 101 788 101 868 l 101 726 q 142 594 101 644 q 264 543 183 543 q 383 593 342 543 q 425 725 425 643 m 1125 456 q 1153 487 1125 456 q 1279 518 1181 518 q 1434 456 1378 518 q 1490 290 1490 394 l 1490 228 q 1433 62 1490 126 q 1279 -3 1376 -3 q 1126 61 1182 -3 q 1069 228 1069 125 l 1069 290 q 1125 456 1069 393 m 1442 228 l 1442 290 q 1401 420 1442 371 q 1279 469 1360 469 q 1159 420 1200 469 q 1118 290 1118 371 l 1118 229 q 1159 97 1118 147 q 1281 46 1200 46 q 1400 96 1358 46 q 1442 228 1442 146 m 329 -28 q 312 -21 319 -28 q 304 -4 304 -14 q 306 4 304 1 l 688 1051 q 710 1067 692 1067 q 728 1060 721 1067 q 736 1043 736 1053 q 732 1028 736 1036 l 353 -12 q 329 -28 349 -28 z "},"‹":{"ha":299,"x_min":49,"x_max":235,"o":"m 189 115 l 56 361 q 49 385 49 372 q 56 408 49 397 l 189 656 q 213 668 194 668 q 228 661 222 668 q 235 644 235 654 q 231 632 235 639 l 97 385 l 231 139 q 235 126 235 133 q 227 110 235 117 q 210 103 219 103 q 189 115 196 103 z "},"›":{"ha":299,"x_min":64,"x_max":250,"o":"m 243 361 l 110 115 q 89 103 103 103 q 72 110 79 103 q 64 126 64 117 q 68 139 64 133 l 201 385 l 68 632 q 64 644 64 639 q 70 661 64 654 q 86 668 76 668 q 110 656 103 668 l 243 408 q 250 385 250 397 q 243 361 250 372 z "},"⁄":{"ha":582,"x_min":0,"x_max":589,"o":"m 585 1025 l 46 -12 q 22 -28 39 -28 q 0 -7 0 -28 q 3 6 0 1 l 546 1056 q 564 1067 551 1067 q 581 1059 572 1067 q 589 1040 589 1051 q 585 1025 589 1033 z "},"⁰":{"ha":468,"x_min":71,"x_max":397,"o":"m 352 493 q 330 472 352 493 q 233 451 307 451 q 115 493 160 451 q 71 624 71 535 l 71 894 q 115 1025 71 983 q 233 1067 160 1067 q 352 1025 307 1067 q 397 894 397 983 l 397 624 q 352 493 397 535 m 101 894 l 101 624 q 113 554 101 583 l 339 992 q 233 1036 307 1036 q 101 894 101 1036 m 367 624 l 367 894 q 356 961 367 931 l 128 525 q 233 482 163 482 q 367 624 367 482 z "},"⁴":{"ha":407,"x_min":33,"x_max":365,"o":"m 257 486 l 257 608 l 75 608 q 33 629 33 608 q 36 642 33 636 l 235 1033 q 267 1067 251 1067 q 290 1047 290 1067 q 286 1036 290 1044 l 92 651 l 257 651 l 257 733 q 281 754 257 754 q 304 733 304 754 l 304 651 l 343 651 q 365 629 365 651 q 325 608 365 608 l 304 608 l 304 506 q 281 465 304 465 q 257 486 257 465 z "},"⁵":{"ha":436,"x_min":49,"x_max":381,"o":"m 125 821 l 215 821 q 336 779 292 821 q 381 649 381 738 l 381 633 q 335 503 381 544 q 214 461 289 461 q 96 500 139 461 q 49 600 53 539 q 71 622 49 622 q 96 603 94 622 q 214 503 110 503 q 335 633 335 503 l 335 649 q 303 746 335 713 q 215 779 272 779 l 101 779 q 78 800 78 779 l 93 1047 q 117 1067 96 1067 l 331 1067 q 353 1046 353 1067 q 331 1025 353 1025 l 140 1025 q 125 821 125 826 z "},"⁶":{"ha":464,"x_min":69,"x_max":401,"o":"m 236 813 q 401 649 401 813 l 401 633 q 236 461 401 461 q 115 503 161 461 q 69 633 69 544 l 69 894 q 115 1026 69 985 q 235 1067 160 1067 q 356 1026 311 1067 q 401 928 401 985 q 379 906 401 906 q 356 925 356 906 q 321 997 356 969 q 235 1025 286 1025 q 115 894 115 1025 l 115 764 q 236 813 158 813 m 115 656 l 115 633 q 236 503 115 503 q 356 633 356 503 l 356 649 q 236 771 356 771 q 115 656 115 771 z "},"⁷":{"ha":399,"x_min":47,"x_max":379,"o":"m 379 1046 l 379 988 q 378 979 379 982 l 121 476 q 101 465 117 465 q 76 483 76 465 q 79 496 76 492 l 333 994 l 333 1025 l 93 1025 l 93 926 q 71 906 93 906 q 47 926 47 906 l 47 1046 q 96 1067 47 1067 l 357 1067 q 372 1060 365 1067 q 379 1046 379 1054 z "},"⁸":{"ha":453,"x_min":60,"x_max":392,"o":"m 75 922 q 226 1067 75 1067 q 378 922 378 1067 q 314 797 378 832 q 392 647 392 758 l 392 633 q 347 503 392 544 q 226 461 303 461 q 105 504 150 461 q 60 639 60 547 l 60 647 q 139 797 60 758 q 75 922 75 832 m 346 633 l 346 647 q 226 775 346 775 q 138 743 169 775 q 106 647 106 711 l 106 633 q 138 535 106 568 q 228 503 169 503 q 346 633 346 503 m 331 922 q 226 1025 331 1021 q 122 922 122 1021 q 226 818 122 818 q 331 922 331 818 z "},"⁹":{"ha":464,"x_min":63,"x_max":394,"o":"m 228 711 q 108 753 153 711 q 63 885 63 794 l 63 894 q 108 1026 63 985 q 228 1067 153 1067 q 349 1026 304 1067 q 394 894 394 985 l 394 633 q 229 461 394 461 q 108 502 154 461 q 63 600 63 543 q 85 622 63 622 q 110 603 110 622 q 144 531 110 560 q 229 503 179 503 q 349 633 349 503 l 349 761 q 228 711 307 711 m 349 876 l 349 894 q 228 1025 349 1025 q 108 894 108 1025 l 108 885 q 228 754 108 754 q 349 876 349 754 z "},"€":{"ha":785,"x_min":51,"x_max":715,"o":"m 51 589 q 75 614 51 614 l 172 614 l 172 729 q 246 947 172 878 q 443 1015 319 1015 q 637 951 567 1015 q 715 786 707 888 q 690 758 715 758 q 665 783 667 758 q 595 920 653 875 q 443 965 538 965 q 279 906 336 965 q 222 729 222 847 l 222 614 l 506 614 q 523 606 515 614 q 531 589 531 599 q 523 572 531 579 q 506 565 515 565 l 222 565 l 222 415 l 506 415 q 523 408 515 415 q 531 390 531 400 q 523 374 531 381 q 506 367 515 367 l 222 367 l 222 278 q 279 101 222 160 q 443 42 336 42 q 595 87 538 42 q 665 224 653 132 q 690 249 667 249 q 715 221 715 249 q 637 56 707 119 q 443 -8 567 -8 q 246 60 319 -8 q 172 278 172 129 l 172 367 l 75 367 q 51 390 51 367 q 75 415 51 415 l 172 415 l 172 565 l 75 565 q 51 589 51 565 z "},"™":{"ha":738,"x_min":47,"x_max":633,"o":"m 149 1022 l 71 1022 q 54 1029 61 1022 q 47 1044 47 1036 q 54 1060 47 1053 q 71 1067 61 1067 l 272 1067 q 296 1044 296 1067 q 272 1022 296 1022 l 194 1022 l 194 724 q 172 701 194 701 q 149 724 149 701 l 149 1022 m 588 953 l 517 836 q 494 821 508 821 q 472 838 482 821 l 403 953 l 403 724 q 381 701 403 701 q 357 724 357 701 l 357 1046 q 379 1067 357 1067 q 408 1042 392 1067 l 494 893 l 582 1043 q 611 1067 594 1067 q 633 1046 633 1067 l 633 724 q 610 701 633 701 q 588 724 588 701 l 588 953 z "},"−":{"ha":690,"x_min":99,"x_max":592,"o":"m 99 563 q 122 588 99 588 l 567 588 q 584 580 576 588 q 592 563 592 572 q 584 546 592 553 q 567 539 576 539 l 122 539 q 99 563 99 539 z "},"≠":{"ha":546,"x_min":75,"x_max":474,"o":"m 469 772 l 371 551 l 446 551 q 463 544 456 551 q 471 526 471 536 q 463 510 471 517 q 446 503 456 503 l 350 503 l 246 269 l 446 269 q 463 262 456 269 q 471 244 471 254 q 463 228 471 235 q 446 221 456 221 l 224 221 l 121 -12 q 97 -29 113 -29 q 75 -8 75 -29 q 78 6 75 1 l 172 221 l 99 221 q 75 244 75 221 q 99 269 75 269 l 194 269 l 297 503 l 99 503 q 75 526 75 503 q 99 551 75 551 l 319 551 l 431 803 q 449 814 436 814 q 465 806 457 814 q 474 788 474 799 q 469 772 474 781 z "},"ﬁ":{"ha":665,"x_min":96,"x_max":569,"o":"m 364 1018 q 257 997 303 1018 q 188 944 211 976 q 155 880 165 911 q 144 819 144 849 l 144 656 l 338 656 q 355 649 347 656 q 363 632 363 642 q 355 615 363 622 q 338 607 347 607 l 144 607 l 144 24 q 137 7 144 14 q 118 0 129 0 q 96 24 96 0 l 96 819 q 166 991 96 915 q 360 1067 236 1067 q 497 1042 433 1067 q 561 986 561 1017 q 553 968 561 975 q 539 961 546 961 q 513 975 533 961 q 453 1003 492 989 q 364 1018 414 1018 m 544 656 q 569 632 569 656 l 569 25 q 562 8 569 15 q 544 0 554 0 q 528 8 535 0 q 521 25 521 15 l 521 632 q 528 649 521 642 q 544 656 535 656 z "},"ﬂ":{"ha":665,"x_min":96,"x_max":569,"o":"m 378 1018 l 343 1018 q 202 958 260 1018 q 144 819 144 899 l 144 656 l 338 656 q 355 649 347 656 q 363 632 363 642 q 355 615 363 622 q 338 607 347 607 l 144 607 l 144 24 q 137 7 144 14 q 118 0 129 0 q 96 24 96 0 l 96 819 q 169 993 96 919 q 343 1067 243 1067 l 374 1067 q 485 1045 426 1067 q 569 969 544 1024 l 569 25 q 562 8 569 15 q 544 0 554 0 q 528 8 535 0 q 521 25 521 15 l 521 964 q 378 1018 454 1018 z "}}}
